<svg width="94" height="122" viewBox="0 0 94 122" fill="none" xmlns="http://www.w3.org/2000/svg">
<g clip-path="url(#clip0_4_152)">
<path d="M78.3337 92.1807C76.7721 93.8168 73.5376 91.6597 72.057 90.5932C68.4377 87.9921 65.9627 83.0046 65.6345 78.5727C64.9378 69.1391 69.3167 63.2352 66.5055 52.9663C60.2126 29.9754 30.9438 27.4938 21.5926 49.6779C21.0964 50.8538 20.8007 52.3865 20.3126 53.4651C19.6077 55.0221 13.4344 60.4313 11.7695 61.9438C9.96084 63.588 7.44532 66.1486 5.58804 67.5151C2.79909 69.5648 0.492179 65.9783 2.7444 63.6549C6.83568 59.4338 12.1381 55.7216 16.2253 51.4012C22.2185 29.647 49.1439 20.9716 64.4213 39.4414C71.5466 48.0559 73.0353 57.9923 71.0848 68.8086C69.904 75.3633 68.3587 82.5809 75.0951 86.9439C76.0592 87.5683 78.0623 88.1056 78.5727 88.9368C79.1783 89.9201 79.158 91.319 78.3317 92.1827L78.3337 92.1807Z" fill="#375582"/>
<path d="M71.2428 97.7906C72.6342 99.1267 71.9193 102.064 69.7926 102.081C68.0852 102.093 63.5018 99.4673 62.1002 98.3258C52.263 90.3195 57.1745 74.4306 58.5275 63.9428C60.5913 47.9525 42.9158 36.2077 32.0233 49.5765C28.9447 53.3556 28.8009 57.7754 25.8236 61.8201C21.9126 67.134 15.1823 73.1736 10.1472 77.5529C8.68281 78.8281 6.02349 81.8956 4.3809 79.264C3.26897 77.4839 4.50445 76.2574 5.68525 75.1139C10.854 70.1183 16.6891 65.7046 21.2787 60.109C26.0484 54.2943 25.372 48.135 32.1226 42.9854C44.6151 33.4585 60.3078 42.3062 62.7443 56.7272C64.6542 68.0402 54.2721 88.6388 66.7181 95.7307C67.7936 96.343 70.6433 97.2168 71.2408 97.7926L71.2428 97.7906Z" fill="#375582"/>
<path d="M41.895 49.319C50.4442 48.2364 55.698 56.859 53.9258 64.6058C50.8634 77.9847 35.4786 93.2552 25.3395 102.085C24.7522 102.596 22.502 104.68 22.0443 104.868C19.7576 105.807 18.0036 103.202 19.2594 101.27C26.9416 94.125 35.0411 87.248 41.417 78.8464C44.53 74.7449 50.3915 65.4674 50.0411 60.3198C49.6806 55.0161 43.9953 51.3546 39.5314 55.0627C37.3541 56.8691 37.1354 59.6649 36.0417 62.112C32.7221 69.5405 24.0534 78.1064 18.0482 83.6351C16.5615 85.0036 12.7356 88.801 11.2247 89.5755C9.12231 90.652 7.35618 88.6064 8.16431 86.512C8.41546 85.8592 8.86307 85.5166 9.33296 85.0482C16.2031 78.1996 23.6787 72.7398 29.3498 64.5368C33.2001 58.9675 33.8502 50.3388 41.895 49.319Z" fill="#375582"/>
<path d="M79.958 62.7872C78.5119 64.0928 76.5695 62.8642 76.3751 61.1267C76.1564 59.1601 76.2313 57.1165 75.9356 55.0789C73.175 35.9766 57.0185 21.592 37.2468 25.0021C27.9523 26.6058 22.2326 31.8386 17.3514 39.5529C14.5848 43.9241 10.1127 54.2801 5.02496 55.8007C2.99147 56.4069 1.52915 55.1235 1.85321 53.0312C2.11448 51.3444 3.54238 51.3728 4.65836 50.5679C8.07518 48.1005 11.4879 40.3092 13.9083 36.5118C19.0203 28.4893 25.1107 22.7456 34.6482 20.5763C59.4794 14.9319 80.4076 35.1798 80.6163 59.5129C80.6264 60.5976 81.0092 61.8343 79.956 62.7872H79.958Z" fill="#375582"/>
<path d="M42.7133 9.99518C53.227 9.39304 64.0243 12.1503 72.219 18.8611C73.9568 20.2843 78.4896 24.6636 78.6132 26.8714C78.7225 28.8117 76.7458 30.1518 75.091 28.9617C73.9426 27.5547 73.0069 25.9266 71.7269 24.625C57.5269 10.1817 29.0257 12.3815 15.6096 26.8593C14.601 27.948 13.8819 30.1173 11.9133 29.1482C8.97849 27.7027 11.5993 24.3311 12.9746 22.8044C19.8143 15.2158 32.6836 10.571 42.7112 9.99518H42.7133Z" fill="#375582"/>
<path d="M43.7259 0.0608243C51.9834 -0.300056 61.6101 0.883957 68.7516 5.30171C70.6939 6.50194 70.4347 9.60389 68.3627 9.92625C66.7748 10.1736 62.8638 7.79746 61.0328 7.15071C51.2928 3.70613 38.8184 4.52115 29.0298 7.45077C26.9943 8.059 24.1729 9.49036 22.3096 9.84515C19.2614 10.425 18.2487 6.60939 20.6244 5.32198C22.2589 4.436 25.7385 3.35944 27.612 2.7877C32.8152 1.20023 38.2797 0.30006 43.7259 0.0608243Z" fill="#375582"/>
<path d="M43.1082 58.4343C45.2876 58.0714 45.7676 60.1069 45.4982 61.8465C43.7017 73.4068 27.8227 86.7574 19.2573 93.9669C17.7687 95.2198 14.8218 99.1895 13.0982 96.0815C11.9437 94.0013 14.046 92.4118 15.4091 91.1285C24.3795 82.6741 34.9196 76.0343 40.0135 64.0584C40.5198 62.8703 41.4251 59.3791 42.2434 58.7891C42.4804 58.6168 42.8206 58.4809 43.1082 58.4323V58.4343Z" fill="#375582"/>
<path d="M40.2747 97.3689C47.5296 96.3734 49.8183 107.65 50.0431 113.031C50.0938 114.253 50.0918 116.031 48.6396 116.485C46.8066 117.059 45.8911 115.859 45.6116 114.223C45.0242 110.803 45.0992 107.135 43.327 103.94C41.0849 99.8991 37.4453 103.477 35.5819 105.848C34.5429 107.167 32.8233 110.434 31.6871 111.275C29.5949 112.824 27.3589 110.328 28.3938 108.181C31.2982 103.729 34.3971 98.1738 40.2747 97.3668V97.3689Z" fill="#375582"/>
<path d="M50.193 84.584C50.9545 84.4157 51.868 84.7705 52.3845 85.3463C53.306 86.3742 52.7632 89.7944 52.8847 91.3332C53.2392 95.8057 56.4271 103.291 59.9675 106.139C61.7559 107.577 65.677 107.885 64.5752 110.947C63.7205 113.323 61.3144 112.431 59.6272 111.547C52.6498 107.893 47.7504 95.0171 48.4269 87.4872C48.5241 86.3985 48.9535 84.8556 50.191 84.584H50.193Z" fill="#375582"/>
<path d="M93.3256 35.8225C92.5762 36.4855 91.2658 36.4145 90.4495 35.8874C89.3214 35.1575 88.1669 31.3662 87.4844 29.9349C85.9977 26.8126 84.0514 23.8485 81.8356 21.1947C81.0032 20.1951 78.7246 18.2083 78.2223 17.3101C76.922 14.9847 79.478 12.937 81.7384 14.6015C84.8332 16.8783 89.526 23.8567 91.2678 27.3641C91.8531 28.542 94.1216 33.568 93.9899 34.5533C93.9514 34.8372 93.5241 35.6461 93.3215 35.8245L93.3256 35.8225Z" fill="#375582"/>
<path d="M88.6794 58.4343C90.0242 58.1789 91.1706 59.0952 91.5169 60.3664C92.2217 62.9555 92.3352 68.9201 92.1812 71.6794C92.0395 74.2178 91.0389 80.6974 90.0465 82.9235C88.9791 85.3199 85.7365 84.2738 85.7648 81.6381C85.781 80.1318 86.9679 76.8737 87.2535 75.0571C88.0839 69.7554 87.3264 66.3919 87.1137 61.3295C87.0611 60.0583 87.1583 58.7222 88.6794 58.4323V58.4343Z" fill="#375582"/>
<path d="M6.85795 31.869C8.00229 31.7291 9.20334 32.901 9.33094 33.9796C9.495 35.3805 7.85444 37.2701 7.20429 38.5169C6.27059 40.3092 4.98852 43.7801 3.95558 45.1993C2.53579 47.1477 0.0627955 46.0569 8.69826e-06 43.8957C-0.0364482 42.6123 2.22388 38.2473 2.95099 36.895C3.6457 35.6035 5.41385 32.0454 6.85795 31.867V31.869Z" fill="#375582"/>
<path d="M88.4667 49.8137C87.9299 50.3125 86.974 50.3591 86.2874 50.1949C84.3754 49.7346 84.2437 47.0868 83.6726 45.5156C82.7632 43.0117 81.71 40.5748 80.7641 38.0871C80.6912 35.2852 83.7961 34.9101 85.1268 37.1667C86.1901 38.969 88.8171 45.8177 89.0966 47.8045C89.1816 48.4087 88.9102 49.4042 88.4667 49.8157V49.8137Z" fill="#375582"/>
<path d="M79.1621 68.7782C80.8695 68.6748 81.151 70.3413 81.2442 71.6612C81.3778 73.5508 81.2725 76.454 81.0092 78.3355C80.8796 79.264 80.75 80.3325 79.8892 80.8637C78.6213 81.6442 77.1752 81.2773 76.7924 79.7689L77.2015 74.1022C76.8734 72.1822 76.3954 68.9465 79.16 68.7782H79.1621Z" fill="#375582"/>
<path d="M38.859 110.127C39.8534 110.016 40.9026 110.642 41.095 111.662C41.2449 112.457 39.8676 115.058 39.5091 116.068C39.0595 117.339 38.4519 120.181 37.8645 121.112C36.947 122.568 34.156 122.178 34.0305 120.325C33.9434 119.02 36.2057 112.775 36.9733 111.504C37.4068 110.786 37.9739 110.227 38.8569 110.127H38.859Z" fill="#375582"/>
</g>
<defs>
<clipPath id="clip0_4_152">
<rect width="94" height="122" fill="white"/>
</clipPath>
</defs>
</svg>
