<svg width="48" height="54" viewBox="0 0 48 54" fill="none" xmlns="http://www.w3.org/2000/svg">
<path fill-rule="evenodd" clip-rule="evenodd" d="M35.698 2.83332C35.698 1.71149 34.7885 0.802072 33.6667 0.802072C32.5449 0.802072 31.6355 1.71149 31.6355 2.83332V5.63543H16.3645V2.83332C16.3645 1.71149 15.4551 0.802072 14.3333 0.802072C13.2115 0.802072 12.302 1.71149 12.302 2.83332V5.63543H7.08333C3.29213 5.63543 0.21875 8.70881 0.21875 12.5V22.1667V46.3333C0.21875 50.1246 3.29213 53.1979 7.08333 53.1979H40.9167C44.7079 53.1979 47.7812 50.1246 47.7812 46.3333V22.1667V12.5C47.7812 8.70881 44.7079 5.63543 40.9167 5.63543H35.698V2.83332ZM12.302 9.69793H7.08333C5.53579 9.69793 4.28125 10.9525 4.28125 12.5V20.1354H43.7188V12.5C43.7188 10.9525 42.4642 9.69793 40.9167 9.69793H35.698V12.5C35.698 13.6218 34.7885 14.5312 33.6667 14.5312C32.5449 14.5312 31.6355 13.6218 31.6355 12.5V9.69793H16.3645V12.5C16.3645 13.6218 15.4551 14.5312 14.3333 14.5312C13.2115 14.5312 12.302 13.6218 12.302 12.5V9.69793ZM4.28125 46.3333V24.1979H43.7188V46.3333C43.7188 47.8809 42.4642 49.1354 40.9167 49.1354H7.08333C5.53579 49.1354 4.28125 47.8809 4.28125 46.3333ZM19.552 31.8333C19.552 30.7115 20.4615 29.8021 21.5833 29.8021H36.0833C37.2051 29.8021 38.1145 30.7115 38.1145 31.8333C38.1145 32.9552 37.2051 33.8646 36.0833 33.8646H21.5833C20.4615 33.8646 19.552 32.9552 19.552 31.8333ZM11.9167 39.4688C10.7949 39.4688 9.88546 40.3782 9.88546 41.5C9.88546 42.6218 10.7949 43.5312 11.9167 43.5312H26.4167C27.5385 43.5312 28.448 42.6218 28.448 41.5C28.448 40.3782 27.5385 39.4688 26.4167 39.4688H11.9167ZM9.88546 31.8333C9.88546 30.7115 10.7949 29.8021 11.9167 29.8021H11.9414C13.0633 29.8021 13.9727 30.7115 13.9727 31.8333C13.9727 32.9552 13.0633 33.8646 11.9414 33.8646H11.9167C10.7949 33.8646 9.88546 32.9552 9.88546 31.8333ZM36.0833 39.4688C34.9615 39.4688 34.052 40.3782 34.052 41.5C34.052 42.6218 34.9615 43.5312 36.0833 43.5312H36.108C37.2298 43.5312 38.1392 42.6218 38.1392 41.5C38.1392 40.3782 37.2298 39.4688 36.108 39.4688H36.0833Z" fill="#0266AF"/>
</svg>
