<svg width="58" height="59" viewBox="0 0 58 59" fill="none" xmlns="http://www.w3.org/2000/svg">
<path fill-rule="evenodd" clip-rule="evenodd" d="M37.4555 9.30351C37.5034 9.30116 37.5514 9.30841 37.5966 9.32483C37.6417 9.34125 37.6831 9.3665 37.7184 9.39913C37.7537 9.43176 37.7821 9.47109 37.802 9.51481L41.4974 17.6455H19.9479L37.3165 9.33875L37.3171 9.33848C37.3604 9.31774 37.4075 9.30585 37.4555 9.30351ZM12.4707 21.7486V24.5228C12.4707 25.6559 13.3892 26.5744 14.5223 26.5744C15.6553 26.5744 16.5738 25.6559 16.5738 24.5228V21.7486H44.6367C44.6686 21.7494 44.7006 21.7494 44.7326 21.7486H48.3027C49.8349 21.7486 51.0769 22.9907 51.0769 24.5228V46.2387C51.0769 47.7709 49.8349 49.0129 48.3027 49.0129H16.5738V46.2388C16.5738 45.1058 15.6553 44.1873 14.5223 44.1873C13.3892 44.1873 12.4707 45.1058 12.4707 46.2388V49.0129H9.69666C8.16451 49.0129 6.92246 47.7709 6.92246 46.2387V24.5228C6.92246 22.9907 8.16451 21.7486 9.69666 21.7486H10.8577C10.8889 21.7493 10.9201 21.7493 10.9514 21.7486H12.4707ZM10.4379 17.6455L35.5457 5.63744C36.0811 5.38116 36.6623 5.23424 37.2552 5.20527C37.8482 5.1763 38.4409 5.26587 38.9988 5.46874C39.5567 5.67161 40.0685 5.9837 40.5043 6.38675C40.9401 6.7898 41.2912 7.27572 41.537 7.81609L41.5372 7.81657L46.0045 17.6455H48.3027C52.101 17.6455 55.18 20.7246 55.18 24.5228V46.2387C55.18 50.037 52.101 53.1161 48.3027 53.1161H14.541C14.5348 53.1161 14.5285 53.1161 14.5223 53.1161C14.516 53.1161 14.5098 53.1161 14.5035 53.1161H9.69666C5.89842 53.1161 2.81934 50.037 2.81934 46.2387V24.5228C2.81934 20.7246 5.89842 17.6455 9.69666 17.6455H10.4379ZM44.9953 27.9687C45.7575 28.807 45.6957 30.1045 44.8573 30.8667L32.9666 41.6764L32.9665 41.6765C31.7008 42.8269 30.0519 43.4645 28.3415 43.4646H28.3413H25.3807C24.2476 43.4646 23.3291 42.5461 23.3291 41.4131C23.3291 40.28 24.2476 39.3615 25.3807 39.3615H28.341H28.3413C29.0311 39.3614 29.6961 39.1043 30.2066 38.6403L30.2067 38.6402L33.5082 35.6389L28.7287 35.0016C27.6056 34.8519 26.8165 33.82 26.9662 32.6969C27.116 31.5738 28.1478 30.7848 29.2709 30.9345L37.4791 32.0289L42.0972 27.8306C42.9356 27.0685 44.2331 27.1303 44.9953 27.9687ZM16.5738 34.1744C16.5738 33.0413 15.6553 32.1228 14.5223 32.1228C13.3892 32.1228 12.4707 33.0413 12.4707 34.1744V36.5872C12.4707 37.7203 13.3892 38.6388 14.5223 38.6388C15.6553 38.6388 16.5738 37.7203 16.5738 36.5872V34.1744Z" fill="#707D91" fill-opacity="0.5"/>
</svg>
