<svg width="444" height="253" viewBox="0 0 444 253" fill="none" xmlns="http://www.w3.org/2000/svg">
<path d="M2.29253 243.861V218.277H19.5323V222.736H7.70182V228.833H18.6453V233.293H7.70182V239.401H19.5823V243.861H2.29253ZM29.0548 232.768V243.861H23.7329V224.673H28.8049V228.058H29.0298C29.4545 226.942 30.1666 226.059 31.166 225.41C32.1654 224.752 33.3772 224.423 34.8014 224.423C36.1339 224.423 37.2957 224.714 38.2868 225.297C39.2779 225.88 40.0483 226.713 40.5979 227.796C41.1476 228.87 41.4224 230.153 41.4224 231.644V243.861H36.1006V232.593C36.1089 231.419 35.8091 230.503 35.2011 229.845C34.5932 229.178 33.7562 228.845 32.6901 228.845C31.9739 228.845 31.3409 228.999 30.7912 229.307C30.2499 229.616 29.8252 230.065 29.517 230.657C29.2172 231.24 29.0631 231.943 29.0548 232.768ZM54.2867 244.236C52.3212 244.236 50.6305 243.82 49.2147 242.987C47.8072 242.146 46.7245 240.98 45.9666 239.489C45.2171 237.998 44.8423 236.282 44.8423 234.342C44.8423 232.376 45.2212 230.652 45.9791 229.17C46.7453 227.679 47.8322 226.517 49.2397 225.685C50.6472 224.843 52.3212 224.423 54.2617 224.423C55.9357 224.423 57.4015 224.727 58.6591 225.335C59.9167 225.943 60.9119 226.796 61.6448 227.896C62.3777 228.995 62.7816 230.286 62.8566 231.769H57.8346C57.693 230.811 57.3182 230.04 56.7102 229.457C56.1106 228.866 55.3236 228.57 54.3491 228.57C53.5246 228.57 52.8042 228.795 52.1879 229.245C51.58 229.686 51.1052 230.332 50.7638 231.181C50.4223 232.031 50.2516 233.059 50.2516 234.267C50.2516 235.491 50.4181 236.532 50.7513 237.39C51.0927 238.248 51.5716 238.902 52.1879 239.352C52.8042 239.801 53.5246 240.026 54.3491 240.026C54.9571 240.026 55.5026 239.901 55.9857 239.651C56.4771 239.401 56.881 239.039 57.1975 238.564C57.5223 238.081 57.7346 237.503 57.8346 236.828H62.8566C62.7733 238.294 62.3736 239.585 61.6573 240.701C60.9494 241.808 59.9708 242.675 58.7216 243.299C57.4723 243.924 55.994 244.236 54.2867 244.236ZM74.9338 244.236C72.9933 244.236 71.3151 243.824 69.8993 242.999C68.4918 242.167 67.4049 241.009 66.6387 239.526C65.8725 238.036 65.4894 236.307 65.4894 234.342C65.4894 232.36 65.8725 230.628 66.6387 229.145C67.4049 227.654 68.4918 226.497 69.8993 225.672C71.3151 224.839 72.9933 224.423 74.9338 224.423C76.8743 224.423 78.5483 224.839 79.9558 225.672C81.3717 226.497 82.4627 227.654 83.2289 229.145C83.9951 230.628 84.3782 232.36 84.3782 234.342C84.3782 236.307 83.9951 238.036 83.2289 239.526C82.4627 241.009 81.3717 242.167 79.9558 242.999C78.5483 243.824 76.8743 244.236 74.9338 244.236ZM74.9588 240.114C75.8416 240.114 76.5787 239.864 77.17 239.364C77.7613 238.856 78.2069 238.165 78.5067 237.29C78.8148 236.416 78.9689 235.421 78.9689 234.304C78.9689 233.188 78.8148 232.193 78.5067 231.319C78.2069 230.444 77.7613 229.753 77.17 229.245C76.5787 228.737 75.8416 228.483 74.9588 228.483C74.0677 228.483 73.3181 228.737 72.7101 229.245C72.1105 229.753 71.6566 230.444 71.3484 231.319C71.0486 232.193 70.8987 233.188 70.8987 234.304C70.8987 235.421 71.0486 236.416 71.3484 237.29C71.6566 238.165 72.1105 238.856 72.7101 239.364C73.3181 239.864 74.0677 240.114 74.9588 240.114ZM93.1605 232.768V243.861H87.8387V224.673H92.9106V228.058H93.1355C93.5603 226.942 94.2723 226.059 95.2717 225.41C96.2712 224.752 97.4829 224.423 98.9071 224.423C100.24 224.423 101.401 224.714 102.393 225.297C103.384 225.88 104.154 226.713 104.704 227.796C105.253 228.87 105.528 230.153 105.528 231.644V243.861H100.206V232.593C100.215 231.419 99.9148 230.503 99.3068 229.845C98.6989 229.178 97.8619 228.845 96.7958 228.845C96.0796 228.845 95.4466 228.999 94.897 229.307C94.3556 229.616 93.9309 230.065 93.6227 230.657C93.3229 231.24 93.1688 231.943 93.1605 232.768ZM119.929 224.673V228.67H108.373V224.673H119.929ZM110.997 220.075H116.319V237.965C116.319 238.456 116.394 238.839 116.544 239.114C116.693 239.381 116.902 239.568 117.168 239.676C117.443 239.785 117.759 239.839 118.118 239.839C118.367 239.839 118.617 239.818 118.867 239.776C119.117 239.726 119.309 239.689 119.442 239.664L120.279 243.624C120.012 243.707 119.638 243.803 119.154 243.911C118.671 244.028 118.084 244.099 117.393 244.124C116.11 244.174 114.986 244.003 114.02 243.611C113.062 243.22 112.317 242.612 111.784 241.788C111.251 240.963 110.988 239.922 110.997 238.664V220.075ZM123.396 243.861V224.673H128.555V228.021H128.755C129.105 226.83 129.692 225.93 130.516 225.322C131.341 224.706 132.29 224.398 133.365 224.398C133.631 224.398 133.919 224.415 134.227 224.448C134.535 224.481 134.806 224.527 135.039 224.585V229.307C134.789 229.233 134.443 229.166 134.002 229.108C133.56 229.049 133.157 229.02 132.79 229.02C132.007 229.02 131.308 229.191 130.691 229.532C130.083 229.865 129.6 230.332 129.242 230.931C128.892 231.531 128.718 232.222 128.718 233.005V243.861H123.396ZM142.712 244.224C141.488 244.224 140.397 244.011 139.439 243.586C138.482 243.153 137.724 242.516 137.166 241.675C136.616 240.826 136.341 239.768 136.341 238.502C136.341 237.436 136.537 236.541 136.928 235.816C137.32 235.092 137.853 234.509 138.527 234.067C139.202 233.626 139.968 233.293 140.826 233.068C141.692 232.843 142.6 232.685 143.549 232.593C144.665 232.476 145.565 232.368 146.248 232.268C146.931 232.16 147.426 232.002 147.734 231.793C148.043 231.585 148.197 231.277 148.197 230.869V230.794C148.197 230.003 147.947 229.391 147.447 228.958C146.956 228.525 146.256 228.308 145.348 228.308C144.391 228.308 143.628 228.52 143.062 228.945C142.496 229.362 142.121 229.886 141.938 230.519L137.016 230.119C137.266 228.954 137.757 227.946 138.49 227.096C139.223 226.238 140.168 225.581 141.326 225.122C142.492 224.656 143.841 224.423 145.373 224.423C146.439 224.423 147.46 224.548 148.434 224.798C149.417 225.047 150.287 225.435 151.045 225.959C151.811 226.484 152.415 227.159 152.856 227.983C153.298 228.799 153.518 229.778 153.518 230.919V243.861H148.471V241.2H148.322C148.013 241.8 147.601 242.329 147.085 242.787C146.568 243.237 145.948 243.591 145.223 243.849C144.499 244.099 143.662 244.224 142.712 244.224ZM144.236 240.551C145.019 240.551 145.711 240.397 146.31 240.089C146.91 239.772 147.38 239.347 147.722 238.814C148.063 238.281 148.234 237.677 148.234 237.003V234.967C148.068 235.075 147.838 235.175 147.547 235.266C147.264 235.35 146.943 235.429 146.585 235.504C146.227 235.57 145.869 235.633 145.511 235.691C145.153 235.741 144.828 235.787 144.536 235.829C143.912 235.92 143.366 236.066 142.9 236.266C142.433 236.466 142.071 236.736 141.813 237.078C141.555 237.411 141.426 237.827 141.426 238.327C141.426 239.052 141.688 239.606 142.213 239.989C142.746 240.363 143.42 240.551 144.236 240.551ZM157.647 243.861V224.673H162.807V228.021H163.007C163.356 226.83 163.944 225.93 164.768 225.322C165.593 224.706 166.542 224.398 167.616 224.398C167.883 224.398 168.17 224.415 168.478 224.448C168.786 224.481 169.057 224.527 169.29 224.585V229.307C169.04 229.233 168.695 229.166 168.253 229.108C167.812 229.049 167.408 229.02 167.042 229.02C166.259 229.02 165.559 229.191 164.943 229.532C164.335 229.865 163.852 230.332 163.494 230.931C163.144 231.531 162.969 232.222 162.969 233.005V243.861H157.647ZM192.489 235.691V224.673H197.811V243.861H192.701V240.376H192.502C192.068 241.5 191.348 242.404 190.34 243.087C189.341 243.77 188.121 244.111 186.68 244.111C185.397 244.111 184.269 243.82 183.295 243.237C182.32 242.654 181.558 241.825 181.008 240.751C180.467 239.676 180.192 238.39 180.184 236.89V224.673H185.506V235.941C185.514 237.074 185.818 237.969 186.418 238.627C187.017 239.285 187.821 239.614 188.829 239.614C189.47 239.614 190.07 239.468 190.628 239.177C191.186 238.877 191.635 238.435 191.977 237.852C192.327 237.269 192.497 236.549 192.489 235.691ZM202.068 243.861V224.673H207.14V228.058H207.365C207.764 226.934 208.431 226.047 209.363 225.397C210.296 224.748 211.412 224.423 212.711 224.423C214.027 224.423 215.148 224.752 216.072 225.41C216.996 226.059 217.613 226.942 217.921 228.058H218.121C218.512 226.959 219.22 226.08 220.244 225.422C221.277 224.756 222.497 224.423 223.905 224.423C225.695 224.423 227.149 224.993 228.265 226.134C229.389 227.267 229.951 228.874 229.951 230.956V243.861H224.642V232.006C224.642 230.94 224.359 230.14 223.792 229.607C223.226 229.074 222.518 228.808 221.669 228.808C220.703 228.808 219.949 229.116 219.407 229.732C218.866 230.34 218.595 231.144 218.595 232.143V243.861H213.436V231.893C213.436 230.952 213.165 230.203 212.624 229.645C212.091 229.087 211.387 228.808 210.513 228.808C209.921 228.808 209.388 228.958 208.914 229.257C208.447 229.549 208.077 229.961 207.802 230.494C207.527 231.019 207.39 231.635 207.39 232.343V243.861H202.068ZM242.397 243.861V218.277H259.337V222.736H247.806V228.833H258.213V233.293H247.806V243.861H242.397ZM273.978 235.691V224.673H279.3V243.861H274.191V240.376H273.991C273.558 241.5 272.837 242.404 271.83 243.087C270.83 243.77 269.61 244.111 268.169 244.111C266.887 244.111 265.758 243.82 264.784 243.237C263.809 242.654 263.047 241.825 262.498 240.751C261.956 239.676 261.681 238.39 261.673 236.89V224.673H266.995V235.941C267.003 237.074 267.307 237.969 267.907 238.627C268.506 239.285 269.31 239.614 270.318 239.614C270.959 239.614 271.559 239.468 272.117 239.177C272.675 238.877 273.125 238.435 273.466 237.852C273.816 237.269 273.987 236.549 273.978 235.691ZM288.879 232.768V243.861H283.557V224.673H288.629V228.058H288.854C289.279 226.942 289.991 226.059 290.99 225.41C291.989 224.752 293.201 224.423 294.625 224.423C295.958 224.423 297.12 224.714 298.111 225.297C299.102 225.88 299.872 226.713 300.422 227.796C300.972 228.87 301.246 230.153 301.246 231.644V243.861H295.925V232.593C295.933 231.419 295.633 230.503 295.025 229.845C294.417 229.178 293.58 228.845 292.514 228.845C291.798 228.845 291.165 228.999 290.615 229.307C290.074 229.616 289.649 230.065 289.341 230.657C289.041 231.24 288.887 231.943 288.879 232.768ZM314.111 244.236C312.145 244.236 310.455 243.82 309.039 242.987C307.631 242.146 306.548 240.98 305.791 239.489C305.041 237.998 304.666 236.282 304.666 234.342C304.666 232.376 305.045 230.652 305.803 229.17C306.569 227.679 307.656 226.517 309.064 225.685C310.471 224.843 312.145 224.423 314.086 224.423C315.76 224.423 317.225 224.727 318.483 225.335C319.741 225.943 320.736 226.796 321.469 227.896C322.202 228.995 322.606 230.286 322.681 231.769H317.659C317.517 230.811 317.142 230.04 316.534 229.457C315.935 228.866 315.148 228.57 314.173 228.57C313.349 228.57 312.628 228.795 312.012 229.245C311.404 229.686 310.929 230.332 310.588 231.181C310.246 232.031 310.076 233.059 310.076 234.267C310.076 235.491 310.242 236.532 310.575 237.39C310.917 238.248 311.396 238.902 312.012 239.352C312.628 239.801 313.349 240.026 314.173 240.026C314.781 240.026 315.327 239.901 315.81 239.651C316.301 239.401 316.705 239.039 317.021 238.564C317.346 238.081 317.559 237.503 317.659 236.828H322.681C322.597 238.294 322.198 239.585 321.481 240.701C320.773 241.808 319.795 242.675 318.546 243.299C317.296 243.924 315.818 244.236 314.111 244.236ZM326.088 243.861V224.673H331.41V243.861H326.088ZM328.761 222.199C327.97 222.199 327.291 221.937 326.725 221.412C326.167 220.879 325.888 220.242 325.888 219.501C325.888 218.768 326.167 218.139 326.725 217.614C327.291 217.081 327.97 216.815 328.761 216.815C329.553 216.815 330.227 217.081 330.785 217.614C331.351 218.139 331.635 218.768 331.635 219.501C331.635 220.242 331.351 220.879 330.785 221.412C330.227 221.937 329.553 222.199 328.761 222.199ZM344.343 244.236C342.402 244.236 340.724 243.824 339.308 242.999C337.901 242.167 336.814 241.009 336.048 239.526C335.281 238.036 334.898 236.307 334.898 234.342C334.898 232.36 335.281 230.628 336.048 229.145C336.814 227.654 337.901 226.497 339.308 225.672C340.724 224.839 342.402 224.423 344.343 224.423C346.283 224.423 347.957 224.839 349.365 225.672C350.781 226.497 351.872 227.654 352.638 229.145C353.404 230.628 353.787 232.36 353.787 234.342C353.787 236.307 353.404 238.036 352.638 239.526C351.872 241.009 350.781 242.167 349.365 242.999C347.957 243.824 346.283 244.236 344.343 244.236ZM344.368 240.114C345.251 240.114 345.988 239.864 346.579 239.364C347.17 238.856 347.616 238.165 347.916 237.29C348.224 236.416 348.378 235.421 348.378 234.304C348.378 233.188 348.224 232.193 347.916 231.319C347.616 230.444 347.17 229.753 346.579 229.245C345.988 228.737 345.251 228.483 344.368 228.483C343.477 228.483 342.727 228.737 342.119 229.245C341.519 229.753 341.066 230.444 340.757 231.319C340.458 232.193 340.308 233.188 340.308 234.304C340.308 235.421 340.458 236.416 340.757 237.29C341.066 238.165 341.519 238.856 342.119 239.364C342.727 239.864 343.477 240.114 344.368 240.114ZM362.569 232.768V243.861H357.248V224.673H362.32V228.058H362.544C362.969 226.942 363.681 226.059 364.681 225.41C365.68 224.752 366.892 224.423 368.316 224.423C369.649 224.423 370.81 224.714 371.801 225.297C372.793 225.88 373.563 226.713 374.113 227.796C374.662 228.87 374.937 230.153 374.937 231.644V243.861H369.615V232.593C369.624 231.419 369.324 230.503 368.716 229.845C368.108 229.178 367.271 228.845 366.205 228.845C365.489 228.845 364.856 228.999 364.306 229.307C363.765 229.616 363.34 230.065 363.032 230.657C362.732 231.24 362.578 231.943 362.569 232.768ZM384.603 244.224C383.379 244.224 382.288 244.011 381.33 243.586C380.372 243.153 379.615 242.516 379.057 241.675C378.507 240.826 378.232 239.768 378.232 238.502C378.232 237.436 378.428 236.541 378.819 235.816C379.211 235.092 379.744 234.509 380.418 234.067C381.093 233.626 381.859 233.293 382.717 233.068C383.583 232.843 384.491 232.685 385.44 232.593C386.556 232.476 387.456 232.368 388.139 232.268C388.822 232.16 389.317 232.002 389.625 231.793C389.933 231.585 390.087 231.277 390.087 230.869V230.794C390.087 230.003 389.838 229.391 389.338 228.958C388.847 228.525 388.147 228.308 387.239 228.308C386.281 228.308 385.519 228.52 384.953 228.945C384.387 229.362 384.012 229.886 383.829 230.519L378.907 230.119C379.156 228.954 379.648 227.946 380.381 227.096C381.114 226.238 382.059 225.581 383.217 225.122C384.383 224.656 385.732 224.423 387.264 224.423C388.33 224.423 389.35 224.548 390.325 224.798C391.308 225.047 392.178 225.435 392.936 225.959C393.702 226.484 394.306 227.159 394.747 227.983C395.189 228.799 395.409 229.778 395.409 230.919V243.861H390.362V241.2H390.212C389.904 241.8 389.492 242.329 388.976 242.787C388.459 243.237 387.839 243.591 387.114 243.849C386.39 244.099 385.553 244.224 384.603 244.224ZM386.127 240.551C386.91 240.551 387.601 240.397 388.201 240.089C388.801 239.772 389.271 239.347 389.613 238.814C389.954 238.281 390.125 237.677 390.125 237.003V234.967C389.958 235.075 389.729 235.175 389.438 235.266C389.155 235.35 388.834 235.429 388.476 235.504C388.118 235.57 387.76 235.633 387.402 235.691C387.043 235.741 386.719 235.787 386.427 235.829C385.803 235.92 385.257 236.066 384.791 236.266C384.324 236.466 383.962 236.736 383.704 237.078C383.446 237.411 383.316 237.827 383.316 238.327C383.316 239.052 383.579 239.606 384.104 239.989C384.637 240.363 385.311 240.551 386.127 240.551ZM385.553 222.199L388.201 216.515H393.123L389.313 222.199H385.553ZM399.538 243.861V224.673H404.698V228.021H404.897C405.247 226.83 405.834 225.93 406.659 225.322C407.483 224.706 408.433 224.398 409.507 224.398C409.774 224.398 410.061 224.415 410.369 224.448C410.677 224.481 410.948 224.527 411.181 224.585V229.307C410.931 229.233 410.586 229.166 410.144 229.108C409.703 229.049 409.299 229.02 408.933 229.02C408.15 229.02 407.45 229.191 406.834 229.532C406.226 229.865 405.743 230.332 405.385 230.931C405.035 231.531 404.86 232.222 404.86 233.005V243.861H399.538ZM413.933 243.861V224.673H419.255V243.861H413.933ZM416.606 222.199C415.815 222.199 415.136 221.937 414.57 221.412C414.012 220.879 413.733 220.242 413.733 219.501C413.733 218.768 414.012 218.139 414.57 217.614C415.136 217.081 415.815 216.815 416.606 216.815C417.397 216.815 418.072 217.081 418.63 217.614C419.196 218.139 419.479 218.768 419.479 219.501C419.479 220.242 419.196 220.879 418.63 221.412C418.072 221.937 417.397 222.199 416.606 222.199ZM432.187 244.236C430.247 244.236 428.569 243.824 427.153 242.999C425.745 242.167 424.659 241.009 423.892 239.526C423.126 238.036 422.743 236.307 422.743 234.342C422.743 232.36 423.126 230.628 423.892 229.145C424.659 227.654 425.745 226.497 427.153 225.672C428.569 224.839 430.247 224.423 432.187 224.423C434.128 224.423 435.802 224.839 437.21 225.672C438.625 226.497 439.716 227.654 440.483 229.145C441.249 230.628 441.632 232.36 441.632 234.342C441.632 236.307 441.249 238.036 440.483 239.526C439.716 241.009 438.625 242.167 437.21 242.999C435.802 243.824 434.128 244.236 432.187 244.236ZM432.212 240.114C433.095 240.114 433.832 239.864 434.424 239.364C435.015 238.856 435.461 238.165 435.76 237.29C436.069 236.416 436.223 235.421 436.223 234.304C436.223 233.188 436.069 232.193 435.76 231.319C435.461 230.444 435.015 229.753 434.424 229.245C433.832 228.737 433.095 228.483 432.212 228.483C431.321 228.483 430.572 228.737 429.964 229.245C429.364 229.753 428.91 230.444 428.602 231.319C428.302 232.193 428.152 233.188 428.152 234.304C428.152 235.421 428.302 236.416 428.602 237.29C428.91 238.165 429.364 238.856 429.964 239.364C430.572 239.864 431.321 240.114 432.212 240.114Z" fill="#707D91"/>
<g opacity="0.8">
<g style="mix-blend-mode:multiply">
<path d="M423.065 29.3416V185.491H31.6538V65.7093V34.5619H44.3143V50.4292H60.44L66.8191 57.8365H73.2929V19.4509H88.1855V29.3416H100.825V48.4342H117.804V24.4779H131.204V34.5562H138.172L144.202 27.5542H151.066V4.32837H170.251V38.7984H189.863V47.1051H197.467V34.5619H226.445V48.4342H237.528V29.3416H254.435V57.8365H255.424V19.4509H270.322V29.3416H282.957V48.4342H299.931V24.4779H313.329V34.5562H320.307L326.338 27.5542H333.197V4.32837H352.377V38.7984H372V47.1051H379.602V34.5619H394.859V48.4342H419.655V29.3416H423.065Z" fill="url(#paint0_linear_306_1045)" fill-opacity="0.5"/>
</g>
<g style="mix-blend-mode:multiply">
<path d="M31.6538 130.376V52.29H46.3943V66.556H63.3338L68.5028 71.7134H124.709L133.452 62.9899H151.106V48.3386H166.543V68.0928H194.97L205.926 57.1623H241.078V75.5817H256.697L264.3 67.9954H283.535L288.98 73.4291H312.792V53.0132H329.73V59.7517H343.15V45.4656H355.469V67.0573H390.006L393.235 70.2797H423.065V130.376H31.6538Z" fill="url(#paint1_linear_306_1045)"/>
</g>
<path d="M227.36 163.284C323.526 163.284 401.485 158.953 401.485 153.612C401.485 148.271 323.526 143.94 227.36 143.94C131.193 143.94 53.2344 148.271 53.2344 153.612C53.2344 158.953 131.193 163.284 227.36 163.284Z" fill="url(#paint2_linear_306_1045)"/>
<path d="M314.502 145.86C314.502 145.86 315.236 147.225 315.715 147.767C316.195 148.308 318.029 149.276 318.039 150.886C318.051 152.63 314.946 152.146 313.733 152.083C312.519 152.019 312.427 151.088 311.916 150.1C311.405 149.111 310.889 149.279 310.793 148.483C310.697 147.686 311.289 145.86 311.289 145.86H314.502Z" fill="#202338"/>
<path d="M296.026 145.702C296.026 145.702 294.53 147.368 293.011 147.717C291.493 148.067 290.43 148.512 290.419 149.467C290.407 150.423 294.788 151.053 296.527 150.089C299.121 148.651 299.383 149.084 299.672 148.365C299.959 147.646 299.326 145.722 299.345 145.495C299.367 145.212 296.026 145.701 296.026 145.701V145.702Z" fill="#202338"/>
<path d="M296.194 144.904C296.194 144.904 295.996 145.684 296.027 145.702C296.055 145.717 299.449 146.121 299.345 145.495C299.262 144.987 299.143 144.436 299.143 144.436L296.194 144.905V144.904Z" fill="#81807E"/>
<path d="M311.332 145.334C311.332 145.334 311.19 146.079 311.217 146.096C311.244 146.113 314.656 146.722 314.638 146.103C314.622 145.612 314.323 145.04 314.323 145.04L311.332 145.334Z" fill="#81807E"/>
<path d="M299.279 98.1802C299.279 98.1802 298.044 110.135 297.403 114.226C296.652 119.011 296.398 122.964 296.19 125.441C295.927 128.556 295.876 143.877 295.692 144.788C295.508 145.699 299.778 145.04 299.778 145.04C299.778 145.04 301.88 125.019 302.664 121.702C303.394 118.613 306.102 105.315 306.768 106.159C307.434 107.002 308.259 121.678 308.753 124.114C309.245 126.55 310.745 145.623 310.745 145.623C310.745 145.623 314.144 146.298 315.049 145.534C315.049 145.534 315.461 129.098 315.146 124.531C315.027 122.791 317.19 103.661 314.416 95.9603C312.95 91.89 299.28 98.1816 299.28 98.1816L299.279 98.1802Z" fill="#292C47"/>
<path d="M310.352 95.5307C310.352 95.5307 309.528 94.289 308.658 94.13C307.785 93.9711 320.665 87.7582 320.631 85.5397C320.605 83.7395 315.993 80.7534 315.993 80.7534C315.993 80.7534 315.993 80.7562 315.993 80.7605C315.993 80.7605 315.993 80.7648 315.993 80.7662C315.993 80.7691 315.993 80.772 315.993 80.7734C315.895 81.13 314.563 86.0611 314.517 88.4313C314.468 90.8904 314.664 99.3504 314.664 99.3504L311.362 100.233L300.817 100.331L298.41 99.3504C298.41 99.3504 298.673 96.6306 298.77 94.7201C298.831 93.5056 299.068 91.3315 299.007 89.2133C299.007 89.2133 299.046 86.9805 298.824 86.0195C298.799 81.7759 298.542 77.5739 298.542 77.5739C298.399 75.6505 298.3 73.8516 298.244 72.1731C298.709 71.9282 299.269 71.6403 299.716 71.4284C301.102 70.771 303.031 69.8844 304.27 69.3173C304.994 68.985 305.705 68.743 305.705 68.743C305.705 68.743 310.654 68.2689 311.056 68.2947C311.183 68.3019 311.801 68.5181 312.614 68.8261C314.369 69.4906 317.753 70.844 318.291 71.2293C319.08 71.7936 324.255 85.4495 324.33 86.3876C324.466 88.079 310.356 95.5321 310.356 95.5321L310.352 95.5307Z" fill="#DBD8E3"/>
<path d="M298.727 98.4519C298.727 98.4519 305.97 99.0677 312.313 98.4519V100.529C312.313 100.529 302.867 101.429 298.408 100.132L298.725 98.4504L298.727 98.4519Z" fill="#1D2033"/>
<path d="M298.126 72.1399C298.182 73.8456 298.264 75.6759 298.41 77.6366C298.41 77.6366 298.546 82.4216 298.823 86.9616C298.917 87.6118 298.966 88.2764 298.912 88.9567C298.844 89.8446 298.747 90.8128 298.631 91.8253C298.631 91.8382 298.628 91.8511 298.627 91.864C298.599 92.1046 298.569 92.3452 298.541 92.5887C298.541 92.593 298.541 92.5944 298.541 92.5987C297.925 97.6558 296.883 103.458 296.337 105.213C296.222 105.58 296.619 105.92 296.901 106.18L298.882 107.426C298.882 107.426 299.699 99.9244 299.97 97.378C300.232 94.9203 301.056 91.6248 301.416 88.4139C301.874 84.3393 302.502 80.3478 302.843 77.9775C303.727 71.8047 304.905 69.0435 304.905 69.0435C304.343 69.211 298.127 72.1413 298.127 72.1413L298.126 72.1399Z" fill="#323657"/>
<path d="M319.154 84.9109C320.012 86.79 311.27 90.1399 311.467 90.6039C311.939 91.7167 313.868 93.9824 313.868 93.9824C313.868 93.9824 325.379 88.3024 325.25 87.0134C325.157 86.0753 319.764 71.8995 318.974 71.3337C318.518 71.0072 315.137 69.8113 313.478 69.1597C313.175 69.0408 312.14 68.6527 311.869 68.5496C311.517 68.9405 309.091 71.6102 308.234 81.7014C308.089 83.4014 308.546 87.0034 308.85 89.9422C309.174 93.0787 309.535 95.5263 309.799 98.1487C310.319 103.316 310.682 107.426 310.682 107.426L315.835 105.136C316.669 104.72 318.111 103.634 317.797 102.757C316.606 99.4276 314.819 93.1174 314.816 90.1957C314.816 90.1957 315.658 82.1339 316.113 80.5614C316.113 80.5614 318.19 82.8099 319.151 84.9123L319.154 84.9109Z" fill="#323657"/>
<path d="M310.596 68.8173C310.596 68.8173 310.631 67.1215 311.285 63.6929C311.46 62.7748 305.943 66.109 305.943 66.109C305.943 66.109 305.96 66.4298 305.971 66.8652C305.977 67.0943 305.981 67.355 305.98 67.6157C305.98 67.7073 305.978 67.799 305.976 67.8906C305.97 68.1327 305.96 68.3661 305.938 68.5638C305.918 68.7671 305.798 69.1266 305.755 69.2254C305.528 69.7496 308.739 70.1463 310.596 68.8201V68.8173Z" fill="#EEA987"/>
<path d="M307.152 70.5935L306.237 71.8195C306.237 71.8195 306.773 72.5356 307.724 72.0071L307.152 70.5935Z" fill="#E64646"/>
<path d="M306.482 71.8696C306.482 71.8696 303.014 85.1947 303.729 95.5652L304.896 97.6176L305.988 95.4678C305.988 95.4678 306.287 76.9152 307.239 71.8367L306.482 71.8696Z" fill="#E64646"/>
<path d="M306.174 69.4504L307.153 70.5933C307.153 70.5933 308.725 70.2897 309.186 69.4704C309.647 68.6512 306.173 69.4504 306.173 69.4504H306.174Z" fill="#EEA987"/>
<path d="M305.948 68.4509C305.948 68.4509 306.061 69.3217 307.152 70.5935L305.962 72.189L305.318 68.8806L305.948 68.4509Z" fill="#C4C1CC"/>
<path d="M310.701 67.4812C310.701 67.4812 308.741 69.9675 307.152 70.5934L307.892 72.4165L311.269 68.3448L310.702 67.4812H310.701Z" fill="#C4C1CC"/>
<path d="M277.964 85.9133C277.964 85.9133 274.331 86.3358 274.126 86.5693C273.922 86.8013 273.971 86.9975 274.312 86.9731C274.654 86.9474 277.842 86.6667 277.842 86.6667C277.842 86.6667 273.677 87.8941 273.466 88.0444C273.342 88.1332 273.412 88.517 273.599 88.5213C273.784 88.5242 278 87.5489 278 87.5489C278 87.5489 274.113 88.7018 273.978 88.8837C273.859 89.0427 274.012 89.385 274.308 89.3205C274.604 89.2546 278.286 88.3925 278.286 88.3925C278.286 88.3925 275.523 89.4136 275.504 89.6399C275.492 89.7788 275.538 90.1125 276.242 89.8275C276.945 89.5411 278.688 89.0455 278.688 89.0455L277.966 85.9162L277.964 85.9133Z" fill="#EEA886"/>
<path d="M282.261 86.0844C282.261 86.0844 281.05 86.1474 280.682 85.5373C280.367 85.0188 279.599 84.5476 279.362 84.403C279.047 84.2082 278.274 83.2672 278.052 83.6453C277.829 84.0234 279.252 85.2537 279.503 85.5673C279.754 85.881 278.01 85.7664 277.693 85.9941C277.374 86.2219 277.548 89.102 278.744 89.0433C279.939 88.9846 281.124 88.131 281.339 88.1625C281.554 88.194 282.213 88.1539 282.213 88.1539L282.261 86.0844Z" fill="#EEA886"/>
<path d="M281.756 88.9291C281.756 88.9291 290.67 87.6845 292.648 87.199C293.562 86.9741 294.767 85.7152 295.912 84.2343C296.29 83.7474 296.66 83.2347 297.012 82.7291V82.7277C298.416 80.704 299.516 78.7648 299.516 78.7648C299.516 78.7648 303.668 73.9111 300.336 71.747C300.336 71.747 298.908 71.717 298.126 72.1409C297.32 72.5777 295.604 76.1539 295.312 76.7869C295.021 77.42 291.867 83.302 291.655 83.4337C291.444 83.5655 288.294 84.2487 286.892 84.5408C284.859 84.9633 281.041 85.7553 281.041 85.7553L281.756 88.9319V88.9291Z" fill="#323657"/>
<path d="M304.067 101.126H307.455V98.5628H304.067V101.126Z" fill="#3A4066"/>
<path d="M309.726 95.6837C309.726 95.6837 310.148 95.6665 310.328 95.5691C310.328 95.5691 310.644 95.3672 310.876 95.2369C310.951 95.1953 311.015 95.1624 311.06 95.1438C311.246 95.0707 311.676 94.9633 312.073 94.6611C312.469 94.3604 313.763 93.153 313.763 93.153L312.927 91.8712L312.541 90.6023C312.541 90.6023 309.527 90.9016 309.125 91.1394C309.086 91.1637 309.047 91.1881 309.014 91.2138C308.693 91.4487 308.554 91.7581 308.398 91.8999C308.343 91.9529 307.817 92.5128 307.846 92.7406C307.886 93.0571 308.043 93.259 308.239 93.355C308.239 93.355 308.345 93.9694 308.664 94.2444C308.664 94.2444 308.744 94.8144 309.237 95.0435C309.237 95.0435 309.383 95.6135 309.725 95.6808L309.726 95.6837Z" fill="#EFAA88"/>
<path d="M313.869 93.9824C313.869 93.9824 312.192 92.6104 311.285 90.6039L316.43 87.7925L318.339 91.6708L313.869 93.981V93.9824Z" fill="#323657"/>
<path d="M303.038 57.6691C303.038 57.6691 301.827 59.9105 302.427 60.2599C302.924 60.5478 301.846 62.7476 301.703 63.1071C301.563 63.4666 302.602 63.7273 302.823 63.9593C303.044 64.1913 303.699 67.0371 304.556 67.123C305.413 67.2089 309.273 65.8698 310.323 64.7785C311.374 63.6886 312.237 58.7633 311.535 56.6852C310.833 54.6071 305.176 53.7506 303.037 57.6677L303.038 57.6691Z" fill="#EEA886"/>
<path d="M302.796 58.1549C302.796 58.1549 301.558 55.7331 303.806 53.9371C306.054 52.1411 310.198 55.2934 310.665 55.4137C311.131 55.534 313.783 55.7159 312.443 60.3576C311.295 64.3448 311.134 64.5124 311.134 64.5124C311.134 64.5124 310.277 62.2037 309.791 61.8514C309.031 61.3014 307.368 61.4332 307.368 61.4332C307.368 61.4332 308.16 59.3336 306.921 59.0357C305.682 58.7378 304.049 57.6909 302.796 58.1549Z" fill="#16202E"/>
<path d="M308.688 60.2302C308.797 59.9424 309.15 58.7035 310.216 59.4311C311.281 60.1586 309.552 62.4917 309.367 62.5217C309.182 62.5518 307.77 62.6549 308.688 60.2302Z" fill="#EEA886"/>
<path d="M305.979 67.6139C305.979 67.7055 305.978 67.7972 305.975 67.8888C309.132 66.8319 309.742 65.2407 309.742 65.2407C308.757 65.9353 305.971 66.8634 305.971 66.8634C305.976 67.0925 305.981 67.3532 305.979 67.6139Z" fill="#A77860"/>
<path d="M343.515 78.0522L334.403 83.0491L325.252 68.6828L336.319 64.8459L343.515 78.0522Z" fill="#292C47"/>
<path d="M342.937 77.6213L334.415 82.2945L325.857 68.8577L336.208 65.2715L342.937 77.6213Z" fill="#E2D2CA"/>
<path d="M346.058 75.1079C346.058 75.1079 344.472 74.3503 343.776 73.955C343.08 73.5597 341.288 73.0169 341.145 72.888C341.001 72.7591 335.836 72.4412 335.523 72.1719C335.211 71.9027 334.906 72.8035 336.244 73.0957C337.582 73.3879 339.445 74.1039 339.547 74.6253C339.649 75.1466 338.172 75.2712 338.023 75.7008C337.873 76.1305 338.064 76.0345 338.277 76.1262C338.488 76.2179 340.032 75.3643 340.713 75.6078C341.391 75.8498 342.429 75.5147 342.95 75.6923C343.471 75.8698 346.002 76.7206 346.002 76.7206L346.06 75.1093L346.058 75.1079Z" fill="#EEA886"/>
<path d="M333.958 81.2474C333.958 81.2474 332.626 80.0515 331.982 79.5502C331.337 79.0504 330.127 77.5781 329.949 77.4922C329.771 77.4063 327.46 72.6757 327.084 72.4852C326.708 72.2962 327.44 71.6589 328.238 72.8032C329.035 73.9475 330.436 75.4198 330.968 75.3124C331.501 75.205 331.043 73.7685 331.39 73.4606C331.738 73.1526 331.722 73.3703 331.891 73.5336C332.061 73.6969 331.855 75.4814 332.349 76.0256C332.843 76.5699 332.931 77.6769 333.301 78.0966C333.671 78.5162 335.46 80.5657 335.46 80.5657L333.96 81.2474H333.958Z" fill="#EEA886"/>
<path d="M362.653 145.199C362.653 145.199 362.941 147.195 362.977 147.495C363.013 147.794 366.184 147.318 366.184 147.318L366.441 144.942C366.441 144.942 363.05 144.918 362.654 145.199H362.653Z" fill="#424773"/>
<path d="M362.943 147.242C362.943 147.242 361.938 148.445 360.968 148.969C359.996 149.493 358.47 149.701 357.895 150.244C357.48 150.636 356.385 152.322 360.42 152.287C364.455 152.253 366.4 152.525 366.832 151.879C367.264 151.233 366.206 147.107 366.206 147.107C366.206 147.107 365.25 147.451 362.943 147.242Z" fill="#292C47"/>
<path d="M339.938 145.199C339.938 145.199 340.227 147.195 340.263 147.495C340.299 147.794 343.47 147.318 343.47 147.318L343.727 144.942C343.727 144.942 340.336 144.918 339.94 145.199H339.938Z" fill="#424773"/>
<path d="M340.229 147.242C340.229 147.242 339.224 148.445 338.252 148.969C337.28 149.493 333.706 149.924 333.131 150.467C332.716 150.858 332.027 152.436 337.704 152.289C341.737 152.184 343.684 152.526 344.116 151.88C344.548 151.235 343.49 147.108 343.49 147.108C343.49 147.108 342.59 147.475 340.227 147.243L340.229 147.242Z" fill="#292C47"/>
<path d="M360.028 93.9094C360.028 93.9094 363.007 98.6313 362.784 102.899C362.562 107.167 363.865 111.828 364.311 116.286C364.811 121.257 366.852 133.024 366.925 135.684C367 138.343 366.608 146.833 366.608 146.833L362.521 146.926C362.521 146.926 359.089 126.353 358.201 124.253C357.312 122.154 352.904 107.189 352.756 105.509C352.608 103.829 360.028 93.9065 360.028 93.9065V93.9094Z" fill="#292C47"/>
<path d="M344.348 94.5497C344.348 94.5497 342.103 106.249 341.807 108.862C341.511 111.474 341.313 121.504 341.165 123.136C341.017 124.769 340.178 144.503 339.387 146.928H344.612C344.612 146.928 348.622 132.583 348.622 125.794C348.622 119.006 351.72 111.038 353.721 106.56C355.721 102.082 360.3 101.976 361.528 93.6674C361.528 93.6674 346.013 91.913 344.348 94.5482V94.5497Z" fill="#292C47"/>
<path d="M355.057 54.2105C355.057 54.2105 351.059 52.721 349.215 55.7573C347.372 58.7935 347.548 64.8732 349.564 65.6208C351.579 66.3684 354.606 65.9774 355.638 64.0769C356.67 62.1764 357.602 59.4294 357.557 57.5934C357.513 55.7573 356.106 54.739 355.057 54.2091V54.2105Z" fill="#EEA886"/>
<path d="M349.999 65.7597C349.999 65.7597 350.165 66.8367 349.889 67.3681C349.614 67.898 355.07 67.9123 355.07 67.9123C355.07 67.9123 355.512 65.0265 356.352 62.5874C357.192 60.1484 349.999 65.7597 349.999 65.7597Z" fill="#EEA886"/>
<path d="M356.353 62.5876C356.353 62.5876 355.976 63.2077 354.439 62.9671C352.902 62.7265 351.027 60.6871 350.385 60.4622C349.744 60.2388 349.738 59.8621 349.738 59.8621L349.336 60.4479L348.654 60.4909C348.654 60.4909 349.276 58.6663 348.339 57.9215C347.401 57.1768 349.312 52.0152 354.241 53.7338C354.241 53.7338 358.026 54.775 357.888 56.9233C357.751 59.0716 357.199 61.5178 356.353 62.5876Z" fill="#3A3F47"/>
<path d="M349.566 67.3037C349.566 67.3037 349.584 66.2897 350.044 66.1923C350.505 66.0949 355.127 65.6509 355.693 65.8729V67.0545C355.693 67.0545 354.603 67.7233 349.566 67.3037Z" fill="#E2D2CA"/>
<path d="M349.84 59.0801C349.926 58.7192 350.845 57.6909 351.196 58.7922C351.548 59.895 350.665 61.3773 350.173 61.2499C349.681 61.1224 349.622 59.9924 349.84 59.0787V59.0801Z" fill="#EEA886"/>
<path d="M331.221 79.281C331.221 79.281 331.225 79.281 331.228 79.281C331.195 79.2958 331.191 79.2973 331.221 79.281Z" fill="#323657"/>
<path d="M363.388 105.159C363.388 105.159 360.936 105.88 356.755 106.34C352.573 106.799 342.126 106.173 342.06 105.681C341.994 105.188 344.308 87.3286 344.176 86.4077C344.044 85.4882 343.974 82.2114 343.974 82.2114C343.922 83.1093 343.005 86.7772 341.898 88.7765C341.498 89.4984 340.157 91.7627 339.509 91.2485C336.38 88.7551 331.533 79.3599 331.226 79.2811C331.484 79.1694 333.522 78.2327 333.809 78.1368C334.061 78.0537 336.317 80.4383 337.685 81.9178C338.295 82.5766 338.729 83.0564 338.729 83.0564C339.123 82.1698 340.563 76.5828 341.009 74.6494C342.019 70.2884 341.864 70.1079 341.864 70.1079C344.923 69.1841 349.566 67.3051 349.566 67.3051L355.693 67.0559C355.693 67.0559 361.315 68.2905 363.53 69.2887C363.74 69.3832 363.741 74.2942 364.318 75.5817L362.482 79.4458C362.482 79.4458 361.421 87.1009 361.202 90.5052C361.1 92.0677 363.389 105.161 363.389 105.161L363.388 105.159Z" fill="#5B94E2"/>
<path d="M364.573 81.9537C364.412 82.4692 363.687 82.9046 363.215 83.0951C362.913 83.2168 362.574 83.257 362.234 83.1939L361.995 83.1495L357.796 82.3719C357.796 82.3719 356.877 71.8152 363.532 69.2874C363.708 69.3446 366.044 77.2289 364.574 81.9551L364.573 81.9537Z" fill="#5B94E2"/>
<path d="M363.215 83.095C362.913 83.2168 362.575 83.2569 362.234 83.1939L361.995 83.1495L362.408 77.7544L363.215 83.095Z" fill="#3D6396"/>
<path d="M338.73 83.0551L338.217 85.2235C338.217 85.2235 337.66 83.048 337.687 81.918C338.298 82.5768 338.731 83.0566 338.731 83.0566L338.73 83.0551Z" fill="#3D6396"/>
<path d="M356.197 54.5687C356.197 54.5687 361.438 53.9657 356.286 62.6978L356.197 54.5687Z" fill="#3A3F47"/>
<path d="M329.465 67.9111L328.932 66.9988L333.126 65.5537L333.659 66.4617L329.465 67.9111Z" fill="#292C47"/>
<path d="M190.756 152.808H230.638C233.491 152.808 235.804 150.5 235.804 147.654V41.6714C235.804 38.8247 233.491 36.517 230.638 36.517H190.756C187.903 36.517 185.59 38.8247 185.59 41.6714V147.654C185.59 150.5 187.903 152.808 190.756 152.808Z" fill="#587AA3"/>
<path d="M237.244 153.702H189.237C186.112 153.702 183.576 151.171 183.576 148.053V41.1242C183.576 38.0063 186.112 35.4756 189.237 35.4756H237.244C240.369 35.4756 242.905 38.0063 242.905 41.1242V148.053C242.905 151.171 240.369 153.702 237.244 153.702Z" fill="url(#paint3_linear_306_1045)"/>
<g style="mix-blend-mode:screen" opacity="0.98">
<path d="M236.869 152.808H192.911C190.06 152.808 187.745 150.498 187.745 147.654V41.6714C187.745 38.8271 190.06 36.517 192.911 36.517H236.869C239.721 36.517 242.035 38.8271 242.035 41.6714V147.654C242.035 150.499 239.719 152.808 236.869 152.808Z" fill="#A3CDFF"/>
</g>
<path d="M216.942 76.1499L219.114 79.5657L221.118 82.7179C221.113 82.7008 220.98 82.2238 220.753 80.8418C220.71 80.5797 220.664 80.2846 220.614 79.9538C220.599 79.8564 220.578 79.759 220.551 79.6631C219.692 77.6895 217.041 76.2015 216.943 76.1528C216.942 76.1528 216.94 76.1528 216.94 76.1528L216.942 76.1499Z" fill="#EDDAD3"/>
<path d="M220.542 79.639C220.542 79.639 220.658 79.8782 220.753 80.8406L219.967 79.6576C219.967 79.6576 218.565 77.6511 218.084 77.1298C217.603 76.6085 216.943 76.1516 216.943 76.1516C216.943 76.1516 219.702 77.475 220.542 79.639Z" fill="#FFCA55"/>
<path d="M226.434 101.904C226.434 101.904 226.872 102.32 227.023 102.71C227.142 103.018 227.542 103.426 227.73 103.658C227.92 103.891 228.625 104.98 228.725 105.284C228.767 105.407 228.712 106.263 228.823 106.507C228.935 106.75 229.222 107.216 229.003 107.303C228.785 107.39 228.412 107.041 228.412 107.041C228.412 107.041 228.5 107.269 228.333 107.403C228.009 107.665 227.768 107.559 227.768 107.559C227.768 107.559 227.703 107.847 227.539 107.923C227.179 108.089 226.949 107.982 226.949 107.982C226.949 107.982 226.822 108.165 226.557 108.222C226.219 108.297 225.993 108.039 225.993 108.039C225.993 108.039 225.591 108.227 225.411 108.058C225.23 107.889 225.191 107.671 225.088 107.503C224.984 107.336 224.559 105.697 224.779 104.394C224.999 103.091 223.978 102.113 223.978 102.113L226.433 101.904H226.434Z" fill="#EEA886"/>
<path d="M230.043 111.929H224.4C223.827 111.929 223.361 111.464 223.361 110.892V107.342C223.361 106.77 223.827 106.305 224.4 106.305H230.043C230.616 106.305 231.082 106.77 231.082 107.342V110.892C231.082 111.464 230.616 111.929 230.043 111.929ZM224.399 107.001C224.211 107.001 224.057 107.154 224.057 107.342V110.892C224.057 111.08 224.211 111.233 224.399 111.233H230.041C230.229 111.233 230.383 111.08 230.383 110.892V107.342C230.383 107.154 230.229 107.001 230.041 107.001H224.399Z" fill="#0E1E2B"/>
<path d="M237.807 110.405H216.635V125.541H237.807V110.405Z" fill="#54281A"/>
<path d="M218.195 69.929C218.195 69.929 217.142 69.9218 216.68 73.1571C216.218 76.3924 217.094 77.7444 217.198 79.0921C217.303 80.4384 218.886 89.1346 218.929 89.5185C218.973 89.9023 219.185 94.5312 219.802 95.7585C220.419 96.9874 224.957 103.948 225.017 104.294C225.077 104.642 227.221 103.081 227.221 103.081C227.221 103.081 223.655 95.6368 223.45 94.7861C223.243 93.9368 221.808 89.5987 222.034 88.2753C222.261 86.9506 221.398 79.6464 221.482 78.8343C221.565 78.0208 220.273 70.4231 218.195 69.929Z" fill="#EEA886"/>
<path d="M218.228 69.9058C218.228 69.9058 217.143 69.9215 216.68 73.1568C216.218 76.3922 216.636 77.558 216.916 78.9601C217.18 80.2849 218.08 88.3868 218.123 88.7706C218.166 89.1544 219.243 94.0396 219.802 95.7583C220.229 97.0644 224.274 103.906 224.336 104.253C224.396 104.601 227.481 102.654 227.481 102.654C227.481 102.654 223.525 94.9534 223.318 94.1041C223.111 93.2548 222.441 90.3145 222.419 88.9711C222.393 87.3928 221.399 79.6475 221.482 78.834C221.565 78.0206 221.254 71.0114 218.226 69.9058H218.228Z" fill="#E64646"/>
<path d="M209.154 145.365C209.154 145.365 211.043 148.163 211.804 148.838C211.804 148.838 213.555 149.45 213.664 150.638C213.736 151.416 213.667 152.663 211.666 152.719C209.665 152.775 208.38 152.078 208.014 150.869C207.648 149.66 206.956 149.119 206.956 149.119V151.649H206.506C206.506 151.649 206.392 149.203 206.365 148.752C206.336 148.302 206.041 146.572 206.992 145.806C207.944 145.04 209.155 145.364 209.155 145.364L209.154 145.365Z" fill="#EDDAD3"/>
<path d="M221.966 143.128C221.966 143.128 222.293 143.898 222.911 144.703C223.363 145.293 224.771 147.712 225.391 147.881C226.011 148.05 227.928 148.387 228.097 149.457C228.266 150.525 228.351 151.284 226.462 151.369C224.573 151.453 223.333 151.565 222.431 150.244C221.53 148.923 220.092 147.966 220.092 147.966V151.415H219.358C219.358 151.415 219.019 147.825 218.823 147.572C218.625 147.318 218.118 144.563 219.866 143.128C221.613 141.694 221.966 143.128 221.966 143.128Z" fill="#EDDAD3"/>
<path d="M207.886 91.3512C207.886 91.3512 205.502 94.4448 204.854 98.1155C204.207 101.786 205.236 114.104 205.207 115.918C205.179 117.731 203.488 122.245 203.827 125.662C204.165 129.079 206.99 145.806 206.99 145.806L209.153 145.364C209.153 145.364 208.942 128.025 209.153 126.59C209.364 125.157 209.789 119.928 209.874 119.338C209.959 118.748 215.243 103.238 215.243 100.593C215.243 97.9479 213.636 87.0346 207.886 91.3512Z" fill="#EEA886"/>
<path d="M219.866 92.5612C219.866 92.5612 223.785 107.482 224.25 109.548C224.715 111.615 225.388 113.321 225.388 114.197C225.388 116.234 224.63 119.504 224.63 119.504L221.966 143.128H219.866C219.866 143.128 218.541 129.333 218.33 126.549C218.119 123.764 219.852 119.461 219.43 118.281C219.006 117.099 212.623 103.473 212.623 103.473C212.623 103.473 207.789 88.2303 219.868 92.5612H219.866Z" fill="#EEA886"/>
<path d="M212.129 148.981C212.129 148.981 210.484 149.825 208.989 148.711C207.495 147.596 206.991 145.808 206.991 145.808L209.154 145.365L212.129 148.981Z" fill="#EEA886"/>
<path d="M225.391 147.882C225.391 147.882 223.7 148.304 223.052 147.882C222.403 147.459 220.199 143.743 219.469 143.521C219.469 143.521 220.176 142.088 221.966 143.13C221.966 143.13 224.912 147.264 225.391 147.883V147.882Z" fill="#EEA886"/>
<path d="M224.881 111.928C224.881 111.928 217.682 116.156 204.189 116.156C204.189 116.156 203.425 100.541 205.386 96.1481C207.348 91.7556 220.371 94.4868 220.371 94.4868C220.371 94.4868 224.417 108.698 224.881 111.928Z" fill="#1D3B54"/>
<path d="M215.046 68.7399C215.046 68.7399 217.138 69.7253 217.865 69.8714C218.591 70.016 221.41 73.6695 221.904 75.0029C222.398 76.3363 221.904 78.3371 220.886 80.6858C219.869 83.0346 220.828 83.818 220.364 86.1668C219.899 88.5156 219.493 93.4882 219.579 94.7929C219.666 96.0977 207.824 96.344 205.121 93.9666C205.121 93.9666 207.837 89.9077 208.186 89.3277C208.534 88.7477 208.245 85.5868 207.924 84.7748C207.604 83.9627 205.477 77.0581 205.477 77.0581C205.477 77.0581 203.736 71.7547 205.309 70.5373C206.676 69.4789 210.398 69.1008 211.067 68.8703C211.735 68.6382 213.679 68.5366 215.046 68.7399Z" fill="#EDDAD3"/>
<path d="M215.713 73.3931L216.985 71.9079L215.881 67.9966C215.881 67.9966 215.511 70.1749 215.713 73.3931Z" fill="#D6C5BE"/>
<path d="M212.405 53.9224C213.648 53.4856 218.217 52.4143 219.292 58.2433C220.367 64.0709 217.142 68.2186 214.178 67.1158C211.214 66.0144 209.382 61.9828 209.208 58.9093C209.035 55.8358 210.836 54.4724 212.405 53.9224Z" fill="#EEA886"/>
<path d="M219.291 58.2431C219.291 58.2431 219.515 53.2562 214.546 53.0815C209.576 52.9082 208.24 56.99 208.646 59.9646C209.052 62.9393 211.111 64.509 211.111 64.509C211.111 64.509 210.933 62.1015 211.896 61.477C212.86 60.8526 216.726 59.6051 218.411 56.705C218.411 56.705 219.192 57.6201 219.291 58.2417V58.2431Z" fill="#252E3B"/>
<path d="M213.097 57.7149C212.442 59.7013 210.5 60.8485 208.76 60.277C207.02 59.7056 206.141 57.6332 206.795 55.6468C207.45 53.6603 209.392 52.5131 211.132 53.0846C212.871 53.656 213.751 55.7284 213.097 57.7149Z" fill="#252E3B"/>
<path d="M216.045 66.331C216.045 66.331 215.627 70.1606 215.715 71.4081C215.715 71.4081 213.54 73.5821 211.068 68.8702C211.068 68.8702 212.109 66.9282 211.325 64.2815C210.542 61.6348 216.045 66.331 216.045 66.331Z" fill="#EEA886"/>
<path d="M215.713 71.4065V73.3929L213.211 71.5282L215.713 71.4065Z" fill="#EEA886"/>
<path d="M215.712 73.3929L214.675 72.1096L211.175 68.6294L210.042 69.7179L215.712 73.3929Z" fill="#D6C5BE"/>
<path d="M210.689 68.9634C210.689 68.9634 213.626 73.4103 213.767 75.3681C213.907 77.3245 212.676 91.9658 211.688 96.672C210.702 101.378 203.575 96.1407 203.575 96.1407C203.575 96.1407 208.365 88.4068 206.526 82.2126C204.688 76.0184 204.02 73.5435 204.02 73.5435C204.02 73.5435 204.653 70.0948 206.894 69.6093C208.859 69.1839 210.689 68.9634 210.689 68.9634Z" fill="#E64646"/>
<path d="M222.098 75.5971C222.098 75.5971 222.628 77.4676 220.564 81.6009C220.564 81.6009 220.597 86.8914 220.654 88.5441C220.712 90.1969 221.105 96.4456 221.105 96.4456L219.064 97.6386C218.653 97.8792 218.144 97.5455 218.201 97.0743C218.78 92.318 220.658 74.2766 216.598 69.4272L218.227 69.907C218.227 69.907 221.122 72.2716 222.097 75.5986L222.098 75.5971Z" fill="#E64646"/>
<path d="M212.395 60.4232C212.214 59.9663 211.61 59.8374 211.261 60.0981C210.912 60.3587 210.709 61.1421 211.261 62.1561C211.814 63.1715 213.76 63.879 212.395 60.4217V60.4232Z" fill="#EEA886"/>
<path d="M216.985 71.9079L218.587 72.349L215.881 67.9966L216.985 71.9079Z" fill="#FAE6DE"/>
<path d="M214.675 72.1096L213.211 74.023L210.207 69.0261L211.175 68.6294L214.675 72.1096Z" fill="#FAE6DE"/>
<path d="M215.958 67.1731L215.881 67.9278C215.881 67.9278 214.158 68.2644 211.896 65.5117C211.896 65.5117 213.499 67.4624 215.957 67.1731H215.958Z" fill="#A77860"/>
<path d="M224.851 90.6198C224.851 90.6198 225.867 91.2729 226.452 90.9077C226.948 90.5969 227.817 90.5539 228.084 90.541C228.441 90.5224 229.516 90.0584 229.543 90.5081C229.571 90.9578 227.808 91.3574 227.455 91.5163C227.102 91.6739 228.656 92.4315 228.832 92.7924C229.007 93.1533 227.604 95.6511 226.598 95.008C225.592 94.365 224.941 93.0159 224.742 92.9371C224.542 92.8597 223.991 92.4988 223.991 92.4988L224.851 90.6198Z" fill="#EEA886"/>
<path d="M205.523 70.2266C205.523 70.2266 206.959 69.9573 208.179 71.2621C209.399 72.5668 210.011 74.7122 210.329 75.4083C210.649 76.1043 214.689 82.542 214.921 82.6867C215.154 82.8313 219.259 86.1368 221.118 87.9056C222.978 89.6743 226.603 91.6465 226.603 91.6465L225.236 93.5599C225.236 93.5599 214.222 87.7022 212.827 85.5568C211.432 83.4114 205.862 77.4663 205.862 77.4663C205.862 77.4663 202.512 72.3878 205.521 70.2266H205.523Z" fill="#EEA886"/>
<path d="M228.631 92.5859C228.631 92.5859 231.581 94.7571 231.656 95.0665C231.73 95.3758 231.604 95.5276 231.32 95.3357C231.036 95.1438 228.409 93.3192 228.409 93.3192C228.409 93.3192 231.468 96.4757 231.584 96.7149C231.653 96.8553 231.423 97.1646 231.261 97.0773C231.099 96.9885 227.889 94.0339 227.889 94.0339C227.889 94.0339 230.74 96.9856 230.777 97.2148C230.81 97.4153 230.529 97.6473 230.302 97.4425C230.075 97.2377 227.275 94.6483 227.275 94.6483C227.275 94.6483 229.214 96.9269 229.131 97.1403C229.08 97.2706 228.895 97.547 228.413 96.9441C227.931 96.3411 226.645 95.035 226.645 95.035L228.63 92.5845L228.631 92.5859Z" fill="#EEA886"/>
<path d="M221.048 80.5625C221.048 80.5625 221.146 87.1663 220.741 90.3515L220.562 81.5994L221.047 80.5625H221.048Z" fill="#E64646"/>
<path d="M206.347 69.7981C206.347 69.7981 207.08 69.9571 208.3 71.2618C209.52 72.5665 210.13 74.7119 210.45 75.408C210.77 76.104 214.809 82.5417 215.042 82.6864C215.274 82.831 218.638 85.1369 220.498 86.9056C222.358 88.6744 225.819 90.7883 225.819 90.7883L224.042 93.4192C224.042 93.4192 214.328 88.0514 212.788 86.0076C211.143 83.8236 205.275 77.4131 205.275 77.4131C205.275 77.4131 201.543 71.5497 206.345 69.7981H206.347Z" fill="#E64646"/>
<path d="M228.432 106.875C228.432 106.875 228.053 105.406 227.579 105.187C227.105 104.967 227.212 105.505 227.212 105.505C227.212 105.505 227.116 104.972 226.675 105C226.234 105.03 226.393 105.653 226.393 105.653C226.393 105.653 226.21 105.268 225.792 105.456C225.374 105.643 225.626 106.132 225.626 106.132C225.626 106.132 225.06 105.729 224.924 106.278C224.694 107.203 225.415 108.061 225.415 108.061C225.415 108.061 225.608 108.251 225.997 108.042C225.997 108.042 226.439 108.541 226.953 107.985C226.953 107.985 227.698 108.186 227.771 107.563C227.771 107.563 228.578 107.73 228.432 106.877V106.875Z" fill="#DB9C7C"/>
<path d="M212.903 87.5532L209.577 82.1997C209.577 82.1997 212.412 85.5396 212.707 85.8991C213.003 86.2571 213.027 86.2843 213.027 86.2843C213.027 86.2843 212.941 87.3714 212.901 87.5532H212.903Z" fill="#9C2F2F"/>
<g style="mix-blend-mode:screen" opacity="0.73">
<path d="M237.958 41.6715V147.655C237.958 150.501 235.647 152.807 232.792 152.807H192.91C190.058 152.807 187.744 150.501 187.744 147.655V41.6715C187.744 38.8243 190.058 36.5171 192.91 36.5171H232.792C235.646 36.5171 237.958 38.8229 237.958 41.6715Z" fill="#6BB0FF"/>
</g>
<path d="M226.435 101.904C226.435 101.904 226.872 102.32 227.023 102.71C227.142 103.018 227.543 103.426 227.731 103.658C227.92 103.891 228.625 104.98 228.726 105.284C228.767 105.407 228.713 106.263 228.823 106.507C228.935 106.75 229.222 107.216 229.004 107.303C228.786 107.39 228.413 107.041 228.413 107.041C228.413 107.041 228.5 107.269 228.334 107.403C228.009 107.665 227.768 107.559 227.768 107.559C227.768 107.559 227.703 107.847 227.54 107.923C227.18 108.089 226.95 107.982 226.95 107.982C226.95 107.982 226.822 108.165 226.558 108.222C226.219 108.297 225.994 108.039 225.994 108.039C225.994 108.039 225.592 108.227 225.411 108.058C225.23 107.889 225.191 107.671 225.088 107.503C224.985 107.336 224.56 105.697 224.779 104.394C224.999 103.091 223.979 102.113 223.979 102.113L226.433 101.904H226.435Z" fill="#EEA886"/>
<path d="M224.885 106.756V106.75L224.881 106.745L224.885 106.74C224.885 106.74 224.881 106.73 224.881 106.726C224.881 106.722 224.875 106.716 224.875 106.712C224.851 106.587 224.825 106.454 224.805 106.305H224.402C224.113 106.305 223.859 106.419 223.669 106.603C223.629 106.647 223.591 106.692 223.55 106.742C223.754 107.537 223.929 108.217 224.058 108.734V107.343C224.058 107.154 224.213 107.001 224.402 107.001H224.94C224.92 106.926 224.9 106.848 224.885 106.757V106.756ZM224.885 106.756V106.75L224.881 106.745L224.885 106.74C224.885 106.74 224.881 106.73 224.881 106.726C224.881 106.722 224.875 106.716 224.875 106.712C224.851 106.587 224.825 106.454 224.805 106.305H224.402C224.113 106.305 223.859 106.419 223.669 106.603C223.629 106.647 223.591 106.692 223.55 106.742C223.754 107.537 223.929 108.217 224.058 108.734V107.343C224.058 107.154 224.213 107.001 224.402 107.001H224.94C224.92 106.926 224.9 106.848 224.885 106.757V106.756ZM224.885 106.756V106.75L224.881 106.745L224.885 106.74C224.885 106.74 224.881 106.73 224.881 106.726C224.881 106.722 224.875 106.716 224.875 106.712C224.851 106.587 224.825 106.454 224.805 106.305H224.402C224.113 106.305 223.859 106.419 223.669 106.603C223.629 106.647 223.591 106.692 223.55 106.742C223.754 107.537 223.929 108.217 224.058 108.734V107.343C224.058 107.154 224.213 107.001 224.402 107.001H224.94C224.92 106.926 224.9 106.848 224.885 106.757V106.756ZM224.885 106.756V106.75L224.881 106.745L224.885 106.74C224.885 106.74 224.881 106.73 224.881 106.726C224.881 106.722 224.875 106.716 224.875 106.712C224.851 106.587 224.825 106.454 224.805 106.305H224.402C224.113 106.305 223.859 106.419 223.669 106.603C223.629 106.647 223.591 106.692 223.55 106.742C223.754 107.537 223.929 108.217 224.058 108.734V107.343C224.058 107.154 224.213 107.001 224.402 107.001H224.94C224.92 106.926 224.9 106.848 224.885 106.757V106.756ZM224.885 106.756V106.75L224.881 106.745L224.885 106.74C224.885 106.74 224.881 106.73 224.881 106.726C224.881 106.722 224.875 106.716 224.875 106.712C224.851 106.587 224.825 106.454 224.805 106.305H224.402C224.113 106.305 223.859 106.419 223.669 106.603C223.629 106.647 223.591 106.692 223.55 106.742C223.754 107.537 223.929 108.217 224.058 108.734V107.343C224.058 107.154 224.213 107.001 224.402 107.001H224.94C224.92 106.926 224.9 106.848 224.885 106.757V106.756ZM224.885 106.756V106.75L224.881 106.745L224.885 106.74C224.885 106.74 224.881 106.73 224.881 106.726C224.881 106.722 224.875 106.716 224.875 106.712C224.851 106.587 224.825 106.454 224.805 106.305H224.402C224.113 106.305 223.859 106.419 223.669 106.603C223.629 106.647 223.591 106.692 223.55 106.742C223.754 107.537 223.929 108.217 224.058 108.734V107.343C224.058 107.154 224.213 107.001 224.402 107.001H224.94C224.92 106.926 224.9 106.848 224.885 106.757V106.756ZM224.885 106.756V106.75L224.881 106.745L224.885 106.74C224.885 106.74 224.881 106.73 224.881 106.726C224.881 106.722 224.875 106.716 224.875 106.712C224.851 106.587 224.825 106.454 224.805 106.305H224.402C224.113 106.305 223.859 106.419 223.669 106.603C223.629 106.647 223.591 106.692 223.55 106.742C223.754 107.537 223.929 108.217 224.058 108.734V107.343C224.058 107.154 224.213 107.001 224.402 107.001H224.94C224.92 106.926 224.9 106.848 224.885 106.757V106.756ZM230.043 106.303H224.402C224.113 106.303 223.859 106.418 223.669 106.601C223.629 106.646 223.591 106.69 223.55 106.74C223.431 106.909 223.361 107.118 223.361 107.342V110.894C223.361 111.465 223.829 111.932 224.402 111.932H230.043C230.616 111.932 231.083 111.465 231.083 110.894V107.342C231.083 106.77 230.616 106.303 230.043 106.303ZM230.386 110.894C230.386 111.083 230.231 111.232 230.043 111.232H224.402C224.212 111.232 224.058 111.083 224.058 110.894V107.342C224.058 107.153 224.213 107 224.402 107H230.043C230.232 107 230.386 107.154 230.386 107.342V110.894ZM224.885 106.756V106.75L224.881 106.745L224.885 106.74C224.885 106.74 224.881 106.73 224.881 106.726C224.881 106.722 224.875 106.716 224.875 106.712C224.851 106.587 224.825 106.454 224.805 106.305H224.402C224.113 106.305 223.859 106.419 223.669 106.603C223.629 106.647 223.591 106.692 223.55 106.742C223.754 107.537 223.929 108.217 224.058 108.734V107.343C224.058 107.154 224.213 107.001 224.402 107.001H224.94C224.92 106.926 224.9 106.848 224.885 106.757V106.756ZM224.885 106.756V106.75L224.881 106.745L224.885 106.74C224.885 106.74 224.881 106.73 224.881 106.726C224.881 106.722 224.875 106.716 224.875 106.712C224.851 106.587 224.825 106.454 224.805 106.305H224.402C224.113 106.305 223.859 106.419 223.669 106.603C223.629 106.647 223.591 106.692 223.55 106.742C223.754 107.537 223.929 108.217 224.058 108.734V107.343C224.058 107.154 224.213 107.001 224.402 107.001H224.94C224.92 106.926 224.9 106.848 224.885 106.757V106.756ZM224.885 106.756V106.75L224.881 106.745L224.885 106.74C224.885 106.74 224.881 106.73 224.881 106.726C224.881 106.722 224.875 106.716 224.875 106.712C224.851 106.587 224.825 106.454 224.805 106.305H224.402C224.113 106.305 223.859 106.419 223.669 106.603C223.629 106.647 223.591 106.692 223.55 106.742C223.754 107.537 223.929 108.217 224.058 108.734V107.343C224.058 107.154 224.213 107.001 224.402 107.001H224.94C224.92 106.926 224.9 106.848 224.885 106.757V106.756ZM224.885 106.756V106.75L224.881 106.745L224.885 106.74C224.885 106.74 224.881 106.73 224.881 106.726C224.881 106.722 224.875 106.716 224.875 106.712C224.851 106.587 224.825 106.454 224.805 106.305H224.402C224.113 106.305 223.859 106.419 223.669 106.603C223.629 106.647 223.591 106.692 223.55 106.742C223.754 107.537 223.929 108.217 224.058 108.734V107.343C224.058 107.154 224.213 107.001 224.402 107.001H224.94C224.92 106.926 224.9 106.848 224.885 106.757V106.756ZM224.885 106.756V106.75L224.881 106.745L224.885 106.74C224.885 106.74 224.881 106.73 224.881 106.726C224.881 106.722 224.875 106.716 224.875 106.712C224.851 106.587 224.825 106.454 224.805 106.305H224.402C224.113 106.305 223.859 106.419 223.669 106.603C223.629 106.647 223.591 106.692 223.55 106.742C223.754 107.537 223.929 108.217 224.058 108.734V107.343C224.058 107.154 224.213 107.001 224.402 107.001H224.94C224.92 106.926 224.9 106.848 224.885 106.757V106.756ZM224.885 106.756V106.75L224.881 106.745L224.885 106.74C224.885 106.74 224.881 106.73 224.881 106.726C224.881 106.722 224.875 106.716 224.875 106.712C224.851 106.587 224.825 106.454 224.805 106.305H224.402C224.113 106.305 223.859 106.419 223.669 106.603C223.629 106.647 223.591 106.692 223.55 106.742C223.754 107.537 223.929 108.217 224.058 108.734V107.343C224.058 107.154 224.213 107.001 224.402 107.001H224.94C224.92 106.926 224.9 106.848 224.885 106.757V106.756Z" fill="#0E1E2B"/>
<path d="M237.808 110.405H216.635V125.54H237.808V110.405Z" fill="#292C47"/>
<path d="M218.196 69.929C218.196 69.929 217.143 69.9218 216.681 73.1571C216.219 76.3924 217.095 77.7444 217.199 79.0921C217.304 80.4384 218.887 89.1346 218.93 89.5185C218.974 89.9023 219.186 94.5312 219.803 95.7585C220.42 96.9874 224.958 103.948 225.018 104.294C225.078 104.642 227.222 103.081 227.222 103.081C227.222 103.081 223.656 95.6368 223.451 94.7861C223.244 93.9368 221.809 89.5987 222.035 88.2753C222.262 86.9506 221.399 79.6464 221.483 78.8343C221.566 78.0208 220.274 70.4231 218.196 69.929Z" fill="#EEA886"/>
<path d="M218.228 69.9055C218.228 69.9055 217.143 69.9213 216.681 73.1566C216.219 76.3919 216.636 77.5577 216.916 78.9598C217.18 80.2846 218.08 88.3865 218.124 88.7703C218.167 89.1542 219.243 94.0394 219.803 95.758C220.229 97.0642 224.274 103.906 224.336 104.252C224.396 104.6 227.481 102.654 227.481 102.654C227.481 102.654 223.525 94.9531 223.318 94.1038C223.112 93.2545 222.441 90.3143 222.42 88.9709C222.394 87.3926 221.399 79.6473 221.482 78.8338C221.566 78.0203 221.254 71.0112 218.227 69.9055H218.228Z" fill="#E64646"/>
<path d="M221.967 143.128C221.967 143.128 222.294 143.898 222.911 144.703C223.363 145.293 224.772 147.712 225.392 147.881C226.012 148.05 227.928 148.387 228.097 149.457C228.267 150.525 228.352 151.284 226.462 151.368C224.573 151.453 223.333 151.565 222.432 150.244C221.53 148.922 220.092 147.966 220.092 147.966V151.414H219.359C219.359 151.414 219.02 147.825 218.823 147.572C218.625 147.318 218.118 144.563 219.867 143.128C221.614 141.694 221.967 143.128 221.967 143.128Z" fill="#EDDAD3"/>
<path d="M215.246 100.591C215.246 101.237 214.933 102.638 214.459 104.401C214.195 101.58 213.788 98.6337 213.344 95.7578C213.239 95.0532 213.13 94.3514 213.021 93.6568C212.987 93.4577 212.957 93.2644 212.926 93.0653C212.847 92.5784 212.773 92.0914 212.692 91.6145C212.936 91.9181 213.16 92.2647 213.37 92.6385C213.544 92.9665 213.709 93.3145 213.858 93.6769C214.132 94.3428 214.356 95.0532 214.54 95.7636C215.048 97.7156 215.246 99.6634 215.246 100.591Z" fill="#EEA886"/>
<path d="M225.388 114.198C225.388 116.234 224.631 119.503 224.631 119.503L223.95 125.544L221.969 143.128H219.867C219.867 143.128 219.867 143.108 219.857 143.064C219.762 142.04 218.532 129.224 218.334 126.552C218.31 126.234 218.31 125.896 218.33 125.544C218.489 122.821 219.804 119.329 219.431 118.281C219.302 117.923 218.634 116.443 217.769 114.546C217.415 113.781 217.032 112.946 216.639 112.087C215.991 110.696 215.32 109.245 214.713 107.943C214.662 106.796 214.578 105.609 214.464 104.402C214.2 101.58 213.792 98.6341 213.349 95.7583C213.244 95.0536 213.135 94.3518 213.026 93.6572C212.991 93.4582 212.961 93.2648 212.931 93.0657C213.066 92.9111 213.215 92.7678 213.375 92.6389C214.446 91.7696 216.128 91.4717 218.707 92.1921C218.768 92.2021 218.826 92.2222 218.887 92.2422C218.976 92.2666 219.066 92.2924 219.155 92.321C219.315 92.3711 219.478 92.4256 219.648 92.4843C219.722 92.5043 219.797 92.5344 219.871 92.5587C219.871 92.5587 220.065 93.3035 220.38 94.4865C220.38 94.4865 220.39 94.5166 220.404 94.5753C220.418 94.6197 220.434 94.6841 220.454 94.7586C220.589 95.2899 220.749 95.8958 220.918 96.5574C221.073 97.1389 221.232 97.7547 221.402 98.4007V98.405C221.481 98.7186 221.565 99.0366 221.65 99.3531V99.3588C222.317 101.917 223.039 104.694 223.556 106.74C223.76 107.535 223.935 108.215 224.064 108.732C224.149 109.091 224.219 109.368 224.258 109.547C224.323 109.841 224.393 110.129 224.462 110.407C224.541 110.695 224.617 110.968 224.692 111.232C224.756 111.465 224.821 111.689 224.881 111.902C224.887 111.912 224.887 111.916 224.887 111.926L224.891 111.932C225.17 112.9 225.394 113.685 225.394 114.198H225.388Z" fill="#EEA886"/>
<path d="M225.392 147.881C225.392 147.881 223.701 148.304 223.052 147.881C222.403 147.459 220.2 143.742 219.469 143.52C219.469 143.52 220.177 142.088 221.967 143.129C221.967 143.129 224.912 147.264 225.392 147.883V147.881Z" fill="#EEA886"/>
<path d="M224.879 111.927L224.873 111.933C224.744 112.003 222.324 113.388 217.764 114.546C217.401 114.64 217.022 114.735 216.634 114.819C215.918 114.988 215.155 115.141 214.349 115.286C214.746 113.179 214.827 110.666 214.708 107.945C214.657 106.797 214.573 105.61 214.459 104.403C214.195 101.581 213.788 98.6353 213.344 95.7595C213.239 95.0548 213.13 94.3531 213.021 93.6584C213.299 93.6584 213.578 93.6685 213.858 93.6785C215.625 93.763 217.309 93.9764 218.523 94.1597C218.846 94.2141 219.14 94.2585 219.389 94.3044H219.409C219.463 94.3187 219.518 94.3244 219.568 94.3344C220.076 94.4232 220.375 94.4891 220.375 94.4891C220.375 94.4891 220.385 94.5192 220.399 94.5779C220.413 94.6223 220.429 94.6868 220.449 94.7612C220.548 95.0992 220.724 95.7194 220.952 96.5343C221.121 97.1401 221.321 97.8462 221.535 98.6253V98.6296C221.629 98.9676 221.724 99.3199 221.829 99.6822V99.6923C222.416 101.853 223.098 104.371 223.67 106.603C223.805 107.14 223.939 107.655 224.059 108.152C224.269 108.991 224.448 109.756 224.592 110.408C224.657 110.712 224.711 110.989 224.761 111.233C224.812 111.491 224.85 111.714 224.876 111.903C224.882 111.913 224.882 111.917 224.882 111.927H224.879Z" fill="#1D3B54"/>
<path d="M221.484 79.1516V79.1917C221.315 79.6729 221.111 80.1656 220.887 80.6869C220.742 81.0192 220.639 81.3228 220.563 81.6007C220.115 83.2892 220.762 84.1485 220.363 86.1665C220.333 86.3298 220.299 86.5045 220.268 86.6936C220.248 86.8124 220.228 86.9413 220.208 87.0717C220.049 88.0756 219.91 89.3116 219.795 90.5089C219.785 90.6536 219.77 90.7968 219.76 90.9414C219.71 91.4785 219.671 92.0041 219.641 92.4868C219.597 93.2215 219.566 93.8674 219.566 94.3343C219.566 94.5176 219.566 94.6723 219.577 94.7969C219.581 94.837 219.572 94.8714 219.552 94.9115C219.548 94.9215 219.548 94.9258 219.538 94.9358C219.419 95.1349 219.005 95.2982 218.392 95.4328C217.466 95.6319 216.083 95.7507 214.54 95.7651C214.151 95.7751 213.753 95.7708 213.345 95.7608C213.241 95.0561 213.131 94.3543 213.022 93.6597C212.988 93.4607 212.958 93.2673 212.928 93.0682C212.849 92.5813 212.774 92.0943 212.694 91.6174C212.649 91.3296 212.605 91.046 212.559 90.7624C212.28 89.0094 212.016 87.3295 211.802 85.7855C211.748 85.3931 211.697 85.015 211.647 84.6427C211.647 84.6226 211.643 84.6026 211.643 84.5882C211.613 84.3405 211.583 84.1013 211.554 83.8678C211.439 82.8897 211.354 81.9845 211.306 81.1653C211.217 79.6701 211.281 78.394 211.435 77.2812C211.44 77.2268 211.449 77.1723 211.459 77.1222C211.703 75.438 212.147 74.1218 212.57 72.9488C212.625 72.7898 212.679 72.6352 212.734 72.4862V72.4805C212.839 72.1969 212.933 71.9248 213.022 71.6512C213.047 71.5811 213.073 71.5166 213.093 71.4479C213.173 71.2144 213.242 70.981 213.307 70.7475C213.486 70.0672 213.605 69.3812 213.595 68.6365C214.097 68.6422 214.606 68.6766 215.049 68.741C215.049 68.741 215.348 68.8799 215.761 69.0633C215.775 69.0733 215.791 69.0776 215.801 69.0833C215.941 69.1435 216.096 69.2122 216.249 69.2767C216.368 69.3311 216.483 69.3812 216.602 69.4256L216.607 69.4299C216.681 69.46 216.756 69.4901 216.831 69.5187C217.238 69.6834 217.627 69.8223 217.865 69.871C217.92 69.8811 217.98 69.9111 218.055 69.9598H218.065C218.453 70.2033 219.09 70.8893 219.743 71.7028L219.747 71.7085C220.001 72.0207 220.26 72.3587 220.499 72.6967C220.499 72.6967 220.499 72.7025 220.504 72.7025C221.101 73.5217 221.619 74.3366 221.847 74.8737C221.872 74.9338 221.898 74.9925 221.918 75.0527C222.281 76.081 222.067 77.4874 221.484 79.1516Z" fill="#EDDAD3"/>
<path d="M215.714 73.3928L216.986 71.9077L215.882 67.9963C215.882 67.9963 215.511 70.1747 215.714 73.3928Z" fill="#D6C5BE"/>
<path d="M215.958 67.1701C215.958 67.1701 215.948 67.1744 215.944 67.1744C215.371 67.3434 214.768 67.3334 214.181 67.1143C213.877 66.9997 213.584 66.8565 213.305 66.6875C213.3 66.6631 213.291 66.6374 213.285 66.613C213.255 66.5142 213.225 66.4096 213.19 66.3051C212.946 65.5546 212.791 64.7411 212.707 63.8961C212.677 63.5782 212.652 63.2502 212.638 62.9222C212.613 62.3207 212.618 61.7106 212.648 61.1091C212.644 61.1048 212.644 61.0991 212.638 61.089C212.638 61.089 212.642 61.0833 212.648 61.0833C212.692 60.055 212.807 59.0424 212.946 58.0986C213.051 57.3782 213.176 56.7022 213.305 56.0964V56.0907C213.529 54.9879 213.759 54.1042 213.908 53.5872C215.75 53.3939 218.444 53.9052 219.271 58.123C219.281 58.1631 219.291 58.2017 219.295 58.2418C220.157 62.9008 218.265 66.4827 215.959 67.1687L215.958 67.1701Z" fill="#EEA886"/>
<path d="M219.294 58.2435C219.289 58.2034 219.279 58.1633 219.269 58.1246C219.1 57.513 218.412 56.7039 218.412 56.7039C217.023 59.0927 214.15 60.3645 212.647 61.0849C212.692 60.0566 212.807 59.0441 212.946 58.1002C213.051 57.3798 213.176 56.7038 213.305 56.098C213.299 56.0923 213.305 56.0923 213.305 56.0923C213.529 54.9895 213.758 54.1059 213.908 53.5888C213.982 53.2952 214.037 53.1219 214.053 53.0818C214.212 53.0775 214.381 53.0775 214.551 53.0818C219.519 53.2551 219.295 58.2435 219.295 58.2435H219.294Z" fill="#252E3B"/>
<path d="M213.096 57.712C213.051 57.8466 213.001 57.9755 212.946 58.1001C213.051 57.3797 213.176 56.7037 213.305 56.0979C213.34 56.6249 213.275 57.1706 213.096 57.712Z" fill="#252E3B"/>
<path d="M216.042 66.3312C216.042 66.3312 216.008 66.6635 215.958 67.1705V67.1748L215.903 67.7362C215.899 67.8207 215.889 67.9052 215.883 67.994V67.9983C215.883 67.9983 215.883 68.004 215.877 68.0083C215.877 68.0226 215.877 68.0384 215.873 68.0527C215.849 68.3807 215.819 68.7287 215.798 69.081C215.724 69.9948 215.679 70.9085 215.714 71.4055C215.714 71.4055 215.694 71.4255 215.653 71.4599C215.504 71.5845 215.076 71.8867 214.474 71.9067C214.115 71.9168 213.691 71.828 213.229 71.5344L213.215 71.5243C213.17 71.5 213.13 71.4742 213.09 71.4456C213.17 71.2121 213.239 70.9787 213.304 70.7452C213.483 70.0649 213.602 69.3789 213.592 68.6342C213.586 68.1172 213.522 67.5715 213.378 66.9757C213.358 66.8812 213.334 66.7866 213.304 66.6878C213.298 66.6635 213.289 66.6377 213.284 66.6134C213.253 66.5145 213.223 66.41 213.189 66.3054C212.945 65.555 212.79 64.7415 212.705 63.8965C214.115 64.6914 216.041 66.3312 216.041 66.3312H216.042Z" fill="#EEA886"/>
<path d="M215.714 71.4062V73.3927L213.212 71.528L215.714 71.4062Z" fill="#EEA886"/>
<path d="M215.714 73.3947L214.36 72.5211L213.021 71.6518C213.045 71.5816 213.071 71.5171 213.091 71.4484C213.172 71.2149 213.241 70.9815 213.305 70.748L214.052 71.4885L214.475 71.911L214.675 72.1101L215.715 73.3962L215.714 73.3947Z" fill="#D6C5BE"/>
<path d="M213.528 80.434C213.528 80.4884 213.524 80.5486 213.518 80.6073C213.399 82.2013 213.244 84.0145 213.07 85.8534C213.056 85.9923 213.046 86.137 213.026 86.2802C212.991 86.7027 212.945 87.1252 212.901 87.5462V87.5505C212.792 88.6433 212.677 89.726 212.558 90.7601C212.279 89.0071 212.015 87.3271 211.801 85.7832C211.747 85.3908 211.696 85.0127 211.646 84.6403C211.646 84.6203 211.642 84.6002 211.642 84.5859C211.612 84.3381 211.582 84.099 211.553 83.8655C211.438 82.8873 211.353 81.9822 211.305 81.163C211.216 79.6678 211.28 78.3917 211.434 77.2789C211.439 77.2244 211.448 77.17 211.458 77.1199C211.702 75.4356 212.146 74.1194 212.569 72.9465C212.624 72.7875 212.678 72.6328 212.733 72.4839C212.967 72.9465 213.181 73.4077 213.356 73.8402C213.585 74.4159 213.739 74.9473 213.769 75.3655C213.814 75.9971 213.719 77.9334 213.531 80.4326L213.528 80.434Z" fill="#E64646"/>
<path d="M222.099 75.5971C222.099 75.5971 222.628 77.4676 220.564 81.6009C220.564 81.6009 220.597 86.8914 220.655 88.5441C220.712 90.1969 221.105 96.4456 221.105 96.4456L219.064 97.6386C218.654 97.8792 218.144 97.5455 218.202 97.0743C218.78 92.318 220.659 74.2766 216.598 69.4272L218.227 69.907C218.227 69.907 221.123 72.2716 222.097 75.5986L222.099 75.5971Z" fill="#E64646"/>
<path d="M212.638 62.9238C212.613 62.3222 212.618 61.7121 212.648 61.1106C212.997 62.2277 212.902 62.7548 212.638 62.9238Z" fill="#EEA886"/>
<path d="M216.986 71.9077L218.588 72.3488L215.882 67.9963L216.986 71.9077Z" fill="#FAE6DE"/>
<path d="M214.673 72.1088L214.425 72.4311L214.36 72.5198L213.354 73.8418L213.215 74.0251L212.567 72.9466C212.622 72.7877 212.676 72.633 212.731 72.484V72.4783C212.836 72.1947 212.931 71.9226 213.02 71.6491C213.044 71.5789 213.07 71.5145 213.09 71.4457C213.17 71.2123 213.239 70.9788 213.304 70.7454L214.05 71.4858L214.474 71.9083L214.673 72.1074V72.1088Z" fill="#FAE6DE"/>
<path d="M215.958 67.1745L215.904 67.7359L215.884 67.925C215.884 67.925 214.873 68.124 213.379 66.9768C213.359 66.8823 213.334 66.7878 213.304 66.689C213.299 66.6646 213.29 66.6388 213.284 66.6145C213.966 66.9969 214.872 67.3005 215.943 67.1759H215.957L215.958 67.1745Z" fill="#A77860"/>
<path d="M224.852 90.6196C224.852 90.6196 225.868 91.2726 226.452 90.9074C226.949 90.5966 227.817 90.5537 228.084 90.5408C228.442 90.5222 229.517 90.0581 229.544 90.5078C229.571 90.9575 227.809 91.3571 227.455 91.5161C227.102 91.6736 228.657 92.4313 228.832 92.7922C229.007 93.1531 227.605 95.6508 226.598 95.0078C225.592 94.3647 224.942 93.0156 224.742 92.9368C224.543 92.8595 223.992 92.4986 223.992 92.4986L224.852 90.6196Z" fill="#EEA886"/>
<path d="M226.608 91.6449L225.238 93.5626C225.238 93.5626 225.234 93.5583 225.218 93.5526C225.144 93.5125 224.805 93.3335 224.292 93.0513C223.919 92.848 223.445 92.5902 222.913 92.2865C222.843 92.2522 222.774 92.2121 222.703 92.172C222.121 91.8497 221.469 91.4759 220.787 91.0835C220.464 90.8944 220.13 90.7011 219.797 90.5078C219.522 90.3445 219.244 90.1798 218.965 90.0108C218.935 89.9965 218.905 89.9764 218.876 89.9564C218.683 89.8375 218.483 89.7186 218.289 89.5983C216.039 88.2277 213.908 86.7969 213.072 85.8531C212.973 85.7486 212.892 85.6498 212.832 85.5552C212.548 85.1227 212.095 84.5312 211.553 83.8667C211.438 82.8885 211.353 81.9833 211.305 81.1641C211.216 79.6689 211.28 78.3928 211.434 77.28C212.061 78.3026 212.848 79.5601 213.519 80.6084C214.246 81.7513 214.839 82.635 214.923 82.6894C215.048 82.7682 216.283 83.7478 217.687 84.915C217.856 85.0597 218.03 85.2029 218.209 85.3476C218.498 85.5953 218.792 85.8445 219.08 86.088C219.474 86.426 219.857 86.764 220.21 87.0719C220.355 87.2066 220.494 87.3297 220.628 87.45L220.682 87.5045C220.771 87.5847 220.862 87.6634 220.946 87.7422C221.007 87.7966 221.066 87.851 221.12 87.9055C221.384 88.159 221.687 88.4168 222.011 88.6703C222.146 88.7748 222.28 88.8794 222.419 88.9839C223.23 89.5955 224.127 90.1755 224.878 90.6381C224.923 90.6624 224.967 90.6925 225.007 90.7183C225.227 90.8529 225.435 90.9761 225.62 91.0806C226.213 91.433 226.606 91.6463 226.606 91.6463L226.608 91.6449Z" fill="#EEA886"/>
<path d="M228.632 92.5859C228.632 92.5859 231.581 94.7571 231.656 95.0665C231.731 95.3758 231.604 95.5276 231.32 95.3357C231.036 95.1438 228.409 93.3192 228.409 93.3192C228.409 93.3192 231.468 96.4757 231.584 96.7149C231.653 96.8553 231.424 97.1646 231.261 97.0773C231.099 96.9885 227.89 94.0339 227.89 94.0339C227.89 94.0339 230.74 96.9856 230.778 97.2148C230.811 97.4153 230.529 97.6473 230.303 97.4425C230.076 97.2377 227.275 94.6483 227.275 94.6483C227.275 94.6483 229.214 96.9269 229.131 97.1403C229.081 97.2706 228.896 97.547 228.413 96.9441C227.931 96.3411 226.645 95.035 226.645 95.035L228.63 92.5845L228.632 92.5859Z" fill="#EEA886"/>
<path d="M221.049 80.5627C221.049 80.5627 221.147 87.1666 220.742 90.3518L220.562 81.5997L221.048 80.5627H221.049Z" fill="#E64646"/>
<path d="M225.82 90.7853L225.691 90.9787L225.621 91.0775L224.465 92.7904L224.291 93.0482L224.043 93.4163C224.043 93.4163 223.66 93.2029 223.032 92.8506C222.978 92.8205 222.923 92.7861 222.863 92.756C222.31 92.4381 221.603 92.0313 220.812 91.5644C220.473 91.3654 220.12 91.1577 219.761 90.9386C219.507 90.7896 219.253 90.6349 218.999 90.4817C218.944 90.4473 218.894 90.4173 218.844 90.3872C218.695 90.2927 218.545 90.2039 218.396 90.1136C216.185 88.743 213.95 87.2521 213.029 86.2839L213.023 86.2782C213.013 86.2639 212.993 86.2438 212.959 86.2037C212.894 86.1336 212.839 86.0691 212.789 86.0047C212.765 85.9703 212.735 85.9359 212.705 85.8958C212.695 85.8858 212.684 85.8715 212.67 85.8557C212.406 85.5077 212.047 85.0709 211.639 84.5839C211.609 84.3362 211.579 84.097 211.55 83.8635C211.436 82.8854 211.351 81.9802 211.302 81.161C211.213 79.6658 211.278 78.3897 211.431 77.2769C211.437 77.2225 211.446 77.168 211.456 77.1179C212.063 78.1119 212.845 79.3679 213.527 80.4306C214.309 81.6522 214.951 82.6319 215.04 82.6863C215.175 82.7708 216.325 83.5556 217.64 84.5395C217.799 84.6641 217.963 84.793 218.132 84.9219C218.451 85.1654 218.774 85.4189 219.088 85.6767C219.506 86.019 219.909 86.3627 220.268 86.6907C220.348 86.7609 220.423 86.8353 220.498 86.9041C220.538 86.9385 220.576 86.9786 220.617 87.0129C220.637 87.033 220.651 87.0473 220.671 87.0631C220.766 87.1519 220.865 87.2421 220.965 87.3209C221.298 87.6188 221.667 87.9124 222.046 88.2002C222.161 88.289 222.276 88.3793 222.395 88.4637C224.073 89.7155 225.82 90.7839 225.82 90.7839V90.7853Z" fill="#E64646"/>
<path d="M228.431 106.875C228.431 106.875 228.052 105.405 227.579 105.186C227.105 104.967 227.211 105.504 227.211 105.504C227.211 105.504 227.115 104.971 226.674 105C226.234 105.03 226.393 105.653 226.393 105.653C226.393 105.653 226.209 105.268 225.792 105.456C225.374 105.643 225.625 106.132 225.625 106.132C225.625 106.132 225.059 105.729 224.923 106.278C224.693 107.203 225.387 108.088 225.387 108.088C225.387 108.088 225.601 108.286 225.99 108.076C225.99 108.076 226.463 108.575 226.976 108.018C226.976 108.018 227.725 108.238 227.798 107.614C227.798 107.614 228.639 107.72 228.43 106.875H228.431Z" fill="#DB9C7C"/>
<path d="M213.031 86.2855C213.031 86.2855 212.942 87.3539 212.902 87.5473L211.801 85.7842C211.746 85.3918 211.696 85.0137 211.646 84.6414C212.059 85.1283 212.422 85.5608 212.606 85.7785C212.63 85.8086 212.65 85.8329 212.67 85.8573C212.685 85.8716 212.695 85.8874 212.705 85.8974C212.84 86.0564 212.914 86.1509 212.959 86.2053C212.993 86.2454 213.013 86.2655 213.024 86.2798L213.029 86.2855H213.031Z" fill="#9C2F2F"/>
<path d="M212.647 61.1099C212.647 61.1099 212.642 61.0996 212.636 61.0892C212.636 61.0892 212.641 61.0833 212.647 61.0833V61.1084V61.1099Z" fill="#6BB0FF"/>
<path d="M176.022 148.723C176.022 148.723 177.934 149.99 178.804 150.47C179.674 150.95 183.139 151.258 183.465 151.6C183.791 151.944 183.61 152.972 183.029 153.047C182.447 153.122 178.208 153.28 176.819 152.878C175.428 152.475 172.767 152.889 172.194 152.66C171.621 152.431 172.164 149.316 172.426 148.624C172.689 147.932 176.022 148.721 176.022 148.721V148.723Z" fill="#1D2033"/>
<path d="M172.702 147.789L172.425 148.624L176.021 148.723L175.905 147.575L172.702 147.789Z" fill="#50558A"/>
<path d="M155.332 146.982C155.332 146.982 156.798 148.745 157.493 149.454C158.188 150.163 161.419 151.452 161.631 151.873C161.844 152.296 161.376 153.228 160.797 153.135C160.219 153.04 156.113 151.976 154.898 151.191C153.682 150.407 151.013 150.04 150.531 149.656C150.049 149.274 151.465 146.444 151.916 145.856C152.367 145.269 155.332 146.982 155.332 146.982Z" fill="#1D2033"/>
<path d="M152.421 145.136L151.916 145.857L155.332 146.982L155.55 145.851L152.421 145.136Z" fill="#50558A"/>
<path d="M182.446 75.6261C182.446 75.6261 185.672 74.0264 185.965 74.108C186.259 74.1896 186.323 74.3787 186.028 74.5405C185.732 74.7038 182.952 76.1804 182.952 76.1804C182.952 76.1804 187.05 74.9587 187.305 74.9702C187.455 74.9759 187.604 75.3325 187.452 75.4342C187.301 75.5359 183.297 76.991 183.297 76.991C183.297 76.991 187.126 75.8581 187.335 75.9355C187.519 76.0028 187.577 76.368 187.298 76.4726C187.02 76.5771 183.516 77.8403 183.516 77.8403C183.516 77.8403 186.345 77.2001 186.483 77.3777C186.567 77.4865 186.71 77.7873 185.975 77.9277C185.24 78.0694 183.536 78.5936 183.536 78.5936L182.446 75.6247V75.6261Z" fill="#EEA886"/>
<path d="M178.993 78.0721C178.993 78.0721 180.025 77.4749 180.001 76.7731C179.981 76.1759 180.361 75.3767 180.477 75.129C180.634 74.7996 180.763 73.6094 181.151 73.8013C181.538 73.9932 181.026 75.772 180.988 76.1659C180.951 76.5597 182.328 75.5286 182.712 75.5472C183.097 75.5644 184.507 78.0335 183.488 78.6264C182.47 79.2193 181.033 79.1506 180.872 79.2924C180.711 79.4341 180.146 79.755 180.146 79.755L178.993 78.0736V78.0721Z" fill="#EEA886"/>
<path d="M168.098 85.8836C168.875 87.5536 169.271 87.7612 170.171 87.9818C172.119 88.4602 181.205 80.2064 181.205 80.2064L179.223 77.6113C179.223 77.6113 177.002 79.3357 175.11 80.606C173.939 81.3923 171.628 83.3129 171.42 83.1825C171.212 83.0522 168.118 78.7169 167.831 78.0939C167.544 77.4695 166.321 72.6931 165.595 72.1589C165.595 72.1589 163.08 75.0863 168.1 85.8851L168.098 85.8836Z" fill="#D6D6D6"/>
<path d="M165.965 107.869C165.965 107.869 165.28 112.913 164.581 117.757C164.448 118.679 164.314 119.593 164.185 120.464C163.733 123.509 163.331 126.022 163.177 126.467C162.74 127.735 156.605 146.702 156.605 146.702C156.605 146.702 151.833 145.825 151.674 145.307C151.674 145.307 156.869 125.446 156.81 124.729C156.75 124.01 157.456 103.753 157.456 103.753C157.456 103.753 165.724 106.705 165.965 107.87V107.869Z" fill="#292C47"/>
<path d="M169.852 101.588C169.852 101.588 174.158 122.187 174.518 123.704C174.878 125.22 176.941 148.34 176.941 148.34C176.941 148.34 174.966 148.492 171.56 148.34C171.56 148.34 167.838 124.95 167.453 124.224C165.961 121.404 160.221 107.221 159.501 105.266C158.78 103.311 157.528 101.533 157.528 101.533C157.528 101.533 162.505 97.7066 169.852 101.588Z" fill="#292C47"/>
<path d="M160.382 68.676C160.382 68.676 164.868 71.9744 166.114 73.2905C167.358 74.6067 169.992 79.9073 169.778 81.5815C168.96 88.0006 169.228 93.6649 169.498 98.0274C169.706 101.377 170.027 101.573 169.805 101.616C168.95 101.783 159.073 103.831 157.433 104.349C157.433 104.349 157.033 94.3051 157.553 92.7483C158.072 91.1915 155.743 74.982 160.382 68.6775V68.676Z" fill="#D6D6D6"/>
<path d="M160.382 68.6756C160.382 68.6756 168.598 77.3188 168.086 76.3535C166.254 72.912 165.008 72.3477 165.021 71.6989C165.031 71.2034 165.201 69.754 165.225 69.2699C165.271 68.349 165.327 67.5986 165.327 67.5986C165.327 67.5986 161.224 62.0603 161.435 63.9679C161.645 65.8756 160.382 68.6741 160.382 68.6741V68.6756Z" fill="#EEA886"/>
<path d="M167.877 58.1975C167.877 58.1975 169.031 60.774 169.058 61.3813C169.084 61.9885 168.939 62.4568 169.045 63.1558C169.156 63.8776 169.791 65.39 169.724 65.811C169.642 66.3209 168.564 66.076 168.432 66.9153C168.299 67.756 167.546 69.3428 167.159 69.3815C166.163 69.4803 162.313 67.9937 162.056 67.2003C161.799 66.4068 160.335 61.9828 159.89 61.145C159.443 60.3071 166.526 55.5437 167.202 56.8713L167.878 58.1975H167.877Z" fill="#EEA886"/>
<path d="M158.168 60.2961C157.623 58.1019 160.156 57.7869 160.156 57.7869C160.156 57.7869 161.774 55.8391 165.733 55.9966C169.69 56.1542 169.178 61.3143 169.178 61.3143C169.178 61.3143 166.435 60.9549 165.251 61.2757C165.251 61.2757 165.144 63.477 165.284 64.0198L163.789 63.9138C163.789 63.9138 163.921 61.9588 163.204 61.8801C162.486 61.7999 162.321 66.0277 161.003 66.9815C161.003 66.9815 160.985 66.6836 160.812 66.3943C160.538 65.9332 160.11 65.1626 159.737 64.2589C159.133 62.9929 158.447 61.4218 158.167 60.2975L158.168 60.2961Z" fill="#16202E"/>
<path d="M164.206 62.3323C164.206 62.3323 163.626 60.8528 162.331 61.8424C161.39 62.5614 162.416 65.0591 163.343 65.0305C164.271 65.0019 164.624 63.627 164.206 62.3323Z" fill="#EEA886"/>
<path d="M161.827 66.509C161.827 66.509 162.037 67.2967 162.253 67.4772C162.47 67.6577 163.512 68.4611 165.265 68.9767L165.113 70.5306C165.113 70.5306 161.702 69.2861 161.827 66.509Z" fill="#C48A6F"/>
<path d="M169.982 102.207C169.982 102.207 169.897 100.821 169.719 100.429C169.719 100.429 162.426 102.275 157.388 103.022C157.388 103.022 157.32 103.84 157.419 104.783C157.419 104.783 168.476 102.778 169.982 102.206V102.207Z" fill="#3D4169"/>
<path d="M160.382 68.8467L165.559 72.6191C165.559 72.6191 167.364 74.3363 168.682 77.394L159.502 70.1485L160.383 68.8467H160.382Z" fill="#D6D6D6"/>
<path d="M160.665 67.9783L165.241 70.9844L165.593 72.789L160.191 68.9464L160.665 67.9783Z" fill="#E3E3E3"/>
<path d="M165.593 72.7892C165.593 72.7892 169.279 79.6265 169.387 86.1329C169.486 92.1896 169.73 96.3745 169.73 96.3745L170.314 98.0101L170.813 96.0537C170.813 96.0537 170.719 89.0002 170.6 85.8006C170.48 82.5997 168.97 76.5945 165.896 72.4512L165.594 72.7892H165.593Z" fill="#D44040"/>
<path d="M165.592 72.7892C165.592 72.7892 165.778 72.9453 166.027 72.9668C166.277 72.9883 166.606 72.5729 165.241 70.9846L165.592 72.7892Z" fill="#D44040"/>
<path d="M164.579 117.757C164.445 118.68 164.312 119.594 164.183 120.464C163.459 118.803 161.108 109.393 161.066 109.227L164.579 117.757Z" fill="#1C1D30"/>
<path d="M179.65 92.7921C179.65 92.7921 180.666 93.4452 181.25 93.08C181.747 92.7692 182.615 92.7262 182.882 92.7119C183.24 92.6933 184.315 92.2293 184.342 92.679C184.37 93.1287 182.607 93.5283 182.254 93.6872C181.901 93.8448 183.455 94.6024 183.63 94.9633C183.805 95.3242 182.403 97.822 181.397 97.1789C180.391 96.5359 179.74 95.1867 179.541 95.108C179.341 95.0306 178.79 94.6697 178.79 94.6697L179.65 92.7907V92.7921Z" fill="#EEA886"/>
<path d="M183.431 94.759C183.431 94.759 186.381 96.9302 186.455 97.2395C186.53 97.5489 186.404 97.7007 186.12 97.5088C185.835 97.3169 183.208 95.4923 183.208 95.4923C183.208 95.4923 186.267 98.6488 186.384 98.888C186.453 99.0283 186.223 99.3377 186.061 99.2489C185.898 99.1601 182.689 96.2055 182.689 96.2055C182.689 96.2055 185.54 99.1572 185.577 99.3864C185.61 99.5869 185.329 99.8189 185.102 99.6141C184.875 99.4093 182.074 96.8185 182.074 96.8185C182.074 96.8185 184.014 99.0971 183.931 99.3105C183.88 99.4408 183.695 99.7172 183.213 99.1143C182.73 98.5113 181.444 97.2066 181.444 97.2066L183.43 94.7561L183.431 94.759Z" fill="#EEA886"/>
<path d="M161.148 71.9695C161.148 71.9695 161.88 72.1284 163.1 73.4332C164.32 74.7379 164.93 76.8833 165.25 77.5793C165.57 78.2754 169.61 84.7117 169.842 84.8577C170.075 85.0024 173.438 87.3068 175.298 89.077C177.159 90.8457 180.619 92.9582 180.619 92.9582L178.842 95.5892C178.842 95.5892 169.129 90.2213 167.589 88.1776C165.944 85.9935 160.075 79.583 160.075 79.583C160.075 79.583 156.343 73.7196 161.145 71.968L161.148 71.9695Z" fill="#D6D6D6"/>
<path opacity="0.3" d="M217.225 159.707C217.225 159.707 278.478 98.0642 216.886 28.8979C227.28 30.6653 237.401 34.9289 246.327 41.8092C275.405 64.2215 280.766 105.91 258.301 134.922C247.76 148.536 232.963 156.94 217.222 159.709L217.225 159.707Z" fill="#869AC2"/>
<path d="M147.872 156.748L104.78 196.351H72.5L133.058 140.696L134.844 142.633L146.086 154.818L147.872 156.748Z" fill="url(#paint4_linear_306_1045)"/>
<path d="M146.089 154.816L151.143 150.171L139.896 137.989L134.842 142.634L146.089 154.816Z" fill="#2D3038"/>
<path opacity="0.1" d="M252.93 141.507C279.039 115.456 279.039 73.2198 252.93 47.169C226.82 21.1182 184.488 21.1182 158.378 47.169C132.268 73.2198 132.268 115.456 158.378 141.507C184.488 167.558 226.82 167.558 252.93 141.507Z" fill="#B8B8B8"/>
<path d="M205.655 14.9155C161.692 14.9155 126.053 50.474 126.053 94.3392C126.053 138.204 161.692 173.761 205.655 173.761C249.618 173.761 285.257 138.203 285.257 94.3392C285.257 50.4754 249.618 14.9155 205.655 14.9155ZM205.655 160.486C169.04 160.486 139.357 130.872 139.357 94.3377C139.357 57.8039 169.04 28.1891 205.655 28.1891C242.27 28.1891 271.954 57.8039 271.954 94.3377C271.954 130.872 242.27 160.486 205.655 160.486Z" fill="#3F444F"/>
<path d="M98.6752 65.5346C98.6752 65.5346 102.221 72.9949 99.7805 73.4403C96.4287 74.0533 95.0723 67.8734 95.0723 67.8734L98.6752 65.5332V65.5346Z" fill="#16202E"/>
<path d="M111.782 149.435C111.782 149.435 114.035 152.463 113.727 152.943C113.418 153.423 111.047 153.491 109.604 152.943C108.162 152.394 108.127 148.847 107.474 147.322C107.201 146.683 107.786 144.799 108.608 144.663C109.431 144.527 110.325 144.928 110.325 144.928C110.325 144.928 109.472 147.075 111.782 149.435Z" fill="#1D3B54"/>
<path d="M110.339 144.902C110.339 144.902 110.813 146.191 110.986 147.423C111.13 148.444 112.593 150.611 112.524 150.886C112.455 151.161 110.6 151.409 109.844 150.701C109.089 149.994 108.602 147.938 108.436 146.71C108.281 145.564 108.085 144.998 108.085 144.998C108.085 144.998 109.618 144.149 110.339 144.902Z" fill="#EEA886"/>
<path d="M107.414 147.055V150.225H107.826V147.776L107.414 147.055Z" fill="#1D3B54"/>
<path d="M92.1634 149.486C92.1634 149.486 94.3367 152.463 94.0266 152.943C93.718 153.423 91.3467 153.491 89.9041 152.943C88.4615 152.394 88.427 148.847 87.7739 147.321C87.5012 146.683 88.0854 144.799 88.9079 144.663C89.7304 144.527 90.6936 144.957 90.6936 144.957C90.6936 144.957 89.8524 147.125 92.162 149.486H92.1634Z" fill="#1D3B54"/>
<path d="M90.6954 144.957C90.6954 144.957 90.8677 146.362 91.1418 147.356C91.416 148.35 92.8931 150.611 92.8256 150.886C92.7567 151.161 90.9021 151.409 90.1456 150.701C89.3906 149.994 88.8064 147.949 88.7375 146.71C88.6686 145.471 88.9097 144.663 88.9097 144.663C88.9097 144.663 89.9748 144.203 90.6954 144.957Z" fill="#EEA886"/>
<path d="M87.7144 147.055V150.225H88.1263V147.776L87.7144 147.055Z" fill="#1D3B54"/>
<path d="M107.007 103.471C107.007 103.471 107.43 103.875 107.577 104.253C107.693 104.552 108.081 104.947 108.264 105.174C108.448 105.4 109.133 106.457 109.23 106.75C109.271 106.871 109.217 107.701 109.325 107.938C109.433 108.174 109.713 108.625 109.502 108.71C109.291 108.794 108.927 108.456 108.927 108.456C108.927 108.456 109.012 108.677 108.851 108.807C108.537 109.061 108.303 108.959 108.303 108.959C108.303 108.959 108.24 109.238 108.082 109.313C107.733 109.474 107.509 109.37 107.509 109.37C107.509 109.37 107.386 109.547 107.129 109.603C106.8 109.675 106.582 109.426 106.582 109.426C106.582 109.426 106.192 109.608 106.016 109.443C105.841 109.278 105.804 109.068 105.704 108.904C105.604 108.741 105.191 107.153 105.403 105.888C105.616 104.624 104.625 103.674 104.625 103.674L107.007 103.471Z" fill="#EEA886"/>
<path d="M110.506 113.197H105.032C104.476 113.197 104.024 112.746 104.024 112.19V108.746C104.024 108.191 104.476 107.739 105.032 107.739H110.506C111.062 107.739 111.514 108.19 111.514 108.746V112.19C111.514 112.744 111.062 113.197 110.506 113.197ZM105.032 108.416C104.849 108.416 104.7 108.565 104.7 108.747V112.191C104.7 112.373 104.849 112.522 105.032 112.522H110.506C110.689 112.522 110.838 112.373 110.838 112.191V108.747C110.838 108.565 110.689 108.416 110.506 108.416H105.032Z" fill="white"/>
<path d="M118.04 111.719H97.4985V126.402H118.04V111.719Z" fill="white"/>
<path d="M99.0451 72.4279C99.0451 72.4279 97.9929 72.4423 97.5436 75.5816C97.0943 78.721 97.9455 80.0329 98.046 81.339C98.1479 82.6452 99.6838 91.0808 99.7255 91.4546C99.7671 91.8284 99.9738 96.3169 100.572 97.5085C101.171 98.7001 105.573 105.453 105.632 105.789C105.691 106.126 107.77 104.614 107.77 104.614C107.77 104.614 104.312 97.3911 104.111 96.5661C103.91 95.7426 102.519 91.5334 102.738 90.2487C102.958 88.964 102.123 81.8776 102.203 81.0884C102.283 80.2993 101.062 72.9063 99.0451 72.4265V72.4279Z" fill="#EEA886"/>
<path d="M99.0442 72.428C99.0442 72.428 97.9921 72.4423 97.5428 75.5817C97.0935 78.721 97.4997 79.851 97.771 81.2116C98.0279 82.4963 98.9007 90.3576 98.9423 90.73C98.9839 91.1023 100.029 95.8415 100.572 97.5085C100.985 98.776 104.832 105.436 104.968 105.749C105.106 106.066 108.02 104.198 108.02 104.198C108.02 104.198 104.182 96.728 103.982 95.903C103.781 95.0795 103.132 92.2266 103.111 90.9233C103.086 89.3923 102.122 81.8776 102.202 81.0899C102.283 80.3007 101.889 73.0009 99.0442 72.428Z" fill="#285173"/>
<path d="M108.944 108.293C108.944 108.293 108.576 106.866 108.117 106.654C107.657 106.441 107.761 106.964 107.761 106.964C107.761 106.964 107.668 106.447 107.24 106.475C106.812 106.504 106.967 107.108 106.967 107.108C106.967 107.108 106.789 106.734 106.383 106.916C105.977 107.098 106.221 107.572 106.221 107.572C106.221 107.572 105.672 107.181 105.54 107.714C105.318 108.612 105.991 109.454 105.991 109.454C105.991 109.454 106.201 109.653 106.578 109.451C106.578 109.451 107.022 109.945 107.52 109.406C107.52 109.406 108.245 109.596 108.316 108.992C108.316 108.992 109.168 109.112 108.945 108.294L108.944 108.293Z" fill="#DB9C7C"/>
<path d="M101.551 95.6696C101.551 95.6696 103.484 104.647 103.929 106.907C104.373 109.167 105.617 120.113 105.751 121.975C105.884 123.837 107.769 130.85 107.68 131.514C107.591 132.179 110.581 145.371 110.581 145.371C110.581 145.371 107.505 146.206 106.987 145.643C106.548 145.165 102.126 133.103 102.126 129.779C102.126 125.184 98.6527 119.335 98.2135 118.307C94.1311 108.758 95.0039 105.691 94.4713 105.071C93.9388 104.45 93.8914 105.454 93.5814 106.828C93.2699 108.201 92.6053 120.078 92.2048 121.587C91.8043 123.093 92.1158 128.19 91.8933 130.76C91.6708 133.331 91.4153 144.847 91.4153 144.847C91.4153 144.847 89.1861 145.358 88.1281 144.865C87.8224 144.724 87.0516 132.036 87.0085 128.978C86.964 125.92 86.9166 121.703 86.8305 120.381C86.008 107.709 83.9855 105.898 87.1707 96.9299C93.1349 80.1375 101.554 95.6696 101.554 95.6696H101.551Z" fill="#1F3F59"/>
<path d="M95.9572 71.2964C95.9572 71.2964 97.9869 72.2531 98.6917 72.3934C99.3965 72.5338 102.131 76.0785 102.61 77.3717C103.09 78.6664 102.61 80.6071 101.624 82.8857C100.638 85.1643 101.568 85.9234 101.116 88.202C100.665 90.4806 100.271 95.3042 100.355 96.5703C100.44 97.8363 88.9523 98.0755 86.3298 95.7683C86.3298 95.7683 88.9652 91.8297 89.304 91.2669C89.6428 90.704 89.36 87.6377 89.0499 86.85C88.7399 86.0623 86.6757 79.3639 86.6757 79.3639C86.6757 79.3639 84.9876 74.2195 86.5121 73.0379C87.837 72.011 91.4485 71.6444 92.0973 71.4196C92.7462 71.1947 94.6323 71.0959 95.9572 71.2935V71.2964Z" fill="#EDDAD3"/>
<path d="M96.6059 75.8123L97.8389 74.3715L96.7681 70.5776C96.7681 70.5776 96.4078 72.6901 96.6059 75.8123Z" fill="#D6C5BE"/>
<path d="M96.606 73.8845V75.8123L94.1787 74.002L96.606 73.8845Z" fill="#EEA886"/>
<path d="M96.6061 75.8122L95.5984 74.5662L92.3385 71.1633L91.1055 72.2461L96.6061 75.8122Z" fill="#D6C5BE"/>
<path d="M91.7316 71.5142C91.7316 71.5142 94.581 75.8279 94.7173 77.727C94.8537 79.6261 93.658 93.8291 92.702 98.395C91.7446 102.961 84.8301 97.8808 84.8301 97.8808C84.8301 97.8808 89.4766 90.3776 87.6923 84.3681C85.9081 78.36 85.2607 75.9583 85.2607 75.9583C85.2607 75.9583 85.8751 72.6127 88.0498 72.1415C89.956 71.729 91.7331 71.5142 91.7331 71.5142H91.7316Z" fill="#285173"/>
<path d="M102.799 77.9489C102.799 77.9489 103.313 79.7635 101.31 83.7737C101.31 83.7737 101.342 88.9066 101.398 90.5093C101.454 92.1133 102.591 97.8779 102.591 97.8779L99.8548 99.3316C99.4557 99.565 98.9619 99.2413 99.0179 98.783C99.5792 94.1685 101.402 76.6657 97.4619 71.9609L99.0438 72.4264C99.0438 72.4264 101.853 74.7193 102.797 77.9475L102.799 77.9489Z" fill="#285173"/>
<path d="M97.8394 74.3698L99.394 74.798L96.7686 70.5759L97.8394 74.3698Z" fill="#FAE6DE"/>
<path d="M101.782 82.7671C101.782 82.7671 101.877 89.1747 101.485 92.2639L101.311 83.7725L101.782 82.7656V82.7671Z" fill="#1D3B54"/>
<path d="M96.9877 69.1513C96.9877 69.1513 96.5901 72.8407 96.6059 74.2442C96.6059 74.2442 95.2566 75.6549 92.146 71.6204C92.146 71.6204 93.158 69.7314 92.3958 67.1592C91.6335 64.5855 96.9863 69.1513 96.9863 69.1513H96.9877Z" fill="#EEA886"/>
<path d="M90.7399 62.1635C90.7399 62.1635 90.2734 61.6049 90.0997 62.1678C89.926 62.7306 90.4959 64.4049 90.5576 64.6469C90.5576 64.6469 90.8404 65.5864 90.9538 65.4661C91.0672 65.3458 90.7399 62.1649 90.7399 62.1649V62.1635Z" fill="#EEA987"/>
<path d="M98.8901 62.2336C98.8901 62.2336 99.3566 61.675 99.5303 62.2378C99.704 62.8007 99.1341 64.4749 99.0724 64.717C99.0724 64.717 98.7896 65.6565 98.6762 65.5362C98.5628 65.4159 98.8901 62.235 98.8901 62.235V62.2336Z" fill="#EEA987"/>
<path d="M95.5472 56.8128C95.5472 56.8128 99.8291 57.4702 99.2033 64.2C98.576 70.9299 94.7965 70.3957 94.5439 70.39C94.2912 70.3842 90.7529 70.5303 90.4457 62.3181C90.4457 62.3181 90.3036 56.2456 95.5472 56.8128Z" fill="#EEA987"/>
<path d="M91.2681 61.9167C91.2681 61.9167 96.0209 63.3274 98.296 62.8762C98.296 62.8762 98.441 63.7141 98.7683 63.7656C99.0956 63.8172 99.2621 62.1644 99.2621 62.1644C99.2621 62.1644 99.374 56.692 94.4117 56.6405C89.4494 56.5889 90.4571 62.5683 90.4571 62.5683L90.5246 63.5909C90.5246 63.5909 91.2351 63.8716 91.2681 61.9181V61.9167Z" fill="#16202E"/>
<path d="M92.8599 69.7483C92.8599 69.7483 94.3599 71.1662 96.6652 69.8643C96.6652 69.8643 95.9834 71 94.6915 70.9714C93.3982 70.9427 92.8599 69.7483 92.8599 69.7483Z" fill="#A77860"/>
<path d="M95.5985 74.5664L94.1788 76.424L91.2778 71.5731L92.4133 70.9358L95.5985 74.5664Z" fill="#FAE6DE"/>
<path d="M83.9805 103.011C83.9805 103.011 83.7781 103.918 84.236 104.634C84.6939 105.35 84.7097 107.12 84.6121 107.609C84.513 108.097 84.0078 111.844 83.7695 112.1C83.5312 112.356 83.1896 111.735 83.2556 111.375C83.3216 111.014 83.6231 107.863 83.6231 107.863C83.6231 107.863 83.0532 111.593 82.7963 111.786C82.5393 111.981 82.0943 111.862 82.0297 111.316C82.0297 111.316 81.2288 111.506 81.3249 110.58L81.5087 108.734C81.5087 108.734 81.2474 109.669 80.9733 108.958C80.8283 108.58 81.2776 106.527 81.2388 106.09C81.2001 105.654 81.5733 104.15 81.5733 104.15L83.9819 103.01L83.9805 103.011Z" fill="#EEA886"/>
<path d="M88.3441 72.3149C87.5402 72.0557 85.2062 72.6529 84.8072 75.0647C84.4081 77.4765 84.2488 80.1547 83.877 81.4537C83.5052 82.7527 82.3899 88.7966 82.3138 89.7203C82.1818 91.3101 81.9018 92.9499 81.7755 95.5021C81.6492 98.0514 80.686 104.289 80.686 104.289L84.2933 104.558C84.2933 104.558 85.3153 96.7037 85.4689 94.6356C85.5938 92.9571 85.8421 91.4476 86.8885 86.8445C86.8885 86.8445 88.6355 82.1713 89.0072 81.163C89.379 80.1562 91.9599 73.4822 88.3455 72.3149H88.3441Z" fill="#285173"/>
</g>
<defs>
<linearGradient id="paint0_linear_306_1045" x1="227.359" y1="19.2833" x2="227.359" y2="73.625" gradientUnits="userSpaceOnUse">
<stop stop-color="#CACDDB"/>
<stop offset="1" stop-color="white"/>
</linearGradient>
<linearGradient id="paint1_linear_306_1045" x1="227.359" y1="42.5797" x2="227.359" y2="88.0289" gradientUnits="userSpaceOnUse">
<stop stop-color="#CACDDB"/>
<stop offset="1" stop-color="white"/>
</linearGradient>
<linearGradient id="paint2_linear_306_1045" x1="53.2344" y1="153.612" x2="401.485" y2="153.612" gradientUnits="userSpaceOnUse">
<stop stop-color="#87B7CF"/>
<stop offset="1" stop-color="#C0C8D4"/>
</linearGradient>
<linearGradient id="paint3_linear_306_1045" x1="183.576" y1="94.5879" x2="242.905" y2="94.5879" gradientUnits="userSpaceOnUse">
<stop stop-color="#FF9F55"/>
<stop offset="1" stop-color="#FFD255"/>
</linearGradient>
<linearGradient id="paint4_linear_306_1045" x1="72.5" y1="168.524" x2="147.872" y2="168.524" gradientUnits="userSpaceOnUse">
<stop stop-color="#4BABF9"/>
<stop offset="1" stop-color="#6487D4"/>
</linearGradient>
</defs>
</svg>
