<svg width="58" height="58" viewBox="0 0 58 58" fill="none" xmlns="http://www.w3.org/2000/svg">
<path fill-rule="evenodd" clip-rule="evenodd" d="M10.5357 22.3088L27.445 7.81748C27.8804 7.45168 28.4309 7.25106 28.9997 7.25106C29.5685 7.25106 30.1189 7.45167 30.5543 7.81747L30.5596 7.82197L47.4637 22.3088L47.4763 22.3196C47.7448 22.5465 47.9605 22.8292 48.1085 23.1481C48.2565 23.467 48.3331 23.8143 48.333 24.1659V24.1665V45.9165C48.333 46.5574 48.0784 47.1721 47.6252 47.6253C47.172 48.0785 46.5573 48.3331 45.9163 48.3331H38.6663V31.4166C38.6663 30.1347 38.1571 28.9053 37.2507 27.9989C36.3443 27.0925 35.1149 26.5833 33.833 26.5833H24.1663C22.8845 26.5833 21.6551 27.0925 20.7487 27.9989C19.8422 28.9053 19.333 30.1347 19.333 31.4166V48.3331H12.083C11.4421 48.3331 10.8274 48.0785 10.3742 47.6253C9.92095 47.1721 9.66634 46.5574 9.66634 45.9165V24.1665L9.66634 24.1659C9.66626 23.8143 9.74287 23.467 9.89083 23.1481C10.0388 22.8292 10.2546 22.5465 10.523 22.3196L10.5357 22.3088ZM21.7255 53.1665C21.7336 53.1665 21.7416 53.1666 21.7497 53.1666C21.7577 53.1666 21.7658 53.1665 21.7738 53.1665H36.2255C36.2336 53.1665 36.2416 53.1666 36.2497 53.1666C36.2577 53.1666 36.2658 53.1665 36.2738 53.1665H45.9163C47.8392 53.1665 49.6832 52.4026 51.0429 51.043C52.4025 49.6834 53.1663 47.8393 53.1663 45.9165V24.167V24.1665C53.1665 23.112 52.9367 22.0703 52.4929 21.1138C52.0502 20.1598 51.4054 19.3136 50.6031 18.6339L50.5962 18.628L33.6922 4.14122L33.6796 4.13046C32.371 3.02451 30.713 2.41772 28.9997 2.41772C27.2863 2.41772 25.6284 3.02451 24.3198 4.13046L24.3072 4.14122L7.39608 18.634C6.59387 19.3138 5.94909 20.1599 5.50649 21.1138C5.06267 22.0703 4.83284 23.112 4.83301 24.1665V24.167V45.9165C4.83301 47.8393 5.59684 49.6834 6.95648 51.043C8.31612 52.4026 10.1602 53.1665 12.083 53.1665H21.7255ZM33.833 48.3331H24.1663L24.1663 31.4166L33.833 31.4166V48.3331Z" fill="#0266AF"/>
</svg>
