<svg width="40" height="40" viewBox="0 0 40 40" fill="none" xmlns="http://www.w3.org/2000/svg">
<path d="M25 35V21.6667C25 21.2246 24.8244 20.8007 24.5118 20.4882C24.1993 20.1756 23.7754 20 23.3333 20H16.6667C16.2246 20 15.8007 20.1756 15.4882 20.4882C15.1756 20.8007 15 21.2246 15 21.6667V35" stroke="#707D91" stroke-width="4.33" stroke-linecap="round" stroke-linejoin="round"/>
<path d="M5 16.6665C4.99988 16.1816 5.10556 15.7025 5.30965 15.2626C5.51374 14.8228 5.81133 14.4328 6.18167 14.1198L17.8483 4.12145C18.45 3.61297 19.2123 3.33398 20 3.33398C20.7877 3.33398 21.55 3.61297 22.1517 4.12145L33.8183 14.1198C34.1887 14.4328 34.4863 14.8228 34.6904 15.2626C34.8944 15.7025 35.0001 16.1816 35 16.6665V31.6665C35 32.5505 34.6488 33.3984 34.0237 34.0235C33.3986 34.6486 32.5507 34.9998 31.6667 34.9998H8.33333C7.44928 34.9998 6.60143 34.6486 5.97631 34.0235C5.35119 33.3984 5 32.5505 5 31.6665V16.6665Z" stroke="#707D91" stroke-width="4.33" stroke-linecap="round" stroke-linejoin="round"/>
</svg>
