<svg width="78" height="78" viewBox="0 0 78 78" fill="none" xmlns="http://www.w3.org/2000/svg">
<path d="M38.9999 32.5C37.276 32.5 35.6227 33.1849 34.4037 34.4038C33.1847 35.6228 32.4999 37.2761 32.4999 39C32.4999 42.315 32.1749 47.1575 31.6549 52" stroke="#0266AF" stroke-width="3.95833" stroke-linecap="round" stroke-linejoin="round"/>
<path d="M45.5 42.64C45.5 50.375 45.5 63.375 42.25 71.5" stroke="#0266AF" stroke-width="3.95833" stroke-linecap="round" stroke-linejoin="round"/>
<path d="M56.1926 68.315C56.5826 66.365 57.5901 60.84 57.8176 58.5" stroke="#0266AF" stroke-width="3.95833" stroke-linecap="round" stroke-linejoin="round"/>
<path d="M6.5 39C6.5 32.1788 8.64621 25.5305 12.6346 19.9969C16.623 14.4633 22.2515 10.3248 28.7226 8.16779C35.1937 6.01075 42.1795 5.94446 48.6904 7.97831C55.2014 10.0122 60.9073 14.0431 65 19.5" stroke="#0266AF" stroke-width="3.95833" stroke-linecap="round" stroke-linejoin="round"/>
<path d="M6.5 52H6.53109" stroke="#0266AF" stroke-width="3.95833" stroke-linecap="round" stroke-linejoin="round"/>
<path d="M70.8501 52C71.5001 45.5 71.2758 34.5995 70.8501 32.5" stroke="#0266AF" stroke-width="3.95833" stroke-linecap="round" stroke-linejoin="round"/>
<path d="M16.25 63.375C17.875 58.5 19.5 48.75 19.5 39C19.4967 36.7863 19.8704 34.5883 20.605 32.5" stroke="#0266AF" stroke-width="3.95833" stroke-linecap="round" stroke-linejoin="round"/>
<path d="M28.1127 71.5C28.7952 69.355 29.5752 67.21 29.9652 65" stroke="#0266AF" stroke-width="3.95833" stroke-linecap="round" stroke-linejoin="round"/>
<path d="M29.25 22.1C32.2153 20.388 35.5791 19.4869 39.0031 19.4875C42.4272 19.488 45.7907 20.3902 48.7554 22.1031C51.7202 23.8161 54.1816 26.2795 55.8922 29.2456C57.6028 32.2117 58.5022 35.576 58.5 39V45.5" stroke="#0266AF" stroke-width="3.95833" stroke-linecap="round" stroke-linejoin="round"/>
</svg>
