<svg width="214" height="214" viewBox="0 0 214 214" fill="none" xmlns="http://www.w3.org/2000/svg">
<circle cx="106.999" cy="106.681" r="75.2886" transform="rotate(135 106.999 106.681)" fill="url(#paint0_linear_69_585)" fill-opacity="0.2"/>
<g clip-path="url(#clip0_69_585)">
<path d="M135.537 76.9426H156.354C158.801 76.9426 161.58 81.0173 161.607 83.3579V145.765C163.113 145.688 165.155 145.567 165.716 147.297C166.066 148.386 166.085 155.929 165.805 157.15C165.486 158.53 164.323 159.043 162.988 159H52.0543C50.206 159.012 49.3578 158.281 49.1476 156.462C48.9609 154.852 48.9103 149.024 49.2371 147.597C49.7002 145.579 51.7663 145.668 53.4356 145.765L53.4667 83.0041C53.5406 80.8579 56.5912 76.9426 58.6846 76.9426H79.5017V47.1988C79.5017 46.7089 81.3383 44.2594 81.9336 43.7967C83.3811 42.6692 84.8986 42.4553 86.6846 42.3231C100.358 41.3006 115.303 43.1202 129.109 42.3426C131.218 41.9382 135.533 45.352 135.533 47.1988V76.9426H135.537ZM131.257 145.762V48.754C131.257 48.2836 129.903 46.7128 129.136 46.9849L84.9492 47.1949C84.6768 47.3271 83.7858 48.5829 83.7858 48.754V145.762H92.3461V112.907C92.3461 111.78 94.3422 111.255 95.2644 111.158C101.272 110.528 112.852 110.711 119.015 111.138C120.054 111.212 122.696 111.449 122.696 112.903V145.758H131.257V145.762ZM79.5056 145.762V81.8027L78.922 81.2195H59.4667C59.3694 81.2195 58.1048 82.4831 58.1048 82.5803V94.0501H71.529C72.2877 94.0501 73.2566 95.8308 73.1982 96.519C73.1554 97.0206 71.778 98.7158 71.529 98.7158H58.1048V111.546C58.3889 111.651 58.5718 111.158 58.6885 111.158H70.7508C73.6729 111.158 73.6729 115.823 71.529 115.823H58.1048V128.654H71.9181C73.4473 128.654 73.4473 132.931 71.9181 132.931H58.1048V145.762H79.5056ZM156.938 94.0501V82.5803C156.938 82.4831 155.673 81.2195 155.576 81.2195H136.12L135.537 81.8027V145.762H156.938V132.931H143.124C141.692 132.931 141.323 128.654 143.513 128.654H156.938V115.823H143.513C141.369 115.823 141.369 111.158 144.292 111.158H156.354C156.471 111.158 156.653 111.651 156.938 111.546V98.7158H143.513C143.264 98.7158 141.887 97.0206 141.844 96.519C141.786 95.8308 142.755 94.0501 143.513 94.0501H156.938ZM118.416 115.823H96.6263C96.5212 116.107 97.0154 116.29 97.0154 116.407V145.762H118.027V116.407C118.027 116.325 118.611 115.963 118.416 115.823ZM161.218 150.427H53.8247V154.315H161.218V150.427Z" fill="#707D91" fill-opacity="0.5"/>
<path d="M111.802 53.2251V63.3341H121.918V71.8879H111.802V81.9969H103.241V71.8879H93.1245V63.3341H103.241V53.2251H111.802Z" fill="#707D91" fill-opacity="0.5"/>
</g>
<defs>
<linearGradient id="paint0_linear_69_585" x1="100.403" y1="-98.8136" x2="89.6701" y2="221.038" gradientUnits="userSpaceOnUse">
<stop stop-color="#707D91"/>
<stop offset="1" stop-color="#707D91" stop-opacity="0"/>
</linearGradient>
<clipPath id="clip0_69_585">
<rect width="117" height="117" fill="white" transform="translate(49 42)"/>
</clipPath>
</defs>
</svg>
