<svg width="58" height="59" viewBox="0 0 58 59" fill="none" xmlns="http://www.w3.org/2000/svg">
<path d="M25.3799 41.413H28.3405C29.5406 41.4129 30.6977 40.9656 31.5858 40.1583L43.4765 29.3486" stroke="#707D91" stroke-width="4.10313" stroke-linecap="round" stroke-linejoin="round"/>
<path d="M28.999 32.9678L38.0473 34.1742" stroke="#707D91" stroke-width="4.10313" stroke-linecap="round" stroke-linejoin="round"/>
<path d="M10.9033 19.6971L36.4316 7.48791C36.721 7.3494 37.0351 7.27 37.3555 7.25434C37.676 7.23868 37.9964 7.28709 38.2979 7.39674C38.5994 7.50638 38.876 7.67505 39.1116 7.89289C39.3471 8.11073 39.5368 8.37335 39.6697 8.6654L44.6836 19.6971" stroke="#707D91" stroke-width="4.10313" stroke-linecap="round" stroke-linejoin="round"/>
<path d="M14.5225 24.523V19.6973" stroke="#707D91" stroke-width="4.10313" stroke-linecap="round" stroke-linejoin="round"/>
<path d="M14.5225 34.1743V36.5872" stroke="#707D91" stroke-width="4.10313" stroke-linecap="round" stroke-linejoin="round"/>
<path d="M14.5225 46.2388V51.0645" stroke="#707D91" stroke-width="4.10313" stroke-linecap="round" stroke-linejoin="round"/>
<path d="M48.3029 19.6973H9.69685C7.03166 19.6973 4.87109 21.8578 4.87109 24.523V46.2389C4.87109 48.9041 7.03166 51.0647 9.69685 51.0647H48.3029C50.9681 51.0647 53.1287 48.9041 53.1287 46.2389V24.523C53.1287 21.8578 50.9681 19.6973 48.3029 19.6973Z" stroke="#707D91" stroke-width="4.10313" stroke-linecap="round" stroke-linejoin="round"/>
</svg>
