<svg width="188" height="202" viewBox="0 0 188 202" fill="none" xmlns="http://www.w3.org/2000/svg">
<path d="M1.8508 170V148.705H10.3769C11.9435 148.705 13.2502 148.938 14.2969 149.402C15.3436 149.867 16.1303 150.511 16.6572 151.336C17.184 152.154 17.4474 153.097 17.4474 154.164C17.4474 154.996 17.281 155.727 16.9483 156.358C16.6156 156.982 16.1581 157.495 15.5758 157.897C15.0005 158.292 14.3419 158.573 13.6002 158.739V158.947C14.4113 158.982 15.1703 159.211 15.8773 159.633C16.5913 160.056 17.1701 160.649 17.6138 161.411C18.0574 162.167 18.2792 163.068 18.2792 164.115C18.2792 165.245 17.9985 166.253 17.437 167.141C16.8824 168.021 16.061 168.718 14.9727 169.231C13.8844 169.744 12.5431 170 10.9488 170H1.8508ZM6.35301 166.319H10.0234C11.2781 166.319 12.1931 166.08 12.7684 165.602C13.3438 165.117 13.6314 164.472 13.6314 163.668C13.6314 163.079 13.4893 162.559 13.2051 162.108C12.9209 161.658 12.5154 161.304 11.9886 161.048C11.4687 160.791 10.8483 160.663 10.1274 160.663H6.35301V166.319ZM6.35301 157.616H9.69068C10.3076 157.616 10.8552 157.509 11.3335 157.294C11.8188 157.072 12.2 156.76 12.4773 156.358C12.7615 155.956 12.9036 155.474 12.9036 154.913C12.9036 154.143 12.6298 153.523 12.0822 153.052C11.5415 152.58 10.772 152.345 9.77386 152.345H6.35301V157.616ZM25.711 148.705V170H21.2088V148.705H25.711ZM48.9837 159.353C48.9837 161.675 48.5435 163.65 47.6632 165.279C46.7898 166.908 45.5975 168.153 44.0864 169.012C42.5822 169.865 40.8908 170.291 39.0123 170.291C37.1199 170.291 35.4216 169.861 33.9174 169.002C32.4132 168.142 31.2244 166.898 30.351 165.269C29.4776 163.64 29.0409 161.668 29.0409 159.353C29.0409 157.031 29.4776 155.055 30.351 153.426C31.2244 151.797 32.4132 150.556 33.9174 149.704C35.4216 148.844 37.1199 148.414 39.0123 148.414C40.8908 148.414 42.5822 148.844 44.0864 149.704C45.5975 150.556 46.7898 151.797 47.6632 153.426C48.5435 155.055 48.9837 157.031 48.9837 159.353ZM44.4191 159.353C44.4191 157.849 44.1938 156.58 43.7432 155.547C43.2996 154.514 42.6723 153.731 41.8613 153.197C41.0502 152.664 40.1006 152.397 39.0123 152.397C37.924 152.397 36.9743 152.664 36.1633 153.197C35.3523 153.731 34.7215 154.514 34.2709 155.547C33.8273 156.58 33.6055 157.849 33.6055 159.353C33.6055 160.857 33.8273 162.125 34.2709 163.158C34.7215 164.191 35.3523 164.974 36.1633 165.508C36.9743 166.042 37.924 166.309 39.0123 166.309C40.1006 166.309 41.0502 166.042 41.8613 165.508C42.6723 164.974 43.2996 164.191 43.7432 163.158C44.1938 162.125 44.4191 160.857 44.4191 159.353ZM52.3188 148.705H57.8712L63.7355 163.013H63.985L69.8493 148.705H75.4017V170H71.0347V156.14H70.8579L65.3471 169.896H62.3734L56.8626 156.088H56.6858V170H52.3188V148.705ZM79.1111 170V148.705H93.46V152.417H83.6133V157.492H92.7217V161.204H83.6133V166.288H93.5016V170H79.1111ZM84.7259 146.647L86.9302 141.916H91.0269L87.8556 146.647H84.7259ZM96.2284 152.417V148.705H113.717V152.417H107.198V170H102.748V152.417H96.2284ZM116.598 170V148.705H124.999C126.607 148.705 127.98 148.993 129.116 149.568C130.26 150.137 131.13 150.944 131.726 151.991C132.329 153.031 132.631 154.254 132.631 155.662C132.631 157.076 132.326 158.292 131.716 159.311C131.106 160.323 130.222 161.1 129.064 161.64C127.914 162.181 126.52 162.451 124.885 162.451H119.259V158.833H124.157C125.016 158.833 125.73 158.715 126.299 158.479C126.867 158.244 127.29 157.89 127.567 157.419C127.851 156.947 127.993 156.362 127.993 155.662C127.993 154.954 127.851 154.358 127.567 153.873C127.29 153.388 126.864 153.021 126.288 152.771C125.72 152.514 125.002 152.386 124.136 152.386H121.1V170H116.598ZM128.097 160.309L133.39 170H128.42L123.242 160.309H128.097ZM140.315 148.705V170H135.813V148.705H140.315ZM162.808 156.161H158.253C158.17 155.571 158 155.048 157.744 154.591C157.487 154.126 157.158 153.731 156.756 153.405C156.354 153.079 155.89 152.83 155.363 152.657C154.843 152.483 154.278 152.397 153.668 152.397C152.566 152.397 151.606 152.67 150.788 153.218C149.97 153.759 149.336 154.549 148.885 155.589C148.434 156.622 148.209 157.876 148.209 159.353C148.209 160.871 148.434 162.146 148.885 163.179C149.343 164.212 149.98 164.992 150.798 165.519C151.616 166.045 152.562 166.309 153.637 166.309C154.24 166.309 154.798 166.229 155.311 166.07C155.831 165.91 156.292 165.678 156.694 165.373C157.096 165.061 157.429 164.683 157.692 164.24C157.962 163.796 158.149 163.29 158.253 162.722L162.808 162.742C162.69 163.72 162.395 164.662 161.924 165.571C161.459 166.472 160.832 167.279 160.042 167.993C159.259 168.7 158.323 169.262 157.234 169.678C156.153 170.087 154.93 170.291 153.564 170.291C151.665 170.291 149.966 169.861 148.469 169.002C146.979 168.142 145.8 166.898 144.934 165.269C144.074 163.64 143.645 161.668 143.645 159.353C143.645 157.031 144.081 155.055 144.955 153.426C145.828 151.797 147.013 150.556 148.511 149.704C150.008 148.844 151.692 148.414 153.564 148.414C154.798 148.414 155.942 148.588 156.995 148.934C158.056 149.281 158.995 149.787 159.813 150.452C160.631 151.111 161.296 151.918 161.809 152.875C162.329 153.832 162.662 154.927 162.808 156.161ZM185.605 159.353C185.605 161.675 185.164 163.65 184.284 165.279C183.411 166.908 182.218 168.153 180.707 169.012C179.203 169.865 177.512 170.291 175.633 170.291C173.741 170.291 172.043 169.861 170.538 169.002C169.034 168.142 167.845 166.898 166.972 165.269C166.098 163.64 165.662 161.668 165.662 159.353C165.662 157.031 166.098 155.055 166.972 153.426C167.845 151.797 169.034 150.556 170.538 149.704C172.043 148.844 173.741 148.414 175.633 148.414C177.512 148.414 179.203 148.844 180.707 149.704C182.218 150.556 183.411 151.797 184.284 153.426C185.164 155.055 185.605 157.031 185.605 159.353ZM181.04 159.353C181.04 157.849 180.815 156.58 180.364 155.547C179.921 154.514 179.293 153.731 178.482 153.197C177.671 152.664 176.722 152.397 175.633 152.397C174.545 152.397 173.595 152.664 172.784 153.197C171.973 153.731 171.342 154.514 170.892 155.547C170.448 156.58 170.226 157.849 170.226 159.353C170.226 160.857 170.448 162.125 170.892 163.158C171.342 164.191 171.973 164.974 172.784 165.508C173.595 166.042 174.545 166.309 175.633 166.309C176.722 166.309 177.671 166.042 178.482 165.508C179.293 164.974 179.921 164.191 180.364 163.158C180.815 162.125 181.04 160.857 181.04 159.353Z" fill="#375582"/>
<path d="M68.9826 186.833C68.9269 186.271 68.6876 185.834 68.2649 185.523C67.8421 185.211 67.2683 185.056 66.5436 185.056C66.0511 185.056 65.6353 185.125 65.2962 185.265C64.9571 185.399 64.6969 185.588 64.5157 185.829C64.3392 186.071 64.2509 186.345 64.2509 186.651C64.2416 186.907 64.295 187.13 64.4112 187.32C64.532 187.511 64.6969 187.676 64.906 187.815C65.115 187.95 65.3566 188.068 65.6307 188.171C65.9048 188.268 66.1975 188.352 66.5088 188.422L67.791 188.728C68.4135 188.868 68.985 189.053 69.5053 189.286C70.0256 189.518 70.4763 189.804 70.8572 190.143C71.2382 190.482 71.5332 190.881 71.7422 191.341C71.9559 191.801 72.0651 192.329 72.0698 192.923C72.0651 193.797 71.8421 194.554 71.4008 195.195C70.9641 195.832 70.3322 196.326 69.5053 196.679C68.683 197.028 67.6911 197.202 66.5297 197.202C65.3775 197.202 64.374 197.026 63.5192 196.672C62.669 196.319 62.0047 195.797 61.5261 195.105C61.0523 194.408 60.8037 193.546 60.7805 192.519H63.7004C63.7329 192.998 63.8699 193.397 64.1115 193.718C64.3578 194.034 64.6853 194.273 65.0941 194.436C65.5076 194.593 65.9745 194.672 66.4948 194.672C67.0059 194.672 67.4495 194.598 67.8258 194.449C68.2068 194.301 68.5018 194.094 68.7109 193.829C68.9199 193.564 69.0245 193.26 69.0245 192.916C69.0245 192.596 68.9292 192.326 68.7387 192.108C68.5529 191.89 68.2788 191.704 67.9164 191.55C67.5587 191.397 67.1197 191.258 66.5993 191.132L65.0453 190.742C63.8421 190.449 62.892 189.992 62.1951 189.369C61.4983 188.747 61.1522 187.908 61.1568 186.854C61.1522 185.989 61.3821 185.235 61.8467 184.589C62.3159 183.943 62.9594 183.439 63.777 183.077C64.5947 182.714 65.5238 182.533 66.5645 182.533C67.6237 182.533 68.5483 182.714 69.338 183.077C70.1325 183.439 70.7504 183.943 71.1917 184.589C71.6331 185.235 71.8607 185.983 71.8746 186.833H68.9826ZM76.2336 197H73.0001L77.927 182.728H81.8155L86.7354 197H83.5019L79.927 185.989H79.8155L76.2336 197ZM76.0315 191.39H83.6692V193.746H76.0315V191.39ZM97.2685 182.728H100.286V191.996C100.286 193.037 100.037 193.948 99.5403 194.728C99.0479 195.509 98.358 196.117 97.4706 196.554C96.5833 196.986 95.5496 197.202 94.3696 197.202C93.1849 197.202 92.1489 196.986 91.2615 196.554C90.3742 196.117 89.6843 195.509 89.1918 194.728C88.6994 193.948 88.4532 193.037 88.4532 191.996V182.728H91.4706V191.739C91.4706 192.282 91.5891 192.765 91.826 193.188C92.0676 193.611 92.4067 193.943 92.8434 194.185C93.2801 194.426 93.7889 194.547 94.3696 194.547C94.9549 194.547 95.4637 194.426 95.8957 194.185C96.3324 193.943 96.6692 193.611 96.9062 193.188C97.1478 192.765 97.2685 192.282 97.2685 191.739V182.728ZM93.3034 181.348L94.7807 178.178H97.5264L95.4009 181.348H93.3034ZM107.828 197H102.769V182.728H107.87C109.305 182.728 110.541 183.014 111.577 183.585C112.613 184.152 113.41 184.967 113.967 186.031C114.529 187.095 114.81 188.368 114.81 189.85C114.81 191.337 114.529 192.614 113.967 193.683C113.41 194.751 112.608 195.571 111.563 196.143C110.522 196.714 109.277 197 107.828 197ZM105.786 194.415H107.702C108.594 194.415 109.345 194.257 109.953 193.941C110.567 193.62 111.026 193.125 111.333 192.456C111.644 191.783 111.8 190.914 111.8 189.85C111.8 188.796 111.644 187.934 111.333 187.265C111.026 186.596 110.569 186.103 109.96 185.787C109.352 185.471 108.601 185.314 107.709 185.314H105.786V194.415ZM117.046 197V182.728H126.662V185.216H120.063V188.617H126.168V191.104H120.063V194.512H126.69V197H117.046Z" fill="#375582"/>
<g clip-path="url(#clip0_4_170)">
<path d="M125.334 92.1807C123.772 93.8168 120.538 91.6597 119.057 90.5932C115.438 87.9921 112.963 83.0046 112.635 78.5727C111.938 69.1391 116.317 63.2352 113.505 52.9663C107.213 29.9754 77.9438 27.4938 68.5926 49.6779C68.0964 50.8538 67.8007 52.3865 67.3126 53.4651C66.6077 55.0221 60.4344 60.4313 58.7695 61.9438C56.9608 63.588 54.4453 66.1486 52.588 67.5151C49.7991 69.5648 47.4922 65.9783 49.7444 63.6549C53.8357 59.4338 59.1381 55.7216 63.2253 51.4012C69.2185 29.647 96.1439 20.9716 111.421 39.4414C118.547 48.0559 120.035 57.9923 118.085 68.8086C116.904 75.3633 115.359 82.5809 122.095 86.9439C123.059 87.5683 125.062 88.1056 125.573 88.9368C126.178 89.9201 126.158 91.319 125.332 92.1827L125.334 92.1807Z" fill="#375582"/>
<path d="M118.243 97.7906C119.634 99.1267 118.919 102.064 116.793 102.081C115.085 102.093 110.502 99.4673 109.1 98.3258C99.263 90.3195 104.175 74.4306 105.527 63.9428C107.591 47.9525 89.9158 36.2077 79.0233 49.5765C75.9447 53.3556 75.8009 57.7754 72.8236 61.8201C68.9126 67.134 62.1823 73.1736 57.1472 77.5529C55.6828 78.8281 53.0235 81.8956 51.3809 79.264C50.269 77.4839 51.5045 76.2574 52.6852 75.1139C57.854 70.1183 63.6891 65.7046 68.2787 60.109C73.0484 54.2943 72.372 48.135 79.1226 42.9854C91.6151 33.4585 107.308 42.3062 109.744 56.7272C111.654 68.0402 101.272 88.6388 113.718 95.7307C114.794 96.343 117.643 97.2168 118.241 97.7926L118.243 97.7906Z" fill="#375582"/>
<path d="M88.895 49.319C97.4442 48.2364 102.698 56.859 100.926 64.6058C97.8634 77.9847 82.4786 93.2552 72.3395 102.085C71.7522 102.596 69.502 104.68 69.0443 104.868C66.7576 105.807 65.0036 103.202 66.2594 101.27C73.9416 94.125 82.0411 87.248 88.417 78.8464C91.53 74.7449 97.3915 65.4674 97.0411 60.3198C96.6806 55.0161 90.9953 51.3546 86.5314 55.0627C84.3541 56.8691 84.1354 59.6649 83.0417 62.112C79.7221 69.5405 71.0534 78.1064 65.0482 83.6351C63.5615 85.0036 59.7356 88.801 58.2247 89.5755C56.1223 90.652 54.3562 88.6064 55.1643 86.512C55.4155 85.8592 55.8631 85.5166 56.333 85.0482C63.2031 78.1996 70.6787 72.7398 76.3498 64.5368C80.2001 58.9675 80.8502 50.3388 88.895 49.319Z" fill="#375582"/>
<path d="M126.958 62.7872C125.512 64.0928 123.57 62.8642 123.375 61.1267C123.156 59.1601 123.231 57.1165 122.936 55.0789C120.175 35.9766 104.019 21.592 84.2468 25.0021C74.9523 26.6058 69.2326 31.8386 64.3514 39.5529C61.5848 43.9241 57.1127 54.2801 52.025 55.8007C49.9915 56.4069 48.5291 55.1235 48.8532 53.0312C49.1145 51.3444 50.5424 51.3728 51.6584 50.5679C55.0752 48.1005 58.4879 40.3092 60.9083 36.5118C66.0203 28.4893 72.1107 22.7456 81.6482 20.5763C106.479 14.9319 127.408 35.1798 127.616 59.5129C127.626 60.5976 128.009 61.8343 126.956 62.7872H126.958Z" fill="#375582"/>
<path d="M89.7133 9.99518C100.227 9.39304 111.024 12.1503 119.219 18.8611C120.957 20.2843 125.49 24.6636 125.613 26.8714C125.723 28.8117 123.746 30.1518 122.091 28.9617C120.943 27.5547 120.007 25.9266 118.727 24.625C104.527 10.1817 76.0257 12.3815 62.6096 26.8593C61.601 27.948 60.8819 30.1173 58.9133 29.1482C55.9785 27.7027 58.5993 24.3311 59.9746 22.8044C66.8143 15.2158 79.6836 10.571 89.7112 9.99518H89.7133Z" fill="#375582"/>
<path d="M90.7259 0.0608243C98.9834 -0.300056 108.61 0.883957 115.752 5.30171C117.694 6.50194 117.435 9.60389 115.363 9.92625C113.775 10.1736 109.864 7.79746 108.033 7.15071C98.2928 3.70613 85.8184 4.52115 76.0298 7.45077C73.9943 8.059 71.1729 9.49036 69.3096 9.84515C66.2614 10.425 65.2487 6.60939 67.6244 5.32198C69.2589 4.436 72.7385 3.35944 74.612 2.7877C79.8152 1.20023 85.2797 0.30006 90.7259 0.0608243Z" fill="#375582"/>
<path d="M90.1082 58.4343C92.2876 58.0714 92.7676 60.1069 92.4982 61.8465C90.7017 73.4068 74.8227 86.7574 66.2573 93.9669C64.7687 95.2198 61.8218 99.1895 60.0982 96.0815C58.9437 94.0013 61.046 92.4118 62.4091 91.1285C71.3795 82.6741 81.9196 76.0343 87.0135 64.0584C87.5198 62.8703 88.4251 59.3791 89.2434 58.7891C89.4804 58.6168 89.8206 58.4809 90.1082 58.4323V58.4343Z" fill="#375582"/>
<path d="M87.2747 97.3689C94.5296 96.3734 96.8183 107.65 97.0431 113.031C97.0938 114.253 97.0918 116.031 95.6396 116.485C93.8066 117.059 92.8911 115.859 92.6116 114.223C92.0242 110.803 92.0992 107.135 90.327 103.94C88.0849 99.8991 84.4453 103.477 82.5819 105.848C81.5429 107.167 79.8233 110.434 78.6871 111.275C76.5949 112.824 74.3589 110.328 75.3938 108.181C78.2982 103.729 81.3971 98.1738 87.2747 97.3668V97.3689Z" fill="#375582"/>
<path d="M97.193 84.584C97.9545 84.4157 98.868 84.7705 99.3845 85.3463C100.306 86.3742 99.7632 89.7944 99.8847 91.3332C100.239 95.8057 103.427 103.291 106.967 106.139C108.756 107.577 112.677 107.885 111.575 110.947C110.721 113.323 108.314 112.431 106.627 111.547C99.6498 107.893 94.7504 95.0171 95.4269 87.4872C95.5241 86.3985 95.9535 84.8556 97.191 84.584H97.193Z" fill="#375582"/>
<path d="M140.326 35.8225C139.576 36.4855 138.266 36.4145 137.45 35.8874C136.321 35.1575 135.167 31.3662 134.484 29.9349C132.998 26.8126 131.051 23.8485 128.836 21.1947C128.003 20.1951 125.725 18.2083 125.222 17.3101C123.922 14.9847 126.478 12.937 128.738 14.6015C131.833 16.8783 136.526 23.8567 138.268 27.3641C138.853 28.542 141.122 33.568 140.99 34.5533C140.951 34.8372 140.524 35.6461 140.322 35.8245L140.326 35.8225Z" fill="#375582"/>
<path d="M135.679 58.4343C137.024 58.1789 138.171 59.0952 138.517 60.3664C139.222 62.9555 139.335 68.9201 139.181 71.6794C139.039 74.2178 138.039 80.6974 137.046 82.9235C135.979 85.3199 132.736 84.2738 132.765 81.6381C132.781 80.1318 133.968 76.8737 134.253 75.0571C135.084 69.7554 134.326 66.3919 134.114 61.3295C134.061 60.0583 134.158 58.7222 135.679 58.4323V58.4343Z" fill="#375582"/>
<path d="M53.858 31.869C55.0023 31.7291 56.2033 32.901 56.3309 33.9796C56.495 35.3805 54.8544 37.2701 54.2043 38.5169C53.2706 40.3092 51.9885 43.7801 50.9556 45.1993C49.5358 47.1477 47.0628 46.0569 47 43.8957C46.9636 42.6123 49.2239 38.2473 49.951 36.895C50.6457 35.6035 52.4139 32.0454 53.858 31.867V31.869Z" fill="#375582"/>
<path d="M135.467 49.8137C134.93 50.3125 133.974 50.3591 133.287 50.1949C131.375 49.7346 131.244 47.0868 130.673 45.5156C129.763 43.0117 128.71 40.5748 127.764 38.0871C127.691 35.2852 130.796 34.9101 132.127 37.1667C133.19 38.969 135.817 45.8177 136.097 47.8045C136.182 48.4087 135.91 49.4042 135.467 49.8157V49.8137Z" fill="#375582"/>
<path d="M126.162 68.7782C127.869 68.6748 128.151 70.3413 128.244 71.6612C128.378 73.5508 128.273 76.454 128.009 78.3355C127.88 79.264 127.75 80.3325 126.889 80.8637C125.621 81.6442 124.175 81.2773 123.792 79.7689L124.201 74.1022C123.873 72.1822 123.395 68.9465 126.16 68.7782H126.162Z" fill="#375582"/>
<path d="M85.859 110.127C86.8534 110.016 87.9026 110.642 88.095 111.662C88.2449 112.457 86.8676 115.058 86.5091 116.068C86.0595 117.339 85.4519 120.181 84.8645 121.112C83.947 122.568 81.156 122.178 81.0305 120.325C80.9434 119.02 83.2057 112.775 83.9733 111.504C84.4068 110.786 84.9739 110.227 85.8569 110.127H85.859Z" fill="#375582"/>
</g>
<defs>
<clipPath id="clip0_4_170">
<rect width="94" height="122" fill="white" transform="translate(47)"/>
</clipPath>
</defs>
</svg>
