<svg width="41" height="41" viewBox="0 0 41 41" fill="none" xmlns="http://www.w3.org/2000/svg">
<path d="M20.4816 37.5495C29.9081 37.5495 37.5497 29.9078 37.5497 20.4814C37.5497 11.055 29.9081 3.41333 20.4816 3.41333C11.0552 3.41333 3.41357 11.055 3.41357 20.4814C3.41357 29.9078 11.0552 37.5495 20.4816 37.5495Z" stroke="#707D91" stroke-opacity="0.5" stroke-width="2.15597" stroke-linecap="round" stroke-linejoin="round"/>
<path d="M20.4817 22.1883C23.3097 22.1883 25.6022 19.8959 25.6022 17.0679C25.6022 14.24 23.3097 11.9475 20.4817 11.9475C17.6538 11.9475 15.3613 14.24 15.3613 17.0679C15.3613 19.8959 17.6538 22.1883 20.4817 22.1883Z" stroke="#707D91" stroke-opacity="0.5" stroke-width="2.15597" stroke-linecap="round" stroke-linejoin="round"/>
<path d="M11.9478 35.2657V32.429C11.9478 31.5236 12.3074 30.6554 12.9476 30.0152C13.5878 29.375 14.456 29.0154 15.3614 29.0154H25.6022C26.5076 29.0154 27.3758 29.375 28.016 30.0152C28.6562 30.6554 29.0158 31.5236 29.0158 32.429V35.2657" stroke="#707D91" stroke-opacity="0.5" stroke-width="2.15597" stroke-linecap="round" stroke-linejoin="round"/>
</svg>
