<svg width="126" height="41" viewBox="0 0 126 41" fill="none" xmlns="http://www.w3.org/2000/svg">
<g clip-path="url(#clip0_410_422)">
<path d="M11.1578 35.705L10.3716 35.2145C10.2923 35.164 10.231 35.1784 10.1805 35.2578C10.1516 35.3083 10.148 35.3551 10.1805 35.402V35.4128L10.1913 35.4201C10.2165 35.4597 10.2165 35.5102 10.1913 35.5679L9.37991 36.8661C9.34024 36.913 9.29696 36.9347 9.24648 36.9311H9.22484C9.17075 36.9238 9.12747 36.9455 9.09502 36.9924C9.0878 37.0032 9.0842 37.014 9.07699 37.0284C9.06977 37.0428 9.06617 37.0573 9.06977 37.0753C9.06977 37.0933 9.07699 37.1114 9.0842 37.1294C9.09502 37.1474 9.11305 37.1655 9.1419 37.1835L9.92805 37.6739C9.98214 37.71 10.0362 37.71 10.0831 37.6739C10.0975 37.6631 10.1084 37.6523 10.1192 37.6343C10.148 37.591 10.148 37.5441 10.1192 37.49L10.112 37.472C10.0831 37.4287 10.0831 37.3782 10.112 37.3205L10.9234 36.0223C10.9666 35.9718 11.0135 35.9538 11.0604 35.9574H11.0784C11.1361 35.9574 11.1794 35.9394 11.2046 35.8961C11.2155 35.8817 11.2227 35.8636 11.2263 35.842C11.2335 35.7807 11.2118 35.7338 11.1578 35.7013" fill="#0266AE"/>
<path d="M13.1157 37.1185C13.1193 37.2158 13.1554 37.2844 13.2167 37.3204C13.2636 37.3493 13.3104 37.3529 13.3645 37.3348C13.4078 37.3168 13.4367 37.288 13.4511 37.2483C13.4547 37.2375 13.4619 37.2158 13.4655 37.1834C13.4727 37.1509 13.4799 37.1077 13.4907 37.0536L13.5196 36.8877V36.8588C13.5124 36.8011 13.4835 36.7615 13.4367 36.7434L11.785 36.0691C11.7381 36.051 11.6913 36.0583 11.6444 36.0943L11.6191 36.116L11.529 36.253C11.4605 36.3576 11.4244 36.4117 11.4244 36.4189C11.4064 36.4585 11.41 36.5018 11.428 36.5487C11.446 36.5956 11.4857 36.6244 11.5398 36.6388C11.6047 36.6569 11.6768 36.6316 11.7526 36.5703C11.7778 36.5487 11.7994 36.5343 11.8211 36.5198C11.8427 36.509 11.8644 36.4982 11.886 36.4946C11.9076 36.491 11.9329 36.4874 11.9581 36.4946C11.9834 36.4946 12.0158 36.5018 12.0519 36.5126L12.1024 36.5343L11.5001 38.0092L11.4857 38.038C11.4569 38.0921 11.4172 38.121 11.3667 38.1246H11.3451C11.291 38.1282 11.2513 38.1571 11.2297 38.2075C11.2225 38.2292 11.2189 38.2472 11.2189 38.2652C11.2116 38.3229 11.2405 38.3626 11.3054 38.3915L12.1601 38.7413C12.2502 38.7773 12.3115 38.7557 12.344 38.6691C12.3656 38.6186 12.3584 38.5718 12.3187 38.5285L12.3115 38.5177L12.3043 38.5105C12.2719 38.4744 12.261 38.4239 12.2791 38.3626L12.8921 36.8552L12.9426 36.8769C13.0075 36.9165 13.0508 36.9526 13.0724 36.985C13.0941 37.0175 13.1085 37.0644 13.1121 37.1257" fill="#0266AE"/>
<path d="M15.5282 39.3182H15.5173C15.4849 39.2894 15.4669 39.2569 15.456 39.21L15.4416 39.1559L15.4344 39.1343C15.4272 39.091 15.42 39.055 15.4164 39.0189C15.4128 38.9828 15.4055 38.9504 15.4019 38.9215L15.3515 38.5501C15.3406 38.4744 15.3334 38.4022 15.319 38.3337C15.3082 38.2616 15.2938 38.1931 15.2829 38.1246C15.2685 38.038 15.2541 37.9659 15.2433 37.9082C15.2324 37.8505 15.2252 37.8072 15.218 37.782C15.1603 37.4899 15.1026 37.2988 15.0557 37.2014L15.0341 37.1653C14.9944 37.104 14.9295 37.0644 14.8394 37.0463C14.724 37.0211 14.641 37.0139 14.5905 37.0175C14.5112 37.0247 14.4355 37.0607 14.367 37.1257C14.2407 37.2411 14.1001 37.425 13.9378 37.6774L13.3031 38.6907L13.2959 38.698L13.2563 38.752C13.2274 38.7917 13.1986 38.817 13.1661 38.8242L13.1445 38.8314C13.094 38.8458 13.0651 38.8819 13.0507 38.936C13.0327 39.0261 13.0651 39.0766 13.1517 39.0946L13.6529 39.1956C13.7467 39.2136 13.8008 39.1812 13.8188 39.091C13.8296 39.0405 13.8116 38.9973 13.7683 38.954L13.7539 38.9396C13.7034 38.9035 13.6854 38.8494 13.6998 38.7809C13.707 38.7412 13.7431 38.6691 13.8044 38.5645L13.8405 38.5032L14.5581 38.6511L14.5653 38.7484C14.5725 38.871 14.5761 38.9504 14.5653 38.9864C14.5545 39.0333 14.5292 39.0622 14.4824 39.073L14.4571 39.0802L14.4391 39.0874C14.385 39.1091 14.3525 39.1415 14.3417 39.1884C14.3417 39.2064 14.3381 39.2245 14.3417 39.2461C14.3561 39.3038 14.3922 39.3399 14.4535 39.3543L15.4164 39.5526C15.4813 39.567 15.5282 39.549 15.5606 39.4985C15.5714 39.4841 15.5786 39.4697 15.5822 39.448C15.5931 39.4012 15.575 39.3543 15.5318 39.311L15.5245 39.3038L15.5282 39.3182ZM14.0244 38.1967L14.064 38.121L14.1073 38.0488L14.1434 37.9911L14.1867 37.9226C14.2696 37.7964 14.3417 37.6882 14.4102 37.6053C14.4355 37.6918 14.4499 37.7531 14.4535 37.7892L14.4607 37.8613L14.4788 37.9731L14.4932 38.0633L14.5112 38.2941L14.0244 38.1931V38.1967Z" fill="#0266AE"/>
<path d="M18.435 39.174C18.4025 39.0334 18.3881 38.9035 18.3881 38.7845L18.3953 38.7232L18.417 38.6223L18.435 38.5574C18.4422 38.5321 18.4458 38.5069 18.4458 38.4924C18.4458 38.4095 18.4061 38.3662 18.3232 38.3626L17.721 38.3518C17.4866 38.3482 17.3459 38.3518 17.2918 38.3698C17.2197 38.3879 17.1836 38.4492 17.18 38.5574C17.18 38.6583 17.2413 38.7124 17.3676 38.7124C17.3892 38.7124 17.4072 38.7124 17.418 38.7124H17.4902C17.5551 38.7124 17.5983 38.7521 17.6128 38.8242V38.8531L17.62 38.8747V39.0045C17.6164 39.192 17.5262 39.2858 17.3567 39.2822C17.2377 39.2822 17.1295 39.2173 17.0322 39.0911C16.9492 38.9757 16.8987 38.8567 16.8879 38.7268L16.8627 38.4888V38.4275C16.8627 38.4275 16.8627 38.3987 16.8699 38.3662C16.8699 38.3338 16.8735 38.3121 16.8735 38.3049C16.8771 38.0777 16.9348 37.8974 17.0466 37.7712C17.1512 37.6486 17.2918 37.5909 17.4685 37.5909C17.5623 37.5909 17.638 37.6053 17.7029 37.6342C17.8255 37.6883 17.9085 37.7712 17.9481 37.8794L17.9806 37.9659C18.0095 38.0453 18.0744 38.0886 18.1753 38.0886C18.2511 38.0886 18.3016 38.0272 18.3232 37.9046C18.3232 37.8866 18.3268 37.8578 18.3304 37.8109C18.3304 37.7676 18.3304 37.7063 18.334 37.6342C18.334 37.5765 18.3196 37.5368 18.2871 37.5116C18.2402 37.4719 18.1645 37.4322 18.0563 37.3926L17.9626 37.3565C17.7895 37.2916 17.5695 37.2591 17.3099 37.2519C16.8014 37.2447 16.4299 37.425 16.1919 37.8001C16.0801 37.9768 16.0152 38.1102 16.0044 38.2076C16.0008 38.2544 15.9936 38.2905 15.9936 38.323C15.9936 38.3518 15.99 38.3734 15.9864 38.3843V38.4456C15.9792 38.8098 16.1018 39.1091 16.3578 39.3363C16.5057 39.4733 16.6463 39.5599 16.7725 39.6031C16.841 39.6212 16.9997 39.6464 17.2413 39.6753H17.3207C17.3207 39.6753 17.3603 39.6753 17.382 39.6753C17.4072 39.6753 17.4361 39.6753 17.4721 39.6753C17.6272 39.6681 17.7931 39.6392 17.9698 39.5851C18.1753 39.5166 18.316 39.4373 18.3953 39.3471L18.4242 39.311C18.4458 39.2822 18.4566 39.2533 18.4566 39.2209L18.4458 39.1956V39.1812L18.435 39.174Z" fill="#0266AE"/>
<path d="M21.1324 37.9227C21.1252 37.8902 21.1144 37.8542 21.1035 37.8217L20.9629 37.3349C20.9557 37.3168 20.9521 37.2988 20.9485 37.2844C20.9449 37.2663 20.9413 37.2519 20.9377 37.2375C20.9196 37.1546 20.9341 37.0896 20.9845 37.0464L20.999 37.0319C21.0422 36.9923 21.0567 36.9454 21.0458 36.8949C21.0422 36.8769 21.035 36.8625 21.0242 36.8444C20.9918 36.7939 20.9413 36.7759 20.8764 36.7903L20.4472 36.8877C20.3535 36.9093 20.3174 36.9634 20.339 37.05C20.3499 37.1077 20.3859 37.1401 20.44 37.1546H20.4472L20.458 37.1618C20.5121 37.1762 20.541 37.2014 20.5518 37.2411L20.5843 37.3349L20.678 37.6738L20.7321 37.8794C20.7429 37.9227 20.761 37.9876 20.779 38.0741C20.8006 38.1607 20.8259 38.2725 20.8547 38.4095C20.8619 38.4492 20.8655 38.4708 20.8655 38.4744C20.8872 38.5934 20.88 38.6836 20.8511 38.7377C20.8006 38.8459 20.6852 38.9216 20.5121 38.9576C20.4364 38.9757 20.3535 38.9685 20.2705 38.936C20.1948 38.9036 20.1371 38.8675 20.0974 38.8242C20.0289 38.7485 19.982 38.6475 19.9532 38.5249C19.9496 38.5069 19.9424 38.4744 19.9351 38.4384C19.9279 38.3987 19.9171 38.3518 19.9099 38.2941L19.845 37.9227C19.8233 37.8001 19.8053 37.6955 19.7909 37.6198C19.7765 37.5404 19.7656 37.4827 19.762 37.4467C19.762 37.3817 19.7801 37.3313 19.8233 37.2988L19.8414 37.2844C19.8847 37.2483 19.9027 37.205 19.8883 37.1473C19.8702 37.0608 19.8125 37.0247 19.7188 37.0464L18.8533 37.2375C18.7595 37.2591 18.7235 37.3132 18.7451 37.3998C18.7595 37.4575 18.792 37.4935 18.8497 37.5044H18.8605L18.8713 37.5116C18.911 37.5224 18.9362 37.5404 18.9543 37.5693C18.9723 37.5945 18.9867 37.645 18.9975 37.7207L19.0624 38.1138L19.1274 38.4816C19.1887 38.8386 19.3077 39.0875 19.4844 39.2281C19.643 39.3507 19.8125 39.3976 19.9928 39.376C20.1118 39.3615 20.202 39.3507 20.2597 39.3435C20.3174 39.3363 20.3426 39.3327 20.339 39.3363L20.5229 39.2966C20.8764 39.2173 21.0891 39.0803 21.1648 38.8819C21.2406 38.6728 21.2406 38.3843 21.1612 38.0236C21.154 37.9912 21.1468 37.9587 21.136 37.9263" fill="#0266AE"/>
<path d="M24.0568 37.6847H24.046H24.0352C23.9955 37.6847 23.9594 37.6667 23.9234 37.6343L23.8837 37.5982L23.8657 37.5838C23.8368 37.5549 23.808 37.5261 23.7827 37.5008C23.7575 37.4756 23.7359 37.4503 23.7142 37.4287L23.4582 37.1546C23.4077 37.1005 23.3572 37.0464 23.3067 36.996C23.2562 36.9455 23.2058 36.895 23.1589 36.8481C23.0976 36.7868 23.0435 36.7363 23.0002 36.693C22.9569 36.6534 22.9281 36.6209 22.9064 36.6065C22.6901 36.4009 22.535 36.2747 22.4376 36.2278L22.398 36.2134C22.3294 36.1882 22.2573 36.1918 22.1708 36.2278C22.0626 36.2747 21.9905 36.3144 21.9508 36.3505C21.8895 36.4045 21.8498 36.4767 21.8282 36.5668C21.7921 36.7327 21.7813 36.9635 21.7957 37.2664L21.8643 38.4601V38.4709V38.5358C21.8643 38.5863 21.8534 38.6223 21.8354 38.6476L21.821 38.6656C21.7885 38.7053 21.7849 38.7522 21.8066 38.8063C21.8426 38.8892 21.9003 38.9144 21.9833 38.8784L22.4521 38.6728C22.5386 38.6332 22.5639 38.5755 22.5278 38.4925C22.5062 38.4456 22.4665 38.4168 22.4088 38.4096H22.3908C22.3294 38.406 22.2826 38.3735 22.2537 38.3122C22.2357 38.2725 22.2249 38.1932 22.214 38.0742L22.2068 38.0057L22.8776 37.71L22.9389 37.7857C23.0146 37.8795 23.0615 37.9444 23.0759 37.9768C23.094 38.0201 23.0904 38.0598 23.0615 38.0958L23.0471 38.1175L23.0363 38.1319C23.0038 38.1824 22.9966 38.2257 23.0146 38.2725C23.0218 38.287 23.0327 38.305 23.0471 38.3194C23.094 38.3591 23.1444 38.3663 23.2021 38.3411L24.1001 37.948C24.1614 37.9228 24.1902 37.8795 24.1866 37.8182C24.1866 37.8001 24.183 37.7821 24.1758 37.7641C24.1578 37.7208 24.1181 37.692 24.0568 37.6811M22.1708 37.6379L22.16 37.5513L22.1527 37.4684V37.3999L22.1455 37.3169C22.1383 37.1655 22.1383 37.0356 22.1455 36.9311C22.2141 36.9888 22.2645 37.0284 22.2862 37.0573L22.3367 37.1114L22.416 37.1907L22.4809 37.2556L22.6324 37.4323L22.178 37.6306L22.1708 37.6379Z" fill="#0266AE"/>
<path d="M25.3839 36.8119H25.3659C25.3154 36.8191 25.2685 36.7975 25.2288 36.7506L24.3994 35.4632C24.3742 35.4019 24.3742 35.355 24.3994 35.3117L24.4066 35.2937C24.4319 35.2396 24.4319 35.1927 24.4066 35.1531C24.3958 35.1386 24.385 35.1242 24.367 35.1098C24.3165 35.0773 24.2624 35.0773 24.2119 35.1098L23.433 35.6111C23.3572 35.6615 23.3428 35.7228 23.3897 35.7986C23.4221 35.8455 23.4654 35.8671 23.5195 35.8599H23.5411C23.588 35.8527 23.6349 35.8743 23.6746 35.9212L24.504 37.2086C24.5292 37.2627 24.5292 37.3132 24.504 37.3564L24.4932 37.3745C24.4643 37.4214 24.4643 37.4718 24.4932 37.5187C24.5004 37.5295 24.5076 37.5368 24.5184 37.5512C24.5292 37.562 24.5437 37.5728 24.5581 37.58C24.5725 37.5872 24.5941 37.5908 24.6122 37.5872C24.6338 37.5872 24.6554 37.5764 24.6843 37.5584L25.4632 37.0571C25.5173 37.0211 25.539 36.9742 25.5281 36.9165C25.5281 36.8985 25.5173 36.884 25.5065 36.866C25.4777 36.8227 25.4344 36.8011 25.3767 36.8047" fill="#0266AE"/>
<path d="M16.1484 22.6433C16.3035 22.5675 16.4189 22.4485 16.4946 22.2862C16.5703 22.124 16.6064 21.904 16.6064 21.6299C16.6064 21.3558 16.5703 21.1395 16.4946 20.9772C16.4189 20.8149 16.3107 20.6995 16.1664 20.631C16.0222 20.5625 15.8383 20.53 15.6111 20.53C15.4272 20.53 15.2865 20.53 15.1855 20.5372V22.755H15.5245C15.7878 22.755 15.9969 22.719 16.152 22.6433" fill="#0266AE"/>
<path d="M28.9109 28.0237V28.2581H29.1669V29.8665H29.4987V27.7568H29.2751C29.2246 27.8975 29.1669 28.0237 28.9109 28.0237Z" fill="#0266AE"/>
<path d="M30.3748 27.7316C30.0394 27.7316 29.8555 27.9263 29.8555 28.2617V28.3266C29.8555 28.5357 29.9204 28.6728 30.061 28.7485V28.7557C29.9168 28.8387 29.8555 28.9901 29.8555 29.1921V29.358C29.8555 29.6969 30.0394 29.8881 30.3748 29.8881C30.7101 29.8881 30.894 29.6933 30.894 29.358V29.1921C30.894 28.9901 30.8327 28.8351 30.6885 28.7557V28.7485C30.8255 28.6728 30.894 28.5357 30.894 28.3266V28.2617C30.894 27.9227 30.7101 27.7316 30.3748 27.7316ZM30.5623 29.3507C30.5623 29.5383 30.4793 29.5888 30.3748 29.5888C30.2702 29.5888 30.1872 29.5383 30.1872 29.3507V29.156C30.1872 28.9901 30.2558 28.918 30.3748 28.918C30.4938 28.918 30.5623 28.9901 30.5623 29.156V29.3507ZM30.5623 28.3915C30.5623 28.561 30.4793 28.6151 30.3748 28.6151C30.2702 28.6151 30.1872 28.561 30.1872 28.3915V28.2725C30.1872 28.0814 30.2702 28.0309 30.3748 28.0309C30.4793 28.0309 30.5623 28.0814 30.5623 28.2725V28.3915Z" fill="#0266AE"/>
<path d="M31.2224 28.0237V28.2581H31.4785V29.8665H31.8102V27.7568H31.5866C31.5361 27.8975 31.4785 28.0237 31.2224 28.0237Z" fill="#0266AE"/>
<path d="M32.6899 27.7316C32.3546 27.7316 32.1707 27.9263 32.1707 28.2617V28.3266C32.1707 28.5357 32.2356 28.6728 32.3762 28.7485V28.7557C32.232 28.8387 32.1707 28.9901 32.1707 29.1921V29.358C32.1707 29.6969 32.3546 29.8881 32.6899 29.8881C33.0253 29.8881 33.2092 29.6933 33.2092 29.358V29.1921C33.2092 28.9901 33.1479 28.8351 33.0037 28.7557V28.7485C33.1407 28.6728 33.2092 28.5357 33.2092 28.3266V28.2617C33.2092 27.9227 33.0253 27.7316 32.6899 27.7316ZM32.8739 29.3507C32.8739 29.5383 32.7909 29.5888 32.6863 29.5888C32.5818 29.5888 32.4988 29.5383 32.4988 29.3507V29.156C32.4988 28.9901 32.5673 28.918 32.6863 28.918C32.8053 28.918 32.8739 28.9901 32.8739 29.156V29.3507ZM32.8739 28.3915C32.8739 28.561 32.7909 28.6151 32.6863 28.6151C32.5818 28.6151 32.4988 28.561 32.4988 28.3915V28.2725C32.4988 28.0814 32.5818 28.0309 32.6863 28.0309C32.7909 28.0309 32.8739 28.0814 32.8739 28.2725V28.3915Z" fill="#0266AE"/>
<path d="M34.5257 29.6464V29.3723C34.5257 29.156 34.4391 28.9576 34.2877 28.8098C34.2804 28.8026 34.2696 28.7918 34.2624 28.7845C34.2696 28.7773 34.2768 28.7701 34.2877 28.7593C34.4427 28.6114 34.5257 28.4095 34.5257 28.1967V26.4802C34.5257 26.4802 34.5257 26.473 34.5257 26.4694C34.5257 26.1737 34.2877 25.9357 33.992 25.9357H33.6818V25.1315H32.9678C32.6721 25.1315 32.4341 25.3695 32.4341 25.6652V26.7362H31.9364V25.2541V21.958C32.0735 21.8571 32.1384 21.7309 32.142 21.7236C32.142 21.7236 32.142 21.72 32.1456 21.7164L32.9065 19.9386L33.671 22.2826V18.1247C33.671 18.1247 33.671 18.1066 33.671 18.0994C33.671 18.085 33.6638 18.067 33.653 18.0525C33.6277 18.0165 33.5881 17.9948 33.5412 17.9948H32.4485C32.3944 17.9948 32.3475 18.0273 32.3259 18.0742L31.9328 19.0046V15.6364C32.059 15.5535 32.124 15.4489 32.1276 15.4417C32.1276 15.4417 32.1276 15.4345 32.1312 15.4345L32.8524 13.992L33.671 16.4983V12.3404C33.671 12.2754 33.6241 12.225 33.5664 12.2141C33.5556 12.2141 33.5448 12.2105 33.5304 12.2105H32.4377C32.3872 12.2105 32.3403 12.2394 32.3187 12.2827L31.6768 13.5881L31.5145 12.3331L31.4965 12.1925L31.5758 12.16C32.0194 11.9761 32.2646 11.7489 32.3043 11.4821C32.3547 11.1179 32.1997 10.8907 32.1167 10.7681L32.1023 10.7464C32.0843 10.7176 32.0626 10.6923 32.0482 10.6743C32.0446 10.6707 32.041 10.6635 32.0338 10.6599C32.0374 10.6382 32.0518 10.5914 32.0987 10.4976C32.279 10.1478 32.0735 9.89536 31.9761 9.77275C31.9581 9.75112 31.9328 9.72227 31.922 9.70063C31.9941 9.47344 31.9364 9.16331 31.7814 8.94333C31.6515 8.75581 31.464 8.65484 31.2549 8.65484C31.2513 8.65484 31.2477 8.65484 31.2404 8.65484C31.2332 8.65484 31.2332 8.65484 31.226 8.65484C31.0169 8.65484 30.8293 8.75942 30.6995 8.94694C30.5444 9.16691 30.4904 9.47344 30.5625 9.70063C30.5481 9.72227 30.5264 9.75112 30.5084 9.77275C30.4074 9.89536 30.2019 10.1478 30.3858 10.5012C30.4327 10.5914 30.4471 10.6418 30.4507 10.6635C30.4471 10.6707 30.4399 10.6743 30.4363 10.6779C30.4218 10.6959 30.4002 10.7212 30.3786 10.7536C30.3713 10.7645 30.3677 10.7717 30.3605 10.7825C30.2776 10.9051 30.1261 11.1323 30.1766 11.4929C30.2127 11.7634 30.4651 11.9942 30.9231 12.1781L31.0024 12.2105L30.9844 12.344L30.5697 15.5859V15.8852V16.2891L30.1586 15.4561C30.1369 15.4092 30.0901 15.384 30.0396 15.384H28.9469C28.9469 15.384 28.9217 15.384 28.9108 15.3876C28.8495 15.3984 28.8063 15.4525 28.8063 15.5138V18.8495C28.8063 18.8495 28.8063 18.8675 28.8099 18.8784V19.6717L29.6285 17.169L30.3497 18.6079C30.3497 18.6079 30.3497 18.6151 30.3533 18.6151C30.3569 18.6223 30.429 18.7377 30.5697 18.8243V22.2141L30.1622 21.2512C30.1406 21.2007 30.0937 21.1719 30.0396 21.1719H28.9469C28.9036 21.1719 28.8604 21.1935 28.8351 21.2296C28.8243 21.244 28.8207 21.2584 28.8171 21.2765C28.8171 21.2837 28.8171 21.2909 28.8171 21.3017V24.6374C28.8171 24.6374 28.8171 24.6555 28.8207 24.6663V25.4596L29.5852 23.1192L30.3461 24.8935C30.3461 24.8935 30.3461 24.8971 30.3497 24.9007C30.3533 24.9115 30.4254 25.0449 30.5697 25.1459V26.747H28.8315C28.5791 26.747 28.3411 26.8336 28.1535 26.9815C28.2653 26.3504 28.323 25.7013 28.323 25.0377V9.83045H26.062C26.062 9.83045 26.062 9.82685 26.062 9.82324C26.0944 9.75112 26.1305 9.66457 26.0872 9.55638C26.08 9.53835 26.0728 9.52032 26.0656 9.50229L26.5632 8.49977C26.6462 8.48535 26.7399 8.44928 26.8012 8.35913C26.8842 8.24013 26.9058 8.09948 26.8589 7.98048C26.8481 7.95524 26.8337 7.92999 26.8193 7.90475L28.1319 5.31551L28.5358 5.04505L28.5755 5.0198L28.5971 4.98014L29.5239 3.2095L29.6104 3.04001L29.4373 2.95707L28.7522 2.62891L28.5899 2.55318L28.5106 2.71545L28.3014 3.14098L27.8795 2.94264L28.0814 2.51711L28.1608 2.34762L27.9913 2.27189L27.2232 1.92931L27.0501 1.85358L26.9779 2.03028L26.2387 3.88746L26.2206 3.93434L26.2278 3.98483L26.2639 4.22645L25.7807 4.02811L25.604 3.95598L25.5391 4.13268L25.3335 4.68443L25.0667 4.58346L25.265 4.01729L25.3263 3.84058L25.1496 3.78288L24.7096 3.63503L24.9224 3.43669L24.9585 3.40424L24.9729 3.35736L25.5535 1.50017L25.6112 1.31986L25.4309 1.26938L24.6628 1.05301L24.4861 1.00252L24.4356 1.17922L24.3094 1.6336L23.9199 1.52541L24.0281 1.06743L24.0677 0.890727L23.891 0.847453L22.8452 0.587808L22.6577 0.540927L22.6217 0.728449L22.5315 1.19725L22.1132 1.11431L22.2033 0.631082L22.2358 0.450773L22.0555 0.418317L21.2766 0.27407L21.0926 0.241614L21.0638 0.425529L20.8763 1.55787L20.7501 2.38008L20.7428 2.43057L20.7609 2.47745L20.8546 2.71545L20.4075 2.65054L20.2199 2.62169L20.1983 2.80922L20.1262 3.41145L19.7584 3.37178L19.8088 2.78758L19.8233 2.60366L19.6393 2.58924L19.1994 2.55318L19.3617 2.30435L19.3869 2.26468V2.2178L19.5456 0.277676L19.56 0.0901545L19.3725 0.079336L18.5719 0.0360618L18.388 0.0252433L18.3772 0.205552L18.3483 0.703205L17.9372 0.692387V0.191128L17.9336 0.0108185H17.7533L16.6787 0H16.4839L16.4948 0.191128L16.52 0.67075L16.1089 0.688781L16.08 0.209159L16.0692 0.0288495L15.8889 0.0360618L15.0811 0.0757298L14.8936 0.0829422L14.908 0.270464L15.0559 2.1601V2.20338L15.0811 2.23944L15.2614 2.53875L14.789 2.58203L14.6015 2.60006L14.6231 2.78758L14.6953 3.38981L14.3347 3.42587L14.2373 2.84888L14.2084 2.67579L14.0317 2.69742L13.599 2.75512L13.6964 2.45581L13.7108 2.41254L13.7036 2.36926L13.3862 0.447167L13.3538 0.259645L13.1699 0.295707L12.409 0.44356L12.2359 0.479622L12.2647 0.656325L12.344 1.12873L11.9257 1.21168L11.8031 0.732055L11.7598 0.555352L11.5831 0.598626L10.559 0.843846L10.3787 0.887121L10.4256 1.06743L10.5446 1.53623L10.1623 1.64081L10.0144 1.17201L9.96036 0.998912L9.78726 1.05301L9.01914 1.29823L8.84244 1.35592L8.90014 1.53263L9.5204 3.41145L9.53483 3.45472L9.57089 3.48718L9.7548 3.66027L9.32206 3.81173L9.14897 3.87304L9.21027 4.04614L9.405 4.60149L9.15618 4.69525L8.92538 4.15072L8.85686 3.98483L8.69098 4.05335L8.22578 4.24087L8.26184 4.01007L8.26906 3.95959L8.25103 3.91271L7.68486 2.52072L7.49373 2.02307L7.42521 1.84276L7.24851 1.92209L6.46957 2.27189L6.29648 2.35123L6.37942 2.52072L6.59218 2.94986L6.17026 3.14098L5.95749 2.70824L5.87816 2.54596L5.71588 2.62169L5.03431 2.94264L4.86122 3.02198L4.94776 3.19147L5.87095 4.96932L5.89258 5.00899L5.93225 5.03423L6.32533 5.30109L7.64519 7.90836C7.60191 8.00933 7.56225 8.17521 7.65601 8.31225C7.72813 8.42043 7.8291 8.47092 7.91205 8.49256L8.40249 9.47344C8.37724 9.55999 8.35561 9.69702 8.42052 9.81963H6.14502V25.0233C6.14502 25.676 6.20271 26.3179 6.3109 26.9382C6.13059 26.8084 5.91061 26.729 5.67261 26.729H3.90918V25.2469V25.1279C4.05343 25.0269 4.12555 24.8935 4.12916 24.8827C4.12916 24.8827 4.12916 24.879 4.13277 24.8754L4.89367 23.1012L5.65818 25.4416V24.6483C5.65818 24.6483 5.66179 24.6302 5.66179 24.6194V21.2837C5.66179 21.2837 5.66179 21.2657 5.66179 21.2584C5.66179 21.244 5.65457 21.226 5.64376 21.2116C5.61851 21.1755 5.57885 21.1539 5.53196 21.1539H4.43929C4.3852 21.1539 4.33832 21.1863 4.31668 21.2332L3.90918 22.196V18.8062C4.04982 18.7197 4.12195 18.6043 4.12555 18.5971C4.12555 18.5971 4.12555 18.5935 4.12916 18.5899L4.8504 17.151L5.66539 19.6537V18.8603C5.66539 18.8603 5.669 18.8423 5.669 18.8315V15.4958C5.669 15.4309 5.62212 15.3804 5.56442 15.3695C5.5536 15.3695 5.54278 15.3659 5.52836 15.3659H4.43569C4.3852 15.3659 4.33832 15.3948 4.31668 15.4381L3.90558 16.2711V15.5679L3.49087 12.3259L3.47284 12.1925L3.55217 12.16C4.01016 11.9761 4.26259 11.7453 4.29865 11.4749C4.34914 11.1179 4.19768 10.8871 4.11474 10.7645C4.10752 10.7536 4.10031 10.7464 4.0967 10.7356C4.07507 10.7031 4.05704 10.6815 4.03901 10.6599C4.0354 10.6563 4.03179 10.6491 4.02458 10.6454C4.02819 10.6238 4.04261 10.5769 4.08949 10.4832C4.27341 10.1298 4.06785 9.87733 3.96688 9.75472C3.94885 9.73308 3.92361 9.70424 3.91279 9.6826C3.98491 9.45541 3.93082 9.14888 3.77575 8.92891C3.64593 8.74138 3.45841 8.63681 3.24925 8.63681C3.24565 8.63681 3.24204 8.63681 3.23483 8.63681C3.22761 8.63681 3.22761 8.63681 3.2204 8.63681C3.01124 8.63681 2.82733 8.73778 2.6939 8.9253C2.53883 9.14528 2.48113 9.4518 2.55326 9.6826C2.53883 9.70424 2.5172 9.73308 2.49917 9.75472C2.4018 9.87733 2.19625 10.1298 2.37656 10.4796C2.42704 10.5733 2.43786 10.6238 2.44147 10.6418C2.43786 10.6454 2.43425 10.6527 2.42704 10.6563C2.41262 10.6743 2.39098 10.6995 2.37295 10.7284L2.35852 10.75C2.27558 10.8726 2.12052 11.0998 2.1674 11.4641C2.20707 11.7309 2.44868 11.9581 2.89585 12.142L2.97518 12.1745L2.95715 12.3151L2.79487 13.5701L2.15297 12.2646C2.13134 12.2177 2.08445 12.1925 2.03397 12.1925H0.941295C0.941295 12.1925 0.916052 12.1925 0.905233 12.1961C0.843928 12.2069 0.800654 12.261 0.800654 12.3223V16.4803L1.61926 13.974L2.34049 15.4164C2.34049 15.4164 2.34049 15.4236 2.3441 15.4236C2.34771 15.4309 2.41262 15.5354 2.53883 15.6184V15.8528V18.6295V18.9865L2.14576 18.0562C2.12412 18.0057 2.07724 17.9768 2.02315 17.9768H0.930477C0.887203 17.9768 0.843928 17.9985 0.818685 18.0345C0.807867 18.0489 0.80426 18.0634 0.800654 18.0814C0.800654 18.0886 0.800654 18.0958 0.800654 18.1066V22.2682L1.56877 19.9242L2.32968 21.702C2.32968 21.702 2.32968 21.7056 2.33328 21.7092C2.33689 21.7164 2.40541 21.8462 2.53883 21.9436V24.9656V25.1892V25.2397V26.7218H2.03397V25.6508C2.03397 25.3551 1.79596 25.1171 1.50025 25.1171H0.786229V25.9212H0.476098C0.180391 25.9212 -0.0576172 26.1592 -0.0576172 26.455V28.1787C-0.0576172 28.3951 0.0289312 28.5934 0.180391 28.7413C0.191209 28.7521 0.198422 28.7557 0.205634 28.7665C0.198422 28.7737 0.191209 28.7809 0.180391 28.7918C0.025325 28.9396 -0.0576172 29.1416 -0.0576172 29.3543V31.1141C-0.0576172 31.4098 0.180391 31.6479 0.476098 31.6479H0.782623V32.452H1.49665C1.79235 32.452 2.03036 32.214 2.03036 31.9183V30.8473H2.53523V32.791L3.89115 33.7358V30.8473H6.04765C6.00437 31.1177 5.89619 31.7308 5.79882 32.2898C5.58245 33.5267 5.45263 34.284 5.45263 34.3885C5.45263 34.6662 5.55 34.9367 5.71588 35.1567C5.73391 35.1819 5.78079 35.236 5.82767 35.2937C5.83488 35.3081 6.14862 35.6543 6.16305 35.6651C9.04078 38.6619 13.04 40.3712 17.2052 40.3712C21.3703 40.3712 25.3443 38.6691 28.2221 35.6904C28.2293 35.6904 28.3699 35.5389 28.4997 35.3983C28.6043 35.2829 28.781 35.1026 28.9036 34.8249C28.9613 34.6879 28.983 34.5364 28.9866 34.3885C28.9866 34.2876 28.8568 33.5303 28.6404 32.2898C28.543 31.7308 28.4348 31.1177 28.3916 30.8473H30.5192V33.7358L31.8751 32.791V30.8473H32.3728V31.9183C32.3728 32.214 32.6108 32.452 32.9065 32.452H33.6205V31.6479H33.927C34.2228 31.6479 34.4608 31.4098 34.4608 31.1141C34.4608 31.1141 34.4608 31.1105 34.4608 31.1069V29.6248L34.5257 29.6464ZM32.9714 25.4019H33.4186V25.9429H32.9714C32.8236 25.9429 32.7009 25.8203 32.7009 25.6724C32.7009 25.5246 32.8236 25.4019 32.9714 25.4019ZM32.7009 26.1304C32.7803 26.1773 32.874 26.2061 32.9714 26.2061H33.992C34.1398 26.2061 34.2624 26.3287 34.2624 26.4766C34.2624 26.6244 34.1434 26.747 33.992 26.747C33.992 26.747 33.992 26.747 33.9883 26.747C33.9847 26.747 33.9883 26.747 33.9847 26.747H32.7009V26.134V26.1304ZM33.4186 18.2581V20.631L32.636 18.2581H33.4186ZM32.4413 18.4997L32.7875 19.5635L31.9076 21.6118C31.9076 21.6118 31.904 21.6191 31.9004 21.6227C31.9004 21.6227 31.9004 21.6263 31.8968 21.6299C31.8932 21.6335 31.8932 21.6371 31.8896 21.6407C31.8823 21.6479 31.8787 21.6587 31.8679 21.6659C31.8679 21.6659 31.8643 21.6695 31.8607 21.6732C31.8427 21.6948 31.821 21.7128 31.7958 21.7345C31.7922 21.7345 31.7886 21.7417 31.785 21.7417C31.7778 21.7489 31.7669 21.7525 31.7597 21.7597C31.7092 21.7922 31.6515 21.8138 31.5794 21.8138H31.0349L32.4377 18.4961L32.4413 18.4997ZM33.4186 12.4702V14.843L32.636 12.4702H33.4186ZM31.6588 14.2408L32.4305 12.6757L32.7442 13.6386L31.9076 15.3118C31.9076 15.3118 31.904 15.3191 31.9004 15.3227C31.9004 15.3227 31.8968 15.3299 31.8932 15.3335C31.8679 15.3623 31.821 15.4092 31.7489 15.4453C31.702 15.4669 31.6443 15.4849 31.5758 15.4849H31.0457L31.6588 14.2408ZM30.4543 11.4424C30.4146 11.1575 30.5444 10.9916 30.6166 10.8835C30.6887 10.7717 30.8221 10.7248 30.631 10.3642C30.4435 10.0072 30.9303 9.89176 30.8329 9.62129C30.7464 9.38328 30.9051 8.90727 31.2404 8.90727C31.244 8.90727 31.2477 8.90727 31.2549 8.90727C31.2585 8.90727 31.2621 8.90727 31.2693 8.90727C31.6083 8.90727 31.7633 9.38328 31.6804 9.62129C31.583 9.89176 32.0663 10.0072 31.8823 10.3642C31.6948 10.7248 31.8246 10.7717 31.8968 10.8835C31.9689 10.9916 32.0987 11.1575 32.059 11.4424C32.0302 11.648 31.7309 11.8139 31.4929 11.9112L31.4712 11.9184L31.2621 10.292L31.0529 11.922H31.0421C30.8005 11.8211 30.4867 11.648 30.4579 11.4388M29.0839 18.0093V15.6328H29.8665L29.0839 18.0093ZM29.7583 16.8012L30.072 15.8383L31.4568 18.6476H30.9267C30.7175 18.6476 30.6094 18.4961 30.5949 18.4745L29.7583 16.8012ZM29.0912 23.8008V21.4243H29.8737L29.0912 23.8008ZM29.7222 22.7334L30.0684 21.6695L30.6743 23.1048L31.4712 24.9908H30.9267C30.8113 24.9908 30.7284 24.9331 30.6743 24.879C30.631 24.8358 30.6058 24.7961 30.6021 24.7853L29.7258 22.737L29.7222 22.7334ZM26.1341 8.83154C25.8744 8.70172 25.6112 8.57911 25.3443 8.4601L25.5463 7.98769C25.8203 8.1103 26.0944 8.23652 26.3613 8.37355L26.1341 8.83154ZM23.7107 7.96606C24.01 8.07063 24.3094 8.17882 24.6015 8.29782L24.3887 8.79548C24.1038 8.68008 23.8153 8.57189 23.5232 8.47092L23.7071 7.96606H23.7107ZM23.397 8.42765C23.0508 8.30864 22.6974 8.20046 22.344 8.10309L22.4954 7.58741C22.8633 7.68838 23.2239 7.80017 23.5809 7.92278L23.3934 8.42765H23.397ZM24.3346 8.04179L24.5149 7.55856C24.8214 7.67756 25.128 7.80017 25.4273 7.9336L25.2253 8.40601C24.9332 8.27619 24.6339 8.15718 24.3346 8.04179ZM24.2084 7.9949C23.8694 7.86869 23.5268 7.75329 23.1806 7.64511L23.3321 7.15106C23.6891 7.26285 24.0389 7.38185 24.3887 7.51528L24.2084 7.99851V7.9949ZM23.0544 7.60183C22.6649 7.48283 22.2719 7.37464 21.8752 7.28088L21.9906 6.77602C22.4017 6.87338 22.8056 6.98517 23.2059 7.10778L23.0544 7.60183ZM22.3692 7.55134L22.2178 8.06342C21.8824 7.97327 21.5434 7.89033 21.2044 7.8182L21.3234 7.29891C21.6768 7.37464 22.023 7.45758 22.3692 7.54774M21.7454 7.25203C21.4028 7.1727 21.053 7.10057 20.7032 7.03927L20.7897 6.52719C21.1503 6.5921 21.5074 6.66422 21.8608 6.74717L21.7454 7.25203ZM21.1936 7.27367L21.0746 7.79296C20.7428 7.72444 20.4075 7.66314 20.0685 7.61265L20.155 7.09336C20.5048 7.14385 20.851 7.20515 21.1936 7.27728M20.5733 7.02124C20.2524 6.96714 19.9278 6.92026 19.5997 6.88059L19.6574 6.36491C19.9928 6.40458 20.3281 6.45507 20.6599 6.50916L20.5733 7.02124ZM20.0216 7.07533L19.9351 7.59462C19.6105 7.54774 19.2823 7.50807 18.9506 7.47922L19.0083 6.95993C19.3472 6.98878 19.6862 7.02845 20.0216 7.07893M19.4663 6.86617C19.1417 6.83011 18.8099 6.80126 18.4818 6.77962L18.5106 6.26033C18.8496 6.28197 19.1886 6.31082 19.524 6.34688L19.4663 6.86256V6.86617ZM18.8748 6.94551L18.8171 7.4648C18.5178 7.43955 18.2149 7.42152 17.9156 7.4107L17.9444 6.89141C18.2582 6.90223 18.5683 6.92026 18.8748 6.94551ZM18.3483 6.77241C18.013 6.75438 17.674 6.74356 17.335 6.74356V6.22427C17.6848 6.22427 18.031 6.23509 18.3772 6.25312L18.3483 6.77241ZM17.811 6.88781L17.7822 7.4071C17.6091 7.40349 17.436 7.39989 17.2665 7.39989C17.097 7.39989 16.9167 7.39989 16.7436 7.4071L16.7147 6.88781C16.8986 6.8842 17.0826 6.88059 17.2665 6.88059C17.4504 6.88059 17.6307 6.88059 17.811 6.88781ZM17.2016 6.74356C16.859 6.74356 16.52 6.75438 16.181 6.77241L16.1522 6.25312C16.4984 6.23509 16.8482 6.22427 17.2016 6.22066V6.73995V6.74356ZM16.5813 6.89141L16.6102 7.4107C16.3072 7.42152 16.0079 7.43955 15.7086 7.46119L15.6509 6.9419C15.9574 6.91666 16.2676 6.89863 16.5813 6.88781M15.0595 6.86617L15.0018 6.35049C15.3372 6.31442 15.6762 6.28197 16.0151 6.26033L16.044 6.77962C15.7122 6.80126 15.3841 6.83011 15.0595 6.86617ZM15.5175 6.95633L15.5716 7.47561C15.2398 7.50446 14.9153 7.54413 14.5871 7.58741L14.5005 7.07533C14.8359 7.02845 15.1749 6.98878 15.5139 6.95633M13.956 7.02124L13.8695 6.50916C14.2012 6.45146 14.533 6.40458 14.872 6.36491L14.9297 6.88059C14.6015 6.92026 14.2806 6.96714 13.956 7.02124ZM14.3707 7.09336L14.4573 7.60544C14.1183 7.65592 13.7829 7.71362 13.4511 7.78214L13.3357 7.27728C13.6783 7.20876 14.0245 7.14745 14.3743 7.09336M12.7804 7.25564L12.665 6.75077C13.0184 6.66783 13.3754 6.59571 13.736 6.5308L13.8226 7.04287C13.4728 7.10418 13.1266 7.1763 12.7804 7.25564ZM13.2023 7.30252L13.3177 7.80738C12.9751 7.87951 12.6397 7.95884 12.3044 8.049L12.1565 7.55134C12.5027 7.45758 12.8489 7.37464 13.2023 7.29891M10.9412 7.92278C11.2983 7.80017 11.6625 7.68838 12.0267 7.58741L12.1746 8.08506C11.8175 8.18243 11.4677 8.29061 11.1179 8.40962L10.9412 7.92278ZM10.9953 8.45289C10.7032 8.55386 10.4147 8.66205 10.1262 8.77384L9.92429 8.29782C10.2164 8.17882 10.5157 8.07063 10.815 7.96606L10.9953 8.45289ZM11.4713 7.60544L11.3199 7.11139C11.7202 6.98878 12.1241 6.88059 12.5352 6.78323L12.6506 7.28809C12.2539 7.38185 11.8572 7.49004 11.4713 7.60904M11.3451 7.64511C10.9989 7.75329 10.6564 7.86869 10.3174 7.9949L10.1371 7.51168C10.4833 7.38185 10.8367 7.25924 11.1937 7.14745L11.3451 7.6415V7.64511ZM10.1948 8.04539C9.89545 8.16079 9.59613 8.27979 9.30403 8.40962L9.10209 7.93721C9.4014 7.80378 9.70792 7.68117 10.0144 7.56577L10.1948 8.049V8.04539ZM9.80168 8.35192L10.0036 8.82793C9.56007 9.01185 9.12012 9.20658 8.69459 9.42295L8.46379 8.96136C8.90014 8.74138 9.34731 8.53944 9.80168 8.35192ZM8.75229 9.55278C11.3163 8.26537 14.2084 7.53692 17.2701 7.53692C20.3317 7.53692 23.2239 8.26537 25.7915 9.54917C25.8384 9.57441 25.8672 9.61769 25.8672 9.67178C25.8672 9.74751 25.8059 9.80882 25.7302 9.80882C25.7086 9.80882 25.6905 9.8016 25.6725 9.79439C23.1446 8.52862 20.2921 7.8146 17.2701 7.8146C14.2481 7.8146 11.3992 8.52862 8.87129 9.79439C8.86768 9.79439 8.86408 9.798 8.86047 9.8016C8.84605 9.80521 8.83162 9.81242 8.8172 9.81242C8.74147 9.81242 8.68016 9.75112 8.68016 9.67539C8.68016 9.62129 8.71262 9.57441 8.75589 9.55278M25.8312 9.44098C25.3984 9.22461 24.9585 9.02627 24.5113 8.84596L24.7241 8.34831C25.1821 8.53583 25.6292 8.73778 26.0692 8.95776L25.8312 9.43738V9.44098ZM27.4936 6.08723C27.234 5.99347 26.9347 6.10527 26.8084 6.3577L26.1593 7.65592C26.08 7.61986 26.0007 7.5838 25.9213 7.54774L26.574 6.2423C26.7652 5.85644 27.2195 5.69416 27.6126 5.85283L27.4936 6.08723ZM22.5604 4.27333C22.261 4.20481 21.9617 4.39233 21.8932 4.68804L21.5651 6.10527V6.11608C21.4749 6.09805 21.392 6.08363 21.3054 6.0656L21.6372 4.62673C21.7345 4.21202 22.1312 3.94877 22.5459 4.00647C22.5459 4.00647 22.6 4.01729 22.6217 4.02089C22.6433 4.0245 22.6902 4.03892 22.6902 4.03892C23.0869 4.16875 23.3285 4.57985 23.2347 4.99817L22.8993 6.44425C22.8164 6.419 22.7298 6.39737 22.6469 6.37573V6.36491L22.9823 4.94047C23.0508 4.64116 22.8633 4.34184 22.5676 4.27333M18.2221 4.92965V4.29136C18.6296 4.30939 19.0371 4.34184 19.441 4.38151L19.697 5.04505C19.2102 4.99096 18.7162 4.95129 18.2221 4.92965ZM19.7007 5.18208L19.6466 5.69777L19.6321 5.81317C19.4194 5.78792 19.203 5.76989 18.9866 5.75186L19.0335 5.11717C19.2571 5.1352 19.4807 5.15684 19.7007 5.18569M18.8857 5.10635L18.8388 5.73743C18.6368 5.72301 18.4313 5.70859 18.2257 5.70137V5.06669C18.4457 5.0775 18.6657 5.09193 18.8857 5.10635ZM16.7147 5.68334C16.6282 5.68334 16.538 5.69055 16.4515 5.69416V4.23005C16.4443 3.80452 16.7724 3.45472 17.1908 3.41505C17.1908 3.41505 17.2376 3.41505 17.2665 3.41505C17.2917 3.41505 17.335 3.41505 17.335 3.41505C17.7533 3.45112 18.0815 3.79731 18.0815 4.22284V5.69055C17.9985 5.69055 17.912 5.68334 17.8218 5.67974V4.21923C17.8182 3.91271 17.5658 3.66388 17.2593 3.66388C16.9527 3.66388 16.7039 3.91631 16.7039 4.22284V5.67974L16.7147 5.68334ZM11.5579 4.96211L11.8969 6.37573C11.8139 6.39737 11.7274 6.42261 11.6444 6.44425L11.3019 5.02341C11.2009 4.6087 11.4389 4.19399 11.8356 4.06056C11.8356 4.06056 11.8861 4.04614 11.9041 4.04253C11.9221 4.03892 11.9762 4.02811 11.9762 4.02811C12.3909 3.9668 12.7912 4.22645 12.8922 4.64116L13.2348 6.0692C13.1482 6.08723 13.0617 6.10166 12.9751 6.11969L12.6361 4.70607C12.564 4.40675 12.2647 4.22284 11.9654 4.29496C11.6661 4.36709 11.4822 4.6664 11.5543 4.96571M7.67404 5.44173L7.41439 4.86474C7.60552 4.77819 7.79304 4.69525 7.98777 4.61231L8.0022 4.62673L8.50346 5.08472C8.22578 5.20011 7.94811 5.31551 7.67404 5.44173ZM8.61164 5.18569L9.13454 5.66531C8.91456 5.75186 8.69819 5.83841 8.48182 5.93217L8.233 5.34436C8.35921 5.29027 8.48182 5.23978 8.60804 5.1893M8.10317 5.39845L8.352 5.98626C8.25103 6.02954 8.15005 6.07281 8.04908 6.11608C7.91565 5.8925 7.70289 5.74465 7.46488 5.68695C7.67764 5.58598 7.89041 5.49221 8.10678 5.39845M9.24994 5.76628L9.77283 6.24591C9.30764 6.419 8.84965 6.60652 8.39888 6.80847L8.11399 6.23869C8.48543 6.0692 8.86408 5.91414 9.24633 5.76628M9.4014 5.70859C9.55646 5.65089 9.71153 5.59319 9.8666 5.53909L9.79808 6.07281L9.4014 5.71219V5.70859ZM9.02636 6.68586L9.27518 7.26646C9.09848 7.34219 8.91817 7.41431 8.74507 7.49365L8.46379 6.93108C8.65131 6.84814 8.83883 6.7652 9.02636 6.68947M9.15978 6.62816C9.37615 6.53801 9.59613 6.45507 9.81972 6.37212L10.0325 6.96354C9.82332 7.03927 9.61416 7.12221 9.40861 7.20515L9.15978 6.62456V6.62816ZM11.6517 2.94264C12.2359 2.802 12.8237 2.69021 13.4079 2.59645L13.2925 2.92101C12.7696 3.00756 12.2467 3.11213 11.7238 3.23835C11.1937 3.36457 10.6744 3.50881 10.1623 3.66749L9.90987 3.42948C10.4796 3.24917 11.0602 3.08329 11.6553 2.94264M10.9088 2.99313L10.7645 2.47384C11.0061 2.40893 11.2514 2.34402 11.4966 2.28632C11.7418 2.22862 11.987 2.17813 12.2359 2.12765L12.3368 2.65776C12.0988 2.70824 11.8608 2.75512 11.6228 2.81282C11.3848 2.87052 11.1468 2.93183 10.9124 2.99674M12.7804 3.80092L12.6578 3.17705C12.8633 3.13738 13.0725 3.10132 13.278 3.06525L13.2961 3.0905L13.6747 3.64224C13.3754 3.68912 13.0761 3.73961 12.7804 3.80092ZM13.7613 3.76485L14.1652 4.34906C13.9704 4.3779 13.7721 4.40675 13.5774 4.43921L13.4692 3.81173C13.5665 3.79731 13.6639 3.78288 13.7649 3.76485M13.3249 3.83698L13.4331 4.46445C13.2889 4.4897 13.1482 4.51133 13.004 4.54018C12.9246 4.29136 12.7515 4.10023 12.5316 3.98844C12.7948 3.93434 13.0581 3.88386 13.3249 3.83698ZM12.29 3.90189C12.1782 3.88025 12.0628 3.87665 11.9474 3.89468L11.8175 3.35736C12.0519 3.30326 12.2827 3.25278 12.5171 3.2059L12.6397 3.82977C12.5244 3.85501 12.4053 3.88025 12.29 3.90549M11.1576 4.98014C11.0206 5.0198 10.8835 5.06308 10.7501 5.10275L10.559 4.4933C10.815 4.41397 11.0711 4.34184 11.3307 4.27333C11.1829 4.47167 11.1179 4.7241 11.1576 4.98014ZM10.1515 4.47888L10.238 3.82255V3.78649C10.44 3.72519 10.6383 3.66388 10.8403 3.60979L11.0134 4.21923C10.7249 4.29857 10.4364 4.38512 10.1515 4.47888ZM11.154 4.17956L10.9809 3.57012C11.2117 3.50881 11.4425 3.44751 11.6769 3.38981L11.8067 3.92713C11.6985 3.96319 11.5976 4.01729 11.511 4.0858C11.392 4.11465 11.273 4.14711 11.154 4.17956ZM10.4219 4.53658L10.6131 5.14602C10.4219 5.20733 10.2308 5.26863 10.0433 5.33354L10.1371 4.63034C10.2344 4.59788 10.3282 4.56543 10.4256 4.53658M11.1829 5.11357L11.3307 5.73383C10.8547 5.87086 10.3859 6.02232 9.92429 6.18821L10.0181 5.485C10.4003 5.35157 10.7898 5.22896 11.1829 5.11717M9.96757 6.31803C10.1731 6.24591 10.3787 6.17378 10.5842 6.10527L10.7681 6.7075C10.5662 6.77241 10.3679 6.84093 10.1731 6.91305L9.97118 6.31803H9.96757ZM10.7213 6.06199C10.934 5.99347 11.1468 5.92856 11.3632 5.86726L11.511 6.48031C11.3055 6.53801 11.1035 6.59931 10.9052 6.66422L10.7213 6.06199ZM13.2203 5.4237C13.4367 5.38403 13.6567 5.34436 13.8731 5.3083L13.974 5.93577C13.7721 5.96823 13.5701 6.00429 13.3682 6.04035L13.2203 5.4237ZM13.1915 5.29387L13.0436 4.67361C13.4439 4.59788 13.8442 4.53297 14.2517 4.47888L14.6556 5.06669C14.1616 5.12438 13.6747 5.20372 13.1915 5.29387ZM14.6845 5.19651L14.7602 5.79153V5.82398C14.5474 5.84923 14.3347 5.87808 14.1183 5.91053L14.0173 5.28666C14.2373 5.25421 14.4609 5.22175 14.6845 5.19651ZM14.7313 4.92244L14.4104 4.45363C14.5835 4.432 14.7566 4.41036 14.9333 4.39233L14.7313 4.91883V4.92244ZM14.8431 5.04144L15.0956 4.3779C15.4995 4.33824 15.9033 4.30939 16.3108 4.29136V4.92604C15.8168 4.94768 15.3264 4.98735 14.8431 5.04144ZM15.5355 5.74825C15.3264 5.76628 15.1172 5.78432 14.908 5.80956V5.7735L14.8359 5.17848C15.0559 5.15323 15.2759 5.1316 15.4958 5.11357L15.5355 5.74825ZM17.2701 2.28632C17.8723 2.28632 18.4673 2.31156 19.0588 2.35484L18.8712 2.64694C18.3411 2.61088 17.811 2.59284 17.2701 2.59284C16.7292 2.59284 16.1882 2.61448 15.6545 2.65054L15.4634 2.35844C16.062 2.31517 16.6642 2.28632 17.2737 2.28632M15.3624 2.22862L15.3155 1.6913C15.6653 1.66245 16.0151 1.64442 16.3685 1.62999L16.3902 2.17092C16.0512 2.18535 15.7014 2.20338 15.3624 2.23223M16.5128 1.62278C16.7652 1.61557 17.014 1.60836 17.2701 1.60836C17.5261 1.60836 17.775 1.61557 18.0238 1.62278L18.0021 2.1601C17.7605 2.15289 17.5153 2.14568 17.2701 2.14568C17.0249 2.14568 16.7796 2.15289 16.5344 2.1601L16.5128 1.61918V1.62278ZM18.1464 2.16732L18.168 1.62999C18.5142 1.64081 18.8604 1.66245 19.203 1.68769L19.1633 2.18895L19.1417 2.22141C18.8099 2.19616 18.4782 2.17813 18.1464 2.16732ZM18.1716 3.37539L18.1969 2.7443C18.406 2.75152 18.6152 2.76594 18.8244 2.78037L18.8352 2.80922L19.0732 3.42587C18.7739 3.40424 18.4746 3.38981 18.1716 3.37899M19.1273 3.56291L19.3869 4.23726C19.1886 4.21923 18.9938 4.2012 18.7955 4.18678L18.8352 3.54127C18.9325 3.54848 19.0299 3.5557 19.1273 3.5593M18.049 2.7407L18.0238 3.37539C17.9048 3.37539 17.7858 3.36817 17.6668 3.36817C17.5658 3.32129 17.454 3.28884 17.3386 3.28163V2.72988C17.5766 2.72988 17.8146 2.73709 18.0526 2.7443M17.1908 3.28163C17.0754 3.29244 16.9672 3.32129 16.8662 3.36817C16.7436 3.36817 16.621 3.37178 16.4984 3.37539L16.4695 2.7407C16.7075 2.73349 16.9491 2.72627 17.1871 2.72627V3.27802L17.1908 3.28163ZM15.6906 2.81643L15.705 2.78037C15.9106 2.76594 16.1197 2.75512 16.3253 2.7443L16.3541 3.37899C16.0548 3.38981 15.7555 3.40784 15.4562 3.43309L15.6906 2.81643ZM15.705 3.55209L15.7483 4.19038C15.5499 4.20481 15.3516 4.21923 15.1497 4.24087L15.4021 3.57733C15.5031 3.57012 15.604 3.5593 15.705 3.55209ZM16.3144 5.06308V5.69777C16.1053 5.70859 15.8925 5.7194 15.6834 5.73383L15.6437 5.09914C15.8673 5.08111 16.0909 5.07029 16.3144 5.05947M15.8925 4.17956L15.8493 3.54127C16.1161 3.52324 16.383 3.51242 16.6498 3.50521C16.4623 3.66388 16.3397 3.89468 16.3181 4.15432C16.1738 4.16153 16.0332 4.16875 15.8925 4.17956ZM17.8795 3.50521C18.15 3.51242 18.4205 3.52324 18.6873 3.53766L18.6476 4.18317C18.5034 4.17596 18.3592 4.16514 18.2113 4.15793C18.1897 3.89828 18.0671 3.66749 17.8795 3.50881M19.6069 4.39594C19.7764 4.41397 19.9495 4.432 20.119 4.45363L19.8088 4.91162L19.6069 4.39233V4.39594ZM19.7908 5.68695L19.8485 5.19651C20.0685 5.22175 20.2885 5.25421 20.5048 5.28666L20.3966 5.91053C20.1911 5.87808 19.9819 5.84923 19.7728 5.82759L19.7872 5.68695H19.7908ZM19.881 5.06669L20.2776 4.47888C20.6851 4.53297 21.089 4.59788 21.4857 4.67361L21.3415 5.29387C20.8582 5.20011 20.3714 5.12438 19.881 5.06308M22.8813 2.92461C23.4655 3.06165 24.0425 3.22393 24.6051 3.40063L24.3562 3.63864C23.8478 3.48357 23.3357 3.34293 22.8128 3.22032C22.2827 3.0941 21.7526 2.99313 21.2261 2.90658L21.1071 2.57842C21.6985 2.67218 22.2899 2.78397 22.8849 2.92461M22.1925 2.63612L22.2971 2.10601C22.5423 2.1565 22.7912 2.20698 23.0364 2.26468C23.2816 2.32238 23.5232 2.38729 23.7684 2.4522L23.6242 2.97149C23.3898 2.91019 23.1554 2.84528 22.9174 2.79118C22.6794 2.73349 22.4377 2.683 22.1997 2.63612M23.3717 4.13629C23.2383 4.10023 23.1049 4.06777 22.9679 4.03171C22.8921 3.98122 22.8092 3.93434 22.719 3.90549L22.8452 3.36817C23.076 3.42227 23.3068 3.48357 23.5376 3.54488L23.3717 4.13629ZM23.6783 3.58454C23.8802 3.64224 24.0822 3.69994 24.2841 3.76125V3.7901L24.3779 4.43921C24.093 4.34545 23.8045 4.2589 23.516 4.17596L23.6819 3.58094L23.6783 3.58454ZM23.9776 4.45724L23.7865 5.08832L23.7792 5.10996C23.6422 5.06669 23.5052 5.0198 23.3681 4.98014C23.4186 4.70246 23.3429 4.432 23.177 4.22645C23.4439 4.29857 23.7107 4.3743 23.9776 4.45724ZM24.5221 5.48861L24.6195 6.1846V6.19542C24.1507 6.02954 23.6819 5.87447 23.2023 5.73743L23.3465 5.11717C23.7432 5.22896 24.1363 5.35518 24.5221 5.48861ZM23.9199 5.15323V5.14242H23.9235L24.1182 4.49691C24.212 4.52576 24.3021 4.55821 24.3959 4.58706L24.5005 5.32994C24.3094 5.26503 24.1146 5.20733 23.9199 5.14963M21.8824 3.7901L21.9978 3.18786C22.2322 3.23475 22.4666 3.28523 22.701 3.33932L22.5748 3.87665C22.481 3.86222 22.3909 3.86583 22.3043 3.87665C22.1637 3.8478 22.0266 3.81534 21.886 3.7901M22.0266 3.95598C21.7886 4.06777 21.6011 4.27693 21.5218 4.54379C21.3847 4.51855 21.2441 4.4933 21.1035 4.46806L21.2116 3.80452C21.4857 3.8514 21.7562 3.89828 22.0266 3.95598ZM21.2405 3.05083C21.446 3.08689 21.648 3.11935 21.8535 3.15902L21.7381 3.76485C21.446 3.71076 21.1539 3.66027 20.8582 3.617L21.2405 3.05083ZM21.071 3.78288L20.9628 4.44282C20.7645 4.41036 20.5661 4.38151 20.3642 4.35266L20.7789 3.73961C20.8763 3.75404 20.9736 3.76846 21.071 3.78288ZM20.6491 5.3083C20.8691 5.34436 21.089 5.38403 21.309 5.4237L21.1648 6.04035C20.9592 6.00069 20.7501 5.96462 20.5409 5.93217L20.6491 5.3083ZM23.1698 5.86726C23.3826 5.92856 23.5917 5.99347 23.8045 6.05838L23.6134 6.66062C23.4186 6.59931 23.2239 6.53801 23.0256 6.48391L23.1698 5.86726ZM23.9415 6.10527C24.1543 6.17378 24.3634 6.24591 24.569 6.32164L24.3671 6.91666C24.1651 6.84453 23.9596 6.77241 23.7504 6.7075L23.9415 6.10527ZM24.7132 6.37212C24.9368 6.45507 25.1568 6.54161 25.3768 6.62816L25.128 7.20876C24.9224 7.12581 24.7132 7.04287 24.5041 6.96714L24.7132 6.37573V6.37212ZM26.0475 5.0739L26.5344 4.62673L26.5488 4.61231C26.7399 4.69164 26.931 4.77819 27.1222 4.86474L26.8625 5.44173C26.5921 5.31191 26.318 5.1893 26.0475 5.0739ZM27.0681 5.69055C26.8337 5.74825 26.6209 5.89971 26.4875 6.11969C26.3865 6.07281 26.2855 6.03314 26.1846 5.98987L26.437 5.39485C26.6462 5.49221 26.8589 5.58958 27.0681 5.69416M26.3036 5.32994L26.0511 5.92856C25.8348 5.8348 25.6184 5.74825 25.3984 5.66171L25.9357 5.17126C26.0584 5.22175 26.181 5.27584 26.3036 5.32994ZM26.4226 6.23869L26.1377 6.80847C25.6869 6.60652 25.2289 6.419 24.7637 6.24591L25.2866 5.76628C25.6689 5.91414 26.0475 6.0692 26.419 6.23869M24.7493 6.06199L24.6772 5.53909C24.8323 5.59319 24.9837 5.65089 25.1388 5.70859L24.7493 6.06199ZM25.5102 6.68586C25.6977 6.7652 25.8889 6.84453 26.0728 6.92747L25.7915 7.49004C25.6148 7.4107 25.4381 7.33858 25.2614 7.26285L25.5102 6.68225V6.68586ZM27.6703 5.73022C27.6703 5.73022 27.6523 5.72301 27.6451 5.7194C27.5369 5.67613 27.4215 5.6581 27.3097 5.6581C27.2051 5.60401 27.0969 5.55352 26.9924 5.50303L27.252 4.92244C27.4756 5.02341 27.6956 5.1316 27.9119 5.23978L27.6631 5.73022H27.6703ZM27.9804 5.11717C27.5225 4.88638 27.0537 4.67361 26.5813 4.47527V4.44642L26.5272 4.12187C27.032 4.33102 27.5477 4.56182 28.0381 4.80343C28.0634 4.81425 28.2004 4.88277 28.2906 4.92604L27.9804 5.11357V5.11717ZM26.9779 4.16875L27.2015 3.67831C27.49 3.80452 27.7785 3.93434 28.0598 4.07138L27.8362 4.56182C27.5549 4.42478 27.2664 4.29496 26.9779 4.16875ZM28.4132 4.84671C28.3339 4.80704 28.0129 4.64837 27.966 4.62673L28.1896 4.13629C28.2437 4.16153 28.2978 4.18678 28.3519 4.21202C28.3771 4.22284 28.6007 4.34184 28.6548 4.36709L28.4096 4.84671H28.4132ZM28.7377 2.88495L29.0839 3.04362L29.2534 3.13017L29.2823 3.14459H29.2859L29.0335 3.63503C28.8928 3.56291 28.6909 3.46554 28.4961 3.36817L28.7341 2.88495H28.7377ZM28.9721 3.75764L28.7161 4.25169C28.6404 4.21202 28.0165 3.89828 27.8146 3.80452L28.0381 3.29605C28.3014 3.42227 28.7269 3.63503 28.9721 3.75764ZM27.2159 2.18895L27.847 2.47745L27.6126 2.95707C27.4107 2.87052 27.2123 2.78397 27.0068 2.70103L27.2123 2.18895H27.2159ZM26.9599 2.82725C27.2772 2.95707 27.5946 3.0941 27.9083 3.23835L27.6847 3.74682C27.3782 3.60618 27.0645 3.46915 26.7507 3.34293L26.9563 2.83085L26.9599 2.82725ZM26.5163 3.92713L26.7003 3.46915C26.8229 3.51963 26.9419 3.57373 27.0645 3.62421L26.8409 4.11465C26.7327 4.06777 26.6065 4.01368 26.4983 3.97041L26.5127 3.92713H26.5163ZM25.7735 4.29857C25.9826 4.3779 26.1954 4.46085 26.4009 4.5474L25.8961 5.00899C25.7807 4.96211 25.6689 4.91523 25.5571 4.86835L25.7735 4.29857ZM25.7879 5.10996L25.247 5.60401C25.0486 5.52828 24.8539 5.45615 24.6519 5.38764L24.5474 4.64116C24.9621 4.7818 25.3768 4.94047 25.7879 5.10996ZM25.0198 3.99926L24.8142 4.59428C24.7205 4.56182 24.6231 4.52576 24.5293 4.4933L24.4356 3.80813C24.6592 3.87665 24.8034 3.92353 25.0234 3.99926M24.7457 3.26359L24.7169 3.29244C24.3995 3.19147 24.0822 3.09771 23.7576 3.01116L23.9019 2.49187C24.2372 2.58203 24.569 2.67939 24.8972 2.78397L24.7421 3.26359H24.7457ZM24.944 2.65415C24.8719 2.63251 24.7962 2.61088 24.7241 2.58924L24.8827 2.05913C24.9585 2.08437 25.0378 2.10601 25.1135 2.12765L24.944 2.65415ZM24.6988 1.29823C24.908 1.35953 25.1135 1.41723 25.3191 1.48214L25.1532 1.99782C24.9513 1.93652 24.7493 1.87521 24.5474 1.81752L24.6952 1.29823H24.6988ZM24.7421 2.01946L24.5834 2.54957C24.1074 2.40532 23.6278 2.27189 23.1373 2.1565L23.2636 1.61918C23.7648 1.73818 24.2553 1.87521 24.7457 2.02307M22.8885 0.836634C23.04 0.86909 23.1914 0.905152 23.3429 0.937607C23.4944 0.973669 23.6458 1.01334 23.7973 1.05301L23.6602 1.5759C23.5124 1.53984 23.3681 1.49657 23.2203 1.46411C23.0724 1.42805 22.9282 1.3992 22.7803 1.36674L22.8885 0.836634ZM22.005 1.34871C22.3764 1.41723 22.7479 1.49296 23.1193 1.57951L22.9931 2.11683C22.5027 2.00143 22.0158 1.90406 21.5254 1.82473L21.6155 1.2838C21.6985 1.29823 21.7778 1.30904 21.8608 1.32347L22.005 1.35232V1.34871ZM21.3126 0.540927C21.5362 0.576989 21.7562 0.613051 21.9798 0.652719L21.886 1.19004C21.6696 1.15037 21.4533 1.11792 21.2369 1.08185L21.3162 0.540927H21.3126ZM21.2153 1.21528C21.3018 1.22971 21.3883 1.24413 21.4749 1.25856L21.3847 1.79948C21.3018 1.78506 21.2189 1.77424 21.1359 1.75982L21.2153 1.21528ZM21.1143 1.89685C21.4605 1.95094 21.8067 2.00864 22.1529 2.07716L22.0483 2.60727C21.7129 2.54236 21.3811 2.48466 21.0458 2.43417L21.0349 2.40532L21.1107 1.90046L21.1143 1.89685ZM20.4724 2.95707V2.93183C20.7032 2.96068 20.8582 2.98592 21.0818 3.02198L20.6996 3.58815C20.5986 3.57373 20.4976 3.56291 20.3966 3.55209L20.4724 2.95707ZM20.6166 3.71437L20.2019 4.32742C19.9855 4.29857 19.7692 4.27333 19.5528 4.25169L19.2896 3.57373C19.7403 3.60979 20.1803 3.65306 20.6166 3.71437ZM19.5997 2.84167L19.5384 3.45833C19.4374 3.45112 19.3364 3.4439 19.2355 3.43309L18.9866 2.78758C19.2174 2.802 19.3725 2.81643 19.5997 2.83806M19.2174 1.55066C19.1417 1.54705 19.0624 1.54345 18.9866 1.53623L19.0227 0.984488C19.102 0.9917 19.185 0.995306 19.2643 0.998912L19.221 1.55066H19.2174ZM18.6693 0.288495C18.8857 0.299313 19.102 0.310132 19.3184 0.328163L19.2751 0.865484C19.066 0.851059 18.8568 0.84024 18.644 0.829422L18.6693 0.288495ZM18.8748 0.977275L18.8388 1.52902C18.3447 1.49657 17.8435 1.47853 17.3422 1.47493V0.923182C17.8543 0.923182 18.3664 0.94482 18.8748 0.977275ZM16.8013 0.248827C16.9564 0.248827 17.1114 0.24522 17.2701 0.24522C17.4288 0.24522 17.5838 0.252433 17.7389 0.256039L17.7245 0.796966C17.573 0.796966 17.4215 0.786148 17.2701 0.786148C17.1186 0.786148 16.9708 0.786148 16.8193 0.79336L16.8013 0.252433V0.248827ZM15.9106 0.962851L16.0548 0.955638C16.4335 0.934001 16.8121 0.926789 17.1944 0.923182V1.47493C16.6931 1.47493 16.1954 1.49296 15.7014 1.52541L15.6653 0.977275C15.7483 0.973669 15.8312 0.966457 15.9142 0.959244L15.9106 0.962851ZM15.2001 0.32095C15.4237 0.306525 15.6473 0.288495 15.8745 0.277676L15.9033 0.822209C15.6834 0.833028 15.4634 0.851059 15.247 0.865484L15.2001 0.32095ZM15.2578 1.00612C15.3444 0.998912 15.4309 0.995306 15.5175 0.988094L15.5535 1.53623C15.4706 1.54345 15.3841 1.54705 15.3011 1.55426L15.2542 1.00612H15.2578ZM15.5427 2.79118L15.5319 2.82003L15.2939 3.4439C15.1965 3.45112 15.0956 3.46193 14.9982 3.47275L14.9333 2.86691V2.84167C15.1569 2.82003 15.3155 2.80922 15.5427 2.79118ZM15.2398 3.58815L14.9874 4.25169C14.7638 4.27333 14.5438 4.29857 14.3238 4.32742L13.9199 3.73961C14.3563 3.6747 14.7962 3.62421 15.2398 3.58454M14.0462 2.94625L14.1291 3.57733C14.0317 3.59176 13.9308 3.60258 13.8334 3.617L13.4331 3.03641C13.6639 2.99674 13.8154 2.9751 14.0426 2.94625M13.4728 2.41254L13.4584 2.4486C13.1302 2.49908 12.802 2.56039 12.4739 2.6253L12.3729 2.09519C12.7119 2.02667 13.0545 1.96537 13.3934 1.91128L13.4692 2.40893L13.4728 2.41254ZM13.3754 1.77785C13.2997 1.79227 13.224 1.8067 13.1482 1.81752L13.0545 1.27298C13.1338 1.25856 13.2131 1.24413 13.2925 1.23331L13.3754 1.77785ZM13.1915 0.562564L13.2744 1.09628C13.0689 1.12873 12.8597 1.1684 12.6506 1.20446L12.5532 0.674356C12.766 0.634688 12.9787 0.59502 13.1915 0.562564ZM12.9102 1.29823L13.004 1.84276C12.5135 1.9257 12.0231 2.02307 11.5363 2.13847L11.4064 1.60114C11.9077 1.48214 12.409 1.38477 12.9102 1.29823ZM10.7285 1.07104C10.8799 1.03137 11.0314 0.995306 11.1829 0.959244C11.3343 0.923183 11.4894 0.890727 11.6408 0.861878L11.7526 1.38838C11.6048 1.42084 11.4569 1.44968 11.3091 1.48575C11.1612 1.52181 11.017 1.55787 10.8727 1.59393L10.7321 1.07104H10.7285ZM10.0253 1.96537L10.1659 1.9257C10.5301 1.81752 10.8944 1.72015 11.2658 1.62999L11.3956 2.16732C10.9088 2.28632 10.4256 2.41614 9.95314 2.56039L9.79087 2.03749C9.8702 2.01225 9.94954 1.98701 10.0289 1.96537M9.18503 1.51099C9.39779 1.44247 9.61416 1.37756 9.83053 1.31265L9.9856 1.83555C9.77283 1.89685 9.56368 1.96176 9.35452 2.03028L9.18503 1.51099ZM9.57089 2.68661L9.39779 2.16371C9.48073 2.13847 9.56368 2.11322 9.64662 2.08437L9.8089 2.61088C9.72956 2.63612 9.64662 2.66136 9.56728 2.68661M9.79447 3.32129L9.76923 3.29966L9.61056 2.81282C9.94593 2.70464 10.2813 2.60366 10.6203 2.5099L10.7645 3.02919C10.4364 3.11935 10.1118 3.21671 9.79087 3.32129M10.0902 3.83337V3.86583L10 4.52936C9.90626 4.56182 9.8125 4.59428 9.71874 4.62673V4.61952L9.51319 4.04974L9.50598 4.0245C9.72235 3.94877 9.8702 3.90189 10.0902 3.83337ZM9.97839 4.67722L9.88463 5.38403C9.68268 5.45255 9.48434 5.52828 9.286 5.6004L8.7595 5.12078C9.15978 4.96211 9.56728 4.81425 9.97839 4.67722ZM8.7631 4.29857L8.98669 4.88998C8.8749 4.93326 8.7631 4.97653 8.65131 5.0198L8.13563 4.5474C8.34479 4.46085 8.55395 4.3779 8.76671 4.29857M8.02023 3.92713L8.03466 3.97041C7.92647 4.01729 7.80025 4.07138 7.69207 4.11465L7.46848 3.62421C7.59109 3.57373 7.7101 3.51963 7.83271 3.46915L8.01662 3.92713H8.02023ZM7.56225 4.16875C7.27375 4.29496 6.98526 4.42478 6.70397 4.56182L6.48039 4.07138C6.76528 3.93434 7.05017 3.80452 7.33866 3.67831L7.56225 4.16875ZM7.32063 2.18895L7.52618 2.70103C7.32424 2.78397 7.12229 2.87052 6.92035 2.95707L6.68594 2.47745L7.31703 2.18895H7.32063ZM7.57667 2.82725L7.78222 3.33932C7.46848 3.46915 7.15835 3.60258 6.84822 3.74322L6.62464 3.23475C6.93838 3.0905 7.25211 2.95707 7.57306 2.82364M5.25068 3.1482L5.27953 3.13017L5.44902 3.04362L5.79522 2.88495L6.03683 3.36817C5.8421 3.46554 5.64015 3.56291 5.49951 3.63503L5.24708 3.1482H5.25068ZM5.56442 3.75764C5.80964 3.63503 6.23517 3.42227 6.49842 3.29605L6.722 3.80452C6.52006 3.89828 5.89619 4.21202 5.82046 4.25169L5.56442 3.75764ZM5.87816 4.36709C5.93225 4.33824 6.15583 4.22284 6.18108 4.21202C6.23517 4.18678 6.28926 4.16153 6.34336 4.13629L6.56694 4.62673C6.52366 4.64837 6.19911 4.80704 6.11977 4.84671L5.87455 4.36709H5.87816ZM6.2496 4.92965C6.33975 4.88638 6.48039 4.81786 6.50203 4.80704C6.99247 4.56543 7.50455 4.33463 8.01302 4.12547L7.96253 4.45003V4.47888C7.48652 4.67722 7.01771 4.88998 6.55973 5.12078L6.2496 4.93326V4.92965ZM6.86625 5.73022L6.61743 5.23978C6.8338 5.1316 7.05738 5.02702 7.27736 4.92244L7.537 5.49943C7.42521 5.54991 7.31342 5.60401 7.20163 5.6581C7.09705 5.6581 6.98886 5.67974 6.88789 5.7194C6.88428 5.7194 6.86986 5.72662 6.86265 5.73022M7.04656 6.08723L6.92756 5.85283C7.32063 5.69416 7.7714 5.85644 7.96614 6.2423L8.61886 7.54774C8.53952 7.5838 8.46019 7.61986 8.38085 7.65592L7.73174 6.3577C7.60552 6.10166 7.30621 5.99347 7.04656 6.08723ZM8.10317 8.24734C8.08514 8.25816 8.0635 8.26176 8.04187 8.26176C7.96253 8.26176 7.90123 8.19685 7.90123 8.11752C7.90123 8.06342 7.93008 8.02015 7.97335 7.9949C8.65852 7.65232 9.35812 7.3494 10.0758 7.08254C10.0758 7.08254 10.0794 7.08254 10.0866 7.07893C12.3549 6.24591 14.7782 5.80956 17.2665 5.80956C20.5481 5.80956 23.7143 6.56686 26.5668 7.9949C26.6101 8.02015 26.639 8.06342 26.639 8.11752C26.639 8.19685 26.574 8.26176 26.4983 8.26176C26.4767 8.26176 26.455 8.25455 26.437 8.24734C23.6783 6.86617 20.5661 6.08723 17.2701 6.08723C13.974 6.08723 10.8655 6.86617 8.10678 8.24734H8.10317ZM8.40249 8.83154L8.1753 8.37355C8.44215 8.24012 8.70901 8.11391 8.98308 7.9913L9.18503 8.46371C8.92178 8.58271 8.66213 8.70172 8.40609 8.83154M6.50924 10.1514H28.0201V18.4781H6.50924V10.1514ZM13.5413 32.4809C14.2553 32.4809 16.3289 32.1058 17.335 32.1022H17.3422H17.3494C18.3519 32.1058 20.4255 32.4809 21.1431 32.4809C21.8608 32.4809 24.129 32.1094 24.9152 32.1022C24.9152 32.1022 24.9224 32.1022 24.926 32.1022C24.926 32.1022 24.9332 32.1022 24.9368 32.1022C25.0594 32.1022 25.2001 32.1094 25.3515 32.1203C24.8034 32.7441 24.1867 33.3031 23.5124 33.7863C22.6 33.8945 21.5759 34.0351 21.1431 34.0351C20.4291 34.0351 18.3555 33.6637 17.3494 33.6565H17.3422H17.335C16.3325 33.6601 14.2589 34.0351 13.5413 34.0351C13.0797 34.0351 11.9402 33.8765 10.9881 33.7647C10.3282 33.2887 9.72235 32.7405 9.18863 32.1311C9.39419 32.113 9.58531 32.1022 9.74759 32.1022C9.74759 32.1022 9.7512 32.1022 9.7548 32.1022C9.7548 32.1022 9.75841 32.1022 9.76202 32.1022C10.541 32.1058 12.8381 32.4809 13.5449 32.4809M17.2665 36.1123C20.8943 36.1123 24.1182 34.3597 26.1413 31.6551C26.1701 31.7813 26.2278 31.9183 26.3252 32.0734C24.1615 34.861 20.8041 36.5162 17.2701 36.5162C13.736 36.5162 10.3895 34.8646 8.22578 32.0878C8.32315 31.94 8.38085 31.8029 8.4133 31.6803C10.4364 34.3705 13.6531 36.1123 17.2701 36.1123M24.9152 28.2689L23.0183 30.1657L21.1215 28.2689L19.2246 30.1657L17.3278 28.2689L15.4309 30.1657L13.5341 28.2689L11.6372 30.1657L9.74038 28.2689L7.81828 30.191C7.28818 29.2209 6.89871 28.1607 6.68955 27.0392H27.8254C27.6198 28.1282 27.252 29.156 26.7435 30.1008L24.908 28.2689H24.9152ZM9.67186 22.0518L8.8749 21.4712L8.07793 22.0518L8.38085 21.1142L7.58388 20.5336H8.56837L8.87129 19.596L9.17421 20.5336H10.1587L9.36173 21.1142L9.66465 22.0518H9.67186ZM8.56837 24.0352L8.87129 23.0976L9.17421 24.0352H10.1587L9.36173 24.6158L9.66465 25.5534L8.86768 24.9728L8.07072 25.5534L8.37364 24.6158L7.57667 24.0352H8.56116H8.56837ZM13.9524 20.7536C13.9452 20.6706 13.9272 20.6021 13.9019 20.548C13.8731 20.4939 13.8334 20.4543 13.7757 20.4218C13.718 20.3894 13.6423 20.3605 13.5413 20.3317V20.072H15.8312C16.4948 20.072 16.9924 20.191 17.3242 20.429C17.6559 20.667 17.8218 21.0313 17.8218 21.5253C17.8218 21.8751 17.7461 22.178 17.591 22.4341C17.436 22.6901 17.2124 22.8848 16.9167 23.0183C16.621 23.1517 16.2568 23.2166 15.8132 23.2166C15.5572 23.2166 15.348 23.213 15.1857 23.2022V24.4643C15.1857 24.6374 15.1929 24.76 15.2037 24.8322C15.2182 24.9043 15.2398 24.962 15.2687 25.0053C15.2975 25.0485 15.3408 25.0846 15.3985 25.1134C15.4562 25.1423 15.5427 25.1675 15.6617 25.1892V25.4488H13.5413V25.1892C13.6387 25.1639 13.7144 25.1351 13.7721 25.1062C13.8298 25.0774 13.8695 25.0341 13.8983 24.98C13.9272 24.9259 13.9452 24.8574 13.9524 24.7745C13.9596 24.6915 13.9632 24.5869 13.9632 24.4607V21.0637C13.9632 20.9411 13.9632 20.8365 13.9524 20.7536ZM17.1475 25.0089C17.1475 25.2505 16.9491 25.4488 16.7075 25.4488C16.4659 25.4488 16.2676 25.2505 16.2676 25.0089C16.2676 24.7673 16.4659 24.5689 16.7075 24.5689C16.9491 24.5689 17.1475 24.7673 17.1475 25.0089ZM19.221 20.75C19.2138 20.667 19.1958 20.6021 19.1705 20.548C19.1417 20.4939 19.102 20.4507 19.0443 20.4218C18.9866 20.3894 18.9109 20.3605 18.8099 20.3353V20.0756H20.8799V20.3353C20.7717 20.3641 20.6924 20.3966 20.6419 20.429C20.5914 20.4615 20.5517 20.5011 20.5265 20.548C20.5012 20.5949 20.4832 20.6562 20.4724 20.7319C20.4616 20.8077 20.458 20.9195 20.458 21.0673V24.4643C20.458 24.5581 20.458 24.641 20.4652 24.7204C20.4724 24.7997 20.4796 24.8646 20.4976 24.9115C20.512 24.962 20.5373 25.0053 20.5661 25.0377C20.595 25.0702 20.6383 25.1026 20.6887 25.1279C20.7428 25.1531 20.8041 25.1748 20.8835 25.1928V25.4524H18.8135V25.1928C18.9109 25.1675 18.9866 25.1387 19.0443 25.1098C19.102 25.081 19.1417 25.0377 19.1705 24.9836C19.1994 24.9295 19.2174 24.861 19.2246 24.7781C19.2319 24.6951 19.2355 24.5906 19.2355 24.4643V21.0637C19.2355 20.9375 19.2355 20.8329 19.2246 20.7536M21.4821 25.0089C21.4821 24.7673 21.6804 24.5689 21.9221 24.5689C22.1637 24.5689 22.362 24.7673 22.362 25.0089C22.362 25.2505 22.1637 25.4488 21.9221 25.4488C21.6804 25.4488 21.4821 25.2505 21.4821 25.0089ZM26.419 22.0518L25.622 21.4712L24.825 22.0518L25.128 21.1142L24.331 20.5336H25.3155L25.6184 19.596L25.9213 20.5336H26.9058L26.1088 21.1142L26.4118 22.0518H26.419ZM25.3191 24.0352L25.622 23.0976L25.9249 24.0352H26.9094L26.1124 24.6158L26.4154 25.5534L25.6184 24.9728L24.8214 25.5534L25.1244 24.6158L24.3274 24.0352H25.3119H25.3191ZM5.44181 21.4279V23.8044L4.65927 21.4279H5.44181ZM4.46454 21.6695L4.81073 22.7334L3.93443 24.7817C3.92 24.8105 3.81182 24.9872 3.60626 24.9872H3.06173L4.46454 21.6695ZM5.45263 15.6328V18.0093L4.67009 15.6328H5.45263ZM4.46093 15.8383L4.77467 16.8012L3.93803 18.4745C3.92361 18.4961 3.81542 18.6476 3.60626 18.6476H3.07615L4.46093 15.8383ZM2.47753 11.4424C2.43786 11.1575 2.56768 10.9916 2.63981 10.8835C2.71193 10.7717 2.84175 10.7248 2.65423 10.3642C2.47032 10.0072 2.95354 9.89176 2.85618 9.62129C2.77324 9.38328 2.9283 8.90727 3.26728 8.90727C3.27089 8.90727 3.2745 8.90727 3.28171 8.90727C3.28892 8.90727 3.28892 8.90727 3.29613 8.90727C3.63511 8.90727 3.79018 9.38328 3.70363 9.62129C3.60626 9.89176 4.0931 10.0072 3.90558 10.3642C3.71806 10.7248 3.84788 10.7717 3.92 10.8835C3.99213 10.9916 4.12195 11.1575 4.08228 11.4424C4.05343 11.6516 3.73969 11.8211 3.49808 11.922H3.48726L3.2781 10.2956L3.06894 11.922L3.04731 11.9148C2.8093 11.8175 2.50998 11.648 2.48113 11.446M1.118 14.8466V12.4738H1.90054L1.118 14.8466ZM1.79235 13.6386L2.10609 12.6757L3.49087 15.4849H2.96076C2.7516 15.4849 2.64341 15.3335 2.62899 15.3118L1.79235 13.6386ZM1.118 20.631V18.2581H1.90054L1.118 20.631ZM1.74547 19.5635L2.09167 18.4997L3.49447 21.8174H2.94994C2.74439 21.8174 2.6362 21.6371 2.62178 21.6118L1.74547 19.5635ZM1.10718 25.4019H1.55435C1.7022 25.4019 1.82481 25.5246 1.82481 25.6724C1.82481 25.8203 1.7022 25.9429 1.55435 25.9429H1.10718V25.4019ZM0.533797 26.2061H1.55435C1.65171 26.2061 1.74547 26.1773 1.82481 26.1304V26.7434H0.533797C0.385943 26.7434 0.263333 26.6208 0.263333 26.473C0.263333 26.3251 0.385943 26.2025 0.533797 26.2025M1.55435 32.2068H1.10718V31.6695H1.55435C1.7022 31.6695 1.82481 31.7921 1.82481 31.94C1.82481 32.0878 1.7022 32.2104 1.55435 32.2104M1.82481 31.4784C1.74547 31.4315 1.65171 31.4026 1.55435 31.4026H0.533797C0.385943 31.4026 0.263333 31.28 0.263333 31.1322C0.263333 30.9843 0.385943 30.8617 0.533797 30.8617H1.82481V31.4748V31.4784ZM0.533797 30.6021C0.43643 30.6021 0.342669 30.6309 0.263333 30.6742V29.412V29.376C0.263333 29.2353 0.321032 29.1019 0.422005 29.0009C0.494129 28.9324 0.508553 28.918 0.537403 28.8891L0.63477 28.7954L0.627557 28.7881L0.63477 28.7809C0.573465 28.7196 0.551828 28.698 0.53019 28.6764C0.504947 28.6511 0.486916 28.6331 0.425611 28.5718C0.324638 28.4744 0.266939 28.341 0.266939 28.1967V28.1679V26.931C0.346275 26.9778 0.43643 27.0067 0.537403 27.0067H5.72309C6.05126 27.0067 6.33975 27.1978 6.46957 27.4899C6.72561 28.6114 7.15114 29.6645 7.71731 30.6309C7.63437 30.6093 7.55143 30.5985 7.4757 30.5985H7.47209C7.42521 30.5985 7.37112 30.5985 7.31342 30.5985H6.46236C6.41187 30.5985 6.38302 30.5985 6.38302 30.5985H0.544615L0.533797 30.6021ZM5.93586 34.5869C5.90701 34.6626 5.88537 34.742 5.87455 34.8249C5.81325 34.6951 5.78079 34.5508 5.77719 34.4066C5.77719 34.302 5.97552 33.1769 6.11977 32.3547C6.27844 31.4567 6.34696 31.0492 6.37581 30.8653H6.37942C6.45515 30.8653 7.11147 30.8653 7.46488 30.8653C7.62355 30.8653 7.81828 30.9302 7.96253 31.0492C8.02384 31.143 8.08514 31.2367 8.15005 31.3269C8.20415 31.5325 8.12842 31.7777 7.92286 32.0481C7.51897 32.5819 6.97444 33.2129 6.59218 33.6493L6.52366 33.725C6.34696 33.9234 6.15583 34.1397 6.02241 34.3885C5.98274 34.4571 5.95389 34.5256 5.93225 34.5905M28.3771 35.1927C28.3663 35.218 28.3158 35.2937 28.305 35.3081C28.2834 35.3334 28.2581 35.3586 28.2365 35.3802C25.3984 38.3986 21.4172 40.126 17.2701 40.126C13.123 40.126 9.10569 38.3842 6.26402 35.337C6.14502 35.1675 6.03322 34.8501 6.32533 34.4138C6.38663 34.32 6.46597 34.2118 6.55612 34.0928C6.61382 34.0243 6.67152 33.963 6.72561 33.8981L6.79413 33.8224C7.15835 33.4113 7.65961 32.8271 8.0599 32.3114C10.2741 35.1206 13.6819 36.7831 17.2665 36.7831C19.4626 36.7831 21.5903 36.1592 23.4186 35.0304C23.415 35.0701 23.397 35.1206 23.3681 35.1891C23.3213 35.3045 23.3104 35.3839 23.3393 35.4307C23.3826 35.4993 23.4547 35.5029 23.5557 35.4379C23.6386 35.3839 23.7288 35.2757 23.8369 35.1062C23.9487 34.9223 23.9812 34.796 23.9379 34.7275C23.9307 34.7167 23.9235 34.7095 23.9163 34.7023C24.8791 34.0387 25.7482 33.231 26.4839 32.2934C26.8842 32.8126 27.3926 33.4041 27.7605 33.8188L27.829 33.8945C28.0814 34.1758 28.3627 34.4967 28.4204 34.8718C28.4204 34.9006 28.424 34.9259 28.424 34.9511C28.424 35.0413 28.406 35.1206 28.3771 35.1891M28.7846 34.403C28.7846 34.558 28.7486 34.7059 28.68 34.8429C28.6115 34.3885 28.3014 34.0387 28.0201 33.725C28.0201 33.725 27.0284 32.5819 26.6209 32.0481C26.3937 31.7488 26.3252 31.4784 26.419 31.2584C26.455 31.2079 26.4875 31.1574 26.5199 31.1069C26.6678 30.9483 26.9022 30.8689 27.0825 30.8653C27.4576 30.8653 28.1752 30.8653 28.1752 30.8653H28.1824C28.2112 31.0492 28.2798 31.4531 28.4384 32.3547C28.5827 33.1769 28.7774 34.2984 28.781 34.403M27.3494 30.6021C27.3494 30.6021 27.3313 30.6021 27.3205 30.6021C27.2376 30.6021 27.1582 30.6021 27.0897 30.6021H27.0861C27.0104 30.6021 26.9274 30.6129 26.8445 30.6309C27.0501 30.2847 27.3422 29.7402 27.5946 29.0694C27.8506 28.3879 28.049 27.6486 28.0526 27.6378C28.1391 27.2663 28.4673 27.0103 28.8495 27.0103H33.9883C33.9883 27.0103 33.9883 27.0103 33.992 27.0103C33.9956 27.0103 33.992 27.0103 33.9956 27.0103C34.0929 27.0103 34.1867 26.9815 34.266 26.9382V28.2039C34.266 28.3482 34.2083 28.478 34.1074 28.579C34.046 28.6403 34.0244 28.6583 34.0028 28.6836C33.9811 28.7052 33.9595 28.7304 33.8982 28.7881L33.9054 28.7954L33.8982 28.8026L33.9956 28.8963C34.0244 28.9252 34.0388 28.9396 34.111 29.0081C34.2119 29.1055 34.2696 29.2389 34.2696 29.3832V30.6814C34.1903 30.6345 34.1001 30.6093 33.9992 30.6093C33.9992 30.6093 33.9956 30.6093 33.992 30.6093C33.992 30.6093 33.9883 30.6093 33.9847 30.6093H27.353L27.3494 30.6021ZM33.4186 32.2068H32.9714C32.8236 32.2068 32.7009 32.0842 32.7009 31.9363C32.7009 31.7885 32.8236 31.6659 32.9714 31.6659H33.4186V32.2032V32.2068ZM33.992 31.4026H32.9714C32.874 31.4026 32.7803 31.4315 32.7009 31.4784V30.8653H33.9811C33.9811 30.8653 33.9847 30.8653 33.9883 30.8653C33.9883 30.8653 33.992 30.8653 33.9956 30.8653C34.1434 30.8653 34.2624 30.9843 34.266 31.1322C34.266 31.2836 34.1434 31.4062 33.9956 31.4062" fill="#0266AE"/>
<path d="M1.34497 28.0058V28.2402H1.60101V29.8485H1.93278V27.7389H1.70919C1.65871 27.8795 1.60101 28.0058 1.34497 28.0058Z" fill="#0266AE"/>
<path d="M2.2395 28.0417H2.89943L2.4126 29.852H2.74437L3.23481 28.0309V27.7424H2.2395V28.0417Z" fill="#0266AE"/>
<path d="M4.51861 28.2473C4.51861 27.9083 4.34912 27.7172 4.02456 27.7172C3.70001 27.7172 3.53052 27.9119 3.53052 28.2473V28.4528H3.84426V28.2256C3.84426 28.0742 3.90917 28.0165 4.01735 28.0165C4.12554 28.0165 4.19045 28.067 4.19045 28.2581C4.19045 28.4853 4.11833 28.6512 3.86589 28.918C3.61707 29.1777 3.53412 29.3544 3.53412 29.5924V29.852H4.49337V29.5491H3.86589C3.86589 29.5491 3.86589 29.5203 3.86589 29.5022C3.86589 29.3904 3.91999 29.2931 4.11472 29.0803C4.42124 28.7521 4.52582 28.5249 4.52582 28.2437" fill="#0266AE"/>
<path d="M5.34446 27.7172C5.01991 27.7172 4.8396 27.9119 4.8396 28.2473V28.6331C4.8396 28.9433 4.96221 29.1164 5.20743 29.1164C5.35528 29.1164 5.45265 29.0515 5.51035 28.9324H5.51756V29.3147C5.51756 29.5166 5.45265 29.5743 5.33365 29.5743C5.22907 29.5743 5.16055 29.5166 5.16055 29.3652V29.2895H4.84681V29.3436C4.84681 29.6825 5.0163 29.8737 5.34086 29.8737C5.68345 29.8737 5.84572 29.6825 5.84572 29.3255V28.2473C5.84572 27.9083 5.66902 27.7172 5.34086 27.7172M5.51756 28.6079C5.51756 28.7594 5.45265 28.817 5.34446 28.817C5.23628 28.817 5.17137 28.7594 5.17137 28.6079V28.2292C5.17137 28.0778 5.23628 28.0237 5.34446 28.0237C5.45265 28.0237 5.51756 28.0778 5.51756 28.2292V28.6079Z" fill="#0266AE"/>
<path d="M17.2448 15.3768L16.5632 16.3541H16.877L17.2448 17.4612L17.609 16.3541H17.9228L17.2448 15.3768Z" fill="#0266AE"/>
<path d="M18.5502 16.8157L17.8975 17.7858L18.9973 17.3927L19.1921 17.6416L19.5455 16.5056L18.3591 16.5705L18.5502 16.8157Z" fill="#0266AE"/>
<path d="M16.0619 16.5705L14.8755 16.5056L15.2325 17.6416L15.4236 17.3927L16.5235 17.7858L15.8708 16.8157L16.0619 16.5705Z" fill="#0266AE"/>
<path d="M14.4393 12.5568H13.718V15.7374H14.4393V12.5568Z" fill="#0266AE"/>
<path d="M16.2134 14.0929H18.3411V15.7373H19.0587V12.5567H18.3411V13.4654H17.5261V12.0698H18.1932V11.565H17.5261V10.8906H17.0212V11.565H16.3577V12.0698H17.0212V13.4654H16.2134V12.5567H15.4922V15.7373H16.2134V14.0929Z" fill="#0266AE"/>
<path d="M21.4245 13.8515C21.0134 13.6964 20.8331 13.6062 20.8331 13.4043C20.8331 13.2384 20.9845 13.0978 21.2946 13.0978C21.6048 13.0978 21.832 13.1879 21.9618 13.2492L22.1241 12.6686C21.9365 12.5821 21.6697 12.5063 21.3127 12.5063C20.5626 12.5063 20.1082 12.9211 20.1082 13.4656C20.1082 13.9272 20.4544 14.2193 20.9809 14.4032C21.3632 14.5402 21.5146 14.652 21.5146 14.8504C21.5146 15.0595 21.3415 15.1966 21.0098 15.1966C20.7032 15.1966 20.4075 15.0992 20.2128 14.9982L20.0649 15.5932C20.2453 15.6906 20.6023 15.7916 20.9665 15.7916C21.8392 15.7916 22.2503 15.3336 22.2503 14.7999C22.2503 14.3527 21.987 14.0606 21.4245 13.8515Z" fill="#0266AE"/>
<path d="M41.3269 21.5218V7.03577H45.0629V21.5218H41.3269Z" fill="#0266AE"/>
<path d="M50.9048 21.5218V10.2921H46.8442V7.03577H58.6797V10.2921H54.6408V21.5218H50.9048Z" fill="#0266AE"/>
<path d="M69.1233 21.5218L68.384 19.3292H62.3689L61.6297 21.5218H57.5691L63.0216 7.03577H67.7133L73.1875 21.5218H69.1269H69.1233ZM65.3657 10.2921L63.3462 16.1774H67.4068L65.3657 10.2921Z" fill="#0266AE"/>
<path d="M80.6558 6.79413C83.8257 6.79413 85.7802 8.35922 86.8476 10.1587L83.7211 11.8103C83.1333 10.8547 82.0262 10.0938 80.6594 10.0938C78.2938 10.0938 76.6205 11.9185 76.6205 14.2842C76.6205 16.6498 78.2938 18.4746 80.6594 18.4746C81.7882 18.4746 82.8087 18.0851 83.3965 17.6055V16.3902H80.0752V13.2853H87.0676V18.9542C85.5025 20.6707 83.3965 21.7778 80.6594 21.7778C76.3356 21.7778 72.8196 18.8893 72.8196 14.2842C72.8196 9.67908 76.3392 6.79053 80.6594 6.79053L80.6558 6.79413Z" fill="#0266AE"/>
<path d="M89.2529 7.03577H93.0538V15.5283C93.0538 17.2449 93.9662 18.4818 95.9857 18.4818C98.0051 18.4818 98.8959 17.2449 98.8959 15.5283V7.03577H102.697V15.6365C102.697 19.2427 100.634 21.7814 95.9857 21.7814C91.3373 21.7814 89.2529 19.2174 89.2529 15.6581V7.03577Z" fill="#0266AE"/>
<path d="M114.511 21.5218L113.771 19.3292H107.756L107.017 21.5218H102.957L108.409 7.03577H113.101L118.575 21.5218H114.514H114.511ZM110.753 10.2921L108.734 16.1774H112.794L110.753 10.2921Z" fill="#0266AE"/>
<path d="M119.635 21.5218V7.03576H123.371V21.5218H119.635ZM122.545 5.81687H120.288L123.047 2.69031H126L122.545 5.81687Z" fill="#0266AE"/>
<path d="M41.2006 29.1309V23.9849H43.267C44.3019 23.9849 44.8789 24.6953 44.8789 25.5355C44.8789 26.3758 44.2839 27.0862 43.267 27.0862H41.8389V29.1309H41.197H41.2006ZM43.1912 24.5546H41.8425V26.5128H43.1912C43.8007 26.5128 44.219 26.1125 44.219 25.5319C44.219 24.9513 43.8007 24.551 43.1912 24.551V24.5546Z" fill="#0266AE"/>
<path d="M53.036 29.1309L51.7234 27.0862H50.6956V29.1309H50.0537V23.9849H52.1201C53.0613 23.9849 53.732 24.5871 53.732 25.5355C53.732 26.4839 53.1009 26.9708 52.3977 27.0321L53.7861 29.1309H53.0288H53.036ZM52.0479 24.5546H50.6992V26.5236H52.0479C52.6574 26.5236 53.0757 26.1161 53.0757 25.5355C53.0757 24.9549 52.6574 24.5546 52.0479 24.5546Z" fill="#0266AE"/>
<path d="M59.0801 29.1309V23.9849H62.4519V24.5546H59.722V26.2135H62.3978V26.7833H59.722V28.5575H62.4519V29.1273H59.0801V29.1309Z" fill="#0266AE"/>
<path d="M67.7998 29.1309V23.9849H71.1716V24.5546H68.4417V26.2135H71.1175V26.7833H68.4417V29.1273H67.7998V29.1309Z" fill="#0266AE"/>
<path d="M76.3716 29.1309V23.9849H79.7434V24.5546H77.0135V26.2135H79.6893V26.7833H77.0135V28.5575H79.7434V29.1273H76.3716V29.1309Z" fill="#0266AE"/>
<path d="M85.0916 29.1309V23.9849H85.7335V29.1309H85.0916Z" fill="#0266AE"/>
<path d="M92.5382 29.1309V24.5546H90.9119V23.9849H94.8174V24.5546H93.1802V29.1309H92.5382Z" fill="#0266AE"/>
<path d="M99.9922 23.9849H100.634V27.1186C100.634 28.0598 101.143 28.6549 102.091 28.6549C103.039 28.6549 103.548 28.0598 103.548 27.1186V23.9849H104.19V27.1258C104.19 28.406 103.487 29.2246 102.091 29.2246C100.695 29.2246 99.9922 28.3988 99.9922 27.1331V23.9849Z" fill="#0266AE"/>
<path d="M112.7 29.1309L111.388 27.0862H110.36V29.1309H109.718V23.9849H111.784C112.726 23.9849 113.396 24.5871 113.396 25.5355C113.396 26.4839 112.765 26.9708 112.062 27.0321L113.45 29.1309H112.693H112.7ZM111.712 24.5546H110.364V26.5236H111.712C112.322 26.5236 112.74 26.1161 112.74 25.5355C112.74 24.9549 112.322 24.5546 111.712 24.5546Z" fill="#0266AE"/>
<path d="M122.437 29.1309L121.983 27.9877H119.375L118.921 29.1309H118.211L120.277 23.9849H121.07L123.148 29.1309H122.437ZM120.677 24.5546L119.559 27.4179H121.788L120.677 24.5546Z" fill="#0266AE"/>
<path d="M63.0325 36.1772V33.1589L61.6911 35.5029H61.4603L60.1115 33.1589V36.1772H59.7473V32.4701H60.1224L61.5684 35.0088L63.0253 32.4701H63.3968V36.1772H63.0325Z" fill="#0266AE"/>
<path d="M64.0098 35.3984C64.0098 35.2289 64.0566 35.0846 64.1576 34.9584C64.255 34.8358 64.3884 34.742 64.5615 34.6735C64.7346 34.605 64.9329 34.5725 65.1601 34.5725C65.2936 34.5725 65.4306 34.5834 65.5712 34.605C65.7155 34.6266 65.8417 34.6555 65.9535 34.6988V34.468C65.9535 34.2408 65.885 34.0569 65.7516 33.9234C65.6145 33.79 65.427 33.7215 65.189 33.7215C65.0411 33.7215 64.9005 33.7503 64.7599 33.8008C64.6192 33.8549 64.4714 33.9343 64.3199 34.0388L64.1829 33.79C64.3596 33.6674 64.5327 33.5772 64.7058 33.5159C64.8752 33.4546 65.052 33.4258 65.2287 33.4258C65.564 33.4258 65.8273 33.5195 66.022 33.7107C66.2167 33.9018 66.3141 34.165 66.3141 34.5004V35.7518C66.3141 35.7986 66.3249 35.8347 66.3466 35.8563C66.3682 35.878 66.4007 35.8924 66.4439 35.896V36.1773C66.4043 36.1773 66.3718 36.1845 66.3466 36.1881C66.3177 36.1881 66.2961 36.1881 66.2853 36.1881C66.1987 36.1881 66.1302 36.1557 66.0869 36.1052C66.0437 36.0511 66.0184 35.997 66.0148 35.9393V35.7409C65.8886 35.896 65.7299 36.0186 65.5352 36.1052C65.3404 36.1917 65.1421 36.2314 64.9402 36.2314C64.7671 36.2314 64.6084 36.1953 64.4678 36.1196C64.3271 36.0439 64.2189 35.9465 64.1396 35.8203C64.0603 35.6941 64.0206 35.5534 64.0206 35.402L64.0098 35.3984ZM65.8309 35.6039C65.8706 35.557 65.8994 35.5102 65.921 35.4633C65.9427 35.42 65.9535 35.3803 65.9535 35.3443V34.9512C65.8345 34.9079 65.7119 34.8719 65.5857 34.8466C65.4594 34.8214 65.3296 34.8106 65.2034 34.8106C64.9474 34.8106 64.7454 34.861 64.5868 34.962C64.4317 35.063 64.3524 35.1964 64.3524 35.3695C64.3524 35.4705 64.3776 35.5642 64.4317 35.6508C64.4858 35.7373 64.5615 35.8095 64.6625 35.8672C64.7635 35.9249 64.8825 35.9537 65.0159 35.9537C65.1854 35.9537 65.3441 35.9213 65.4919 35.8563C65.6398 35.7914 65.7552 35.7049 65.8345 35.6039H65.8309Z" fill="#0266AE"/>
<path d="M67.075 32.8885V32.3656H67.4284V32.8885H67.075ZM67.075 36.1773V33.4583H67.4284V36.1773H67.075Z" fill="#0266AE"/>
<path d="M69.1052 36.2278C68.8816 36.2278 68.6761 36.1917 68.485 36.1196C68.2938 36.0475 68.1279 35.9357 67.9873 35.7842L68.1315 35.5354C68.283 35.6796 68.4381 35.7806 68.5931 35.8455C68.7482 35.9104 68.9141 35.9429 69.0872 35.9429C69.3 35.9429 69.4731 35.8996 69.6029 35.8167C69.7363 35.7337 69.8012 35.6111 69.8012 35.4524C69.8012 35.3443 69.7688 35.2613 69.7038 35.2072C69.6389 35.1495 69.5488 35.1026 69.4262 35.0666C69.3072 35.0305 69.1629 34.9909 68.997 34.9512C68.8095 34.9007 68.6508 34.8466 68.5246 34.7889C68.3984 34.7312 68.301 34.6591 68.2361 34.5725C68.1712 34.486 68.1388 34.3706 68.1388 34.2263C68.1388 34.0496 68.182 33.9018 68.2722 33.7864C68.3624 33.671 68.4814 33.5808 68.6364 33.5231C68.7915 33.4618 68.9646 33.433 69.1557 33.433C69.3649 33.433 69.5488 33.4654 69.7075 33.534C69.8661 33.5989 69.9996 33.6926 70.1005 33.8116L69.9274 34.0532C69.8301 33.9415 69.7147 33.8585 69.5812 33.8044C69.4478 33.7503 69.3 33.7251 69.1341 33.7251C69.0223 33.7251 68.9177 33.7395 68.8167 33.7684C68.7158 33.7972 68.6328 33.8477 68.5679 33.9126C68.503 33.9775 68.4705 34.0713 68.4705 34.1903C68.4705 34.2876 68.4958 34.3634 68.5427 34.4175C68.5895 34.4716 68.6653 34.5148 68.7626 34.5509C68.86 34.587 68.979 34.6266 69.1232 34.6663C69.3288 34.7204 69.5091 34.7781 69.6606 34.8358C69.812 34.8935 69.931 34.9656 70.014 35.0558C70.0969 35.1459 70.1402 35.2721 70.1402 35.4344C70.1402 35.6868 70.0428 35.8852 69.8517 36.0258C69.6606 36.1665 69.4081 36.2386 69.0944 36.2386L69.1052 36.2278Z" fill="#0266AE"/>
<path d="M73.4543 36.2278C73.2271 36.2278 73.0252 36.1701 72.8449 36.0511C72.6645 35.9321 72.5239 35.7878 72.4193 35.6147V37.288H72.0659V33.4654H72.3833V33.9956C72.4914 33.8261 72.6357 33.689 72.816 33.5845C72.9963 33.4799 73.191 33.4258 73.3966 33.4258C73.5841 33.4258 73.7572 33.4654 73.9123 33.5412C74.071 33.6205 74.2044 33.7251 74.3198 33.8549C74.4352 33.9847 74.5253 34.1362 74.5902 34.3057C74.6552 34.4752 74.6876 34.6483 74.6876 34.8286C74.6876 35.081 74.6371 35.3154 74.5325 35.5282C74.4316 35.7409 74.2873 35.9104 74.1034 36.0403C73.9195 36.1665 73.7031 36.2314 73.4579 36.2314L73.4543 36.2278ZM73.3533 35.914C73.5048 35.914 73.6382 35.8852 73.7572 35.8239C73.8762 35.7626 73.9772 35.6796 74.0637 35.5787C74.1503 35.4741 74.2152 35.3587 74.2585 35.2289C74.3054 35.099 74.327 34.9656 74.327 34.8286C74.327 34.6843 74.3018 34.5437 74.2513 34.4139C74.2008 34.2841 74.1287 34.165 74.0349 34.0677C73.9411 33.9667 73.8329 33.8874 73.7103 33.8297C73.5877 33.772 73.4579 33.7431 73.3137 33.7431C73.2235 33.7431 73.1297 33.7612 73.0324 33.7936C72.935 33.8297 72.8413 33.8766 72.7511 33.9415C72.6609 34.0064 72.5888 34.0785 72.5275 34.1578C72.4662 34.2372 72.4301 34.3201 72.4193 34.4103V35.2397C72.4734 35.3659 72.5491 35.4813 72.6429 35.5859C72.7367 35.6869 72.8449 35.7698 72.9711 35.8275C73.0973 35.8852 73.2235 35.9177 73.3533 35.9177V35.914Z" fill="#0266AE"/>
<path d="M76.462 36.2278C76.2673 36.2278 76.087 36.1917 75.9175 36.116C75.7516 36.0403 75.6074 35.9393 75.4847 35.8095C75.3621 35.6796 75.2684 35.5282 75.1998 35.3587C75.1313 35.1892 75.0989 35.0053 75.0989 34.8142C75.0989 34.5617 75.1566 34.3309 75.2756 34.1182C75.391 33.909 75.5533 33.7395 75.7588 33.6133C75.9644 33.4871 76.1988 33.4258 76.4584 33.4258C76.7181 33.4258 76.9597 33.4907 77.1616 33.6169C77.36 33.7431 77.5186 33.9126 77.634 34.1218C77.7494 34.3309 77.8071 34.5581 77.8071 34.8106V34.8899C77.8071 34.9151 77.8071 34.9368 77.8035 34.9512H75.4739C75.4919 35.1459 75.546 35.319 75.6398 35.4669C75.7336 35.6147 75.8526 35.7373 76.0004 35.8239C76.1483 35.9104 76.3106 35.9573 76.4836 35.9573C76.6567 35.9573 76.8298 35.9104 76.9885 35.8203C77.1472 35.7301 77.2554 35.6111 77.3203 35.4669L77.6268 35.5498C77.5727 35.6796 77.4862 35.795 77.3708 35.8996C77.2554 36.0042 77.1219 36.0835 76.9669 36.1412C76.8118 36.1989 76.6459 36.2278 76.4692 36.2278H76.462ZM75.4595 34.6915H77.4681C77.4537 34.4968 77.3996 34.3237 77.3095 34.1759C77.2193 34.028 77.0967 33.9126 76.9489 33.8261C76.801 33.7395 76.6387 33.6998 76.462 33.6998C76.2853 33.6998 76.123 33.7431 75.9752 33.8261C75.8273 33.909 75.7083 34.028 75.6182 34.1759C75.5244 34.3273 75.4739 34.4968 75.4595 34.6915Z" fill="#0266AE"/>
<path d="M79.7075 33.7683C79.4695 33.7756 79.2639 33.8405 79.0836 33.9667C78.9033 34.0929 78.7771 34.266 78.705 34.4824V36.1737H78.3516V33.4654H78.6869V34.1073C78.7807 33.9162 78.9069 33.7611 79.062 33.6421C79.217 33.5231 79.3829 33.4582 79.556 33.4438C79.5921 33.4438 79.6209 33.4402 79.6462 33.4402C79.6714 33.4402 79.6931 33.4402 79.7111 33.4438V33.7683H79.7075Z" fill="#0266AE"/>
<path d="M81.4889 36.0654C81.4601 36.0762 81.4168 36.0943 81.3591 36.1231C81.3014 36.152 81.2293 36.1736 81.1463 36.1952C81.0634 36.2169 80.9732 36.2277 80.8759 36.2277C80.7785 36.2277 80.6811 36.2097 80.591 36.17C80.5008 36.1303 80.4323 36.0726 80.3782 35.9933C80.3277 35.9139 80.2989 35.8166 80.2989 35.7012V33.7466H79.9238V33.4654H80.2989V32.5458H80.6523V33.4654H81.2798V33.7466H80.6523V35.6038C80.6595 35.7012 80.6955 35.7769 80.7605 35.8238C80.8254 35.8743 80.8975 35.8959 80.984 35.8959C81.0814 35.8959 81.1716 35.8779 81.2509 35.8454C81.3302 35.813 81.3807 35.7877 81.3988 35.7733L81.4925 36.0618L81.4889 36.0654Z" fill="#0266AE"/>
<path d="M83.0432 36.2279C82.8485 36.2279 82.6682 36.1918 82.5023 36.1161C82.3364 36.0403 82.1958 35.9394 82.0732 35.8095C81.9542 35.6797 81.8604 35.5319 81.7919 35.3624C81.727 35.1929 81.6909 35.0162 81.6909 34.8287C81.6909 34.6411 81.7234 34.4536 81.7919 34.2877C81.8568 34.1182 81.9506 33.9704 82.0732 33.8406C82.1958 33.7107 82.34 33.6098 82.5023 33.534C82.6682 33.4583 82.8485 33.4222 83.0432 33.4222C83.238 33.4222 83.4183 33.4583 83.5806 33.534C83.7428 33.6098 83.8871 33.7107 84.0097 33.8406C84.1323 33.9704 84.2261 34.1182 84.291 34.2877C84.3559 34.4572 84.3883 34.6375 84.3883 34.8287C84.3883 35.0198 84.3559 35.1929 84.291 35.3624C84.2261 35.5319 84.1323 35.6797 84.0133 35.8095C83.8943 35.9394 83.75 36.0403 83.5842 36.1161C83.4183 36.1918 83.238 36.2279 83.0396 36.2279H83.0432ZM82.0588 34.8359C82.0588 35.0378 82.102 35.2181 82.1922 35.384C82.2823 35.5499 82.4013 35.6761 82.5492 35.7735C82.7007 35.8672 82.8629 35.9177 83.0468 35.9177C83.2308 35.9177 83.393 35.8708 83.5445 35.7735C83.6923 35.6761 83.815 35.5463 83.9051 35.3768C83.9953 35.2109 84.0422 35.027 84.0422 34.8287C84.0422 34.6303 83.9989 34.4464 83.9051 34.2805C83.815 34.1146 83.696 33.9848 83.5445 33.8874C83.393 33.7901 83.2308 33.7432 83.0468 33.7432C82.8629 33.7432 82.7006 33.7937 82.5528 33.8947C82.4049 33.9956 82.2859 34.1254 82.1958 34.2913C82.1056 34.4572 82.0588 34.6411 82.0588 34.8431V34.8359Z" fill="#0266AE"/>
<path d="M86.1409 34.8322C86.1409 34.5762 86.195 34.3418 86.2995 34.129C86.4041 33.9163 86.552 33.7468 86.7395 33.6169C86.927 33.4907 87.1434 33.4258 87.3814 33.4258C87.6086 33.4258 87.8105 33.4871 87.9908 33.6061C88.1712 33.7251 88.3118 33.873 88.4128 34.0425V32.3656H88.7662V35.7482C88.7662 35.7987 88.777 35.8311 88.7986 35.8564C88.8203 35.878 88.8491 35.8924 88.8924 35.8961V36.1773C88.8239 36.1882 88.7698 36.1918 88.7301 36.1882C88.658 36.1882 88.5931 36.1557 88.5354 36.098C88.4813 36.0439 88.4524 35.9826 88.4524 35.9141V35.6472C88.3442 35.8239 88.2 35.9646 88.0125 36.0691C87.825 36.1737 87.6374 36.2242 87.4391 36.2242C87.2516 36.2242 87.0785 36.1845 86.9198 36.1088C86.7611 36.0331 86.6241 35.9285 86.5087 35.7987C86.3933 35.6689 86.3031 35.5174 86.2382 35.3479C86.1733 35.1784 86.1409 35.0053 86.1409 34.825V34.8322ZM88.4092 35.2469V34.4139C88.3659 34.2913 88.2902 34.1759 88.1892 34.0749C88.0882 33.974 87.9728 33.891 87.8466 33.8297C87.7204 33.7684 87.5942 33.7396 87.4679 33.7396C87.3201 33.7396 87.1903 33.7684 87.0713 33.8297C86.9523 33.891 86.8513 33.974 86.7647 34.0749C86.6782 34.1759 86.6133 34.2949 86.57 34.4283C86.5267 34.5618 86.5015 34.6952 86.5015 34.8322C86.5015 34.9765 86.5267 35.1171 86.5772 35.2469C86.6277 35.3768 86.6998 35.4958 86.7936 35.5967C86.8873 35.6977 86.9955 35.777 87.1181 35.8311C87.2408 35.8852 87.3706 35.9141 87.5148 35.9141C87.605 35.9141 87.6987 35.8961 87.7961 35.8636C87.8935 35.8275 87.9872 35.7807 88.0738 35.7194C88.1639 35.658 88.2361 35.5859 88.2974 35.503C88.3587 35.42 88.3947 35.3335 88.4056 35.2433L88.4092 35.2469Z" fill="#0266AE"/>
<path d="M90.7423 36.2278C90.5476 36.2278 90.3673 36.1917 90.2014 36.116C90.0355 36.0403 89.8913 35.9393 89.7687 35.8095C89.6461 35.6796 89.5523 35.5282 89.4838 35.3587C89.4153 35.1892 89.3828 35.0053 89.3828 34.8142C89.3828 34.5617 89.4405 34.3309 89.5559 34.1182C89.6713 33.9054 89.8336 33.7395 90.0391 33.6133C90.2447 33.4871 90.4755 33.4258 90.7387 33.4258C91.002 33.4258 91.24 33.4907 91.4419 33.6169C91.6439 33.7431 91.799 33.9126 91.9144 34.1218C92.0298 34.3309 92.0874 34.5581 92.0874 34.8106V34.8899C92.0874 34.9151 92.0875 34.9368 92.0838 34.9512H89.7542C89.7723 35.1459 89.8264 35.319 89.9201 35.4669C90.0139 35.6147 90.1329 35.7373 90.2808 35.8239C90.4286 35.9104 90.5909 35.9573 90.764 35.9573C90.9371 35.9573 91.1102 35.9104 91.2688 35.8203C91.4275 35.7301 91.5393 35.6111 91.6006 35.4669L91.9071 35.5498C91.853 35.6796 91.7665 35.795 91.6511 35.8996C91.5357 36.0042 91.4023 36.0835 91.2472 36.1412C91.0921 36.1989 90.9263 36.2278 90.7496 36.2278H90.7423ZM89.7398 34.6915H91.7485C91.734 34.4968 91.6799 34.3237 91.5898 34.1759C91.4996 34.028 91.377 33.9126 91.2292 33.8261C91.0813 33.7431 90.919 33.6998 90.7423 33.6998C90.5656 33.6998 90.4034 33.7431 90.2555 33.8261C90.1077 33.909 89.9886 34.028 89.8985 34.1759C89.8047 34.3273 89.7543 34.4968 89.7398 34.6915Z" fill="#0266AE"/>
<path d="M94.6333 36.1774L93.5334 33.4691H93.9049L94.8353 35.824L95.7693 33.4691H96.1191L95.0192 36.1774H94.6369H94.6333Z" fill="#0266AE"/>
<path d="M97.6698 36.2279C97.475 36.2279 97.2947 36.1918 97.1288 36.1161C96.9629 36.0403 96.8223 35.9394 96.6997 35.8095C96.5807 35.6797 96.4869 35.5319 96.422 35.3624C96.3571 35.1929 96.321 35.0162 96.321 34.8287C96.321 34.6411 96.3535 34.4536 96.422 34.2877C96.4869 34.1182 96.5807 33.9704 96.7033 33.8406C96.8259 33.7107 96.9702 33.6098 97.1324 33.534C97.2983 33.4583 97.4786 33.4222 97.6734 33.4222C97.8681 33.4222 98.0484 33.4583 98.2107 33.534C98.373 33.6098 98.5172 33.7107 98.6398 33.8406C98.7624 33.9704 98.8562 34.1182 98.9211 34.2877C98.986 34.4572 99.0221 34.6375 99.0221 34.8287C99.0221 35.0198 98.9896 35.1929 98.9211 35.3624C98.8562 35.5319 98.7624 35.6797 98.6434 35.8095C98.5244 35.9394 98.3802 36.0403 98.2143 36.1161C98.0484 36.1918 97.8681 36.2279 97.6698 36.2279ZM96.6853 34.8359C96.6853 35.0378 96.7285 35.2181 96.8187 35.384C96.9089 35.5499 97.0279 35.6761 97.1757 35.7735C97.3272 35.8672 97.4894 35.9177 97.6734 35.9177C97.8573 35.9177 98.0196 35.8708 98.171 35.7735C98.3225 35.6761 98.4415 35.5463 98.5316 35.3768C98.6218 35.2109 98.6687 35.027 98.6687 34.8287C98.6687 34.6303 98.6218 34.4464 98.5316 34.2805C98.4415 34.1146 98.3225 33.9848 98.171 33.8874C98.0232 33.7901 97.8573 33.7432 97.6734 33.7432C97.4894 33.7432 97.3272 33.7937 97.1793 33.8947C97.0315 33.9956 96.9125 34.1254 96.8223 34.2913C96.7321 34.4572 96.6853 34.6411 96.6853 34.8431V34.8359Z" fill="#0266AE"/>
<path d="M100.8 36.2279C100.602 36.2279 100.421 36.1918 100.256 36.1161C100.09 36.0403 99.9454 35.9394 99.8228 35.8059C99.7002 35.6761 99.6028 35.5246 99.5343 35.3552C99.4658 35.1857 99.4333 35.0054 99.4333 34.8142C99.4333 34.5582 99.491 34.3238 99.6064 34.1146C99.7218 33.9019 99.8805 33.736 100.086 33.6098C100.292 33.4835 100.53 33.4222 100.796 33.4222C101.063 33.4222 101.276 33.4799 101.471 33.5989C101.666 33.7179 101.81 33.873 101.904 34.0714L101.557 34.1795C101.482 34.0389 101.373 33.9307 101.236 33.855C101.099 33.7756 100.948 33.736 100.778 33.736C100.598 33.736 100.432 33.7829 100.281 33.8766C100.129 33.9704 100.01 34.0966 99.9238 34.2589C99.8336 34.4212 99.7904 34.6051 99.7904 34.8142C99.7904 35.0234 99.8372 35.2037 99.9274 35.3696C100.018 35.5355 100.137 35.6689 100.288 35.7663C100.439 35.8636 100.602 35.9141 100.786 35.9141C100.905 35.9141 101.016 35.8925 101.128 35.8528C101.236 35.8095 101.334 35.7554 101.417 35.6833C101.5 35.6112 101.554 35.5355 101.583 35.4525L101.932 35.5571C101.882 35.6869 101.803 35.8023 101.691 35.9033C101.579 36.0079 101.446 36.0872 101.294 36.1449C101.143 36.2026 100.98 36.2315 100.807 36.2315L100.8 36.2279Z" fill="#0266AE"/>
<path d="M103.634 36.2278C103.44 36.2278 103.259 36.1918 103.094 36.116C102.928 36.0403 102.783 35.9393 102.661 35.8095C102.538 35.6797 102.444 35.5282 102.376 35.3587C102.307 35.1892 102.275 35.0053 102.275 34.8142C102.275 34.5618 102.333 34.331 102.452 34.1182C102.571 33.9054 102.729 33.7396 102.935 33.6133C103.14 33.4871 103.375 33.4258 103.634 33.4258C103.894 33.4258 104.136 33.4907 104.338 33.6169C104.54 33.7432 104.695 33.9127 104.81 34.1218C104.925 34.331 104.983 34.5582 104.983 34.8106V34.8899C104.983 34.9152 104.983 34.9368 104.98 34.9512H102.65C102.668 35.146 102.722 35.3191 102.816 35.4669C102.91 35.6148 103.029 35.7374 103.176 35.8239C103.324 35.9105 103.487 35.9574 103.66 35.9574C103.833 35.9574 104.006 35.9105 104.165 35.8203C104.323 35.7302 104.435 35.6112 104.496 35.4669L104.803 35.5499C104.749 35.6797 104.662 35.7951 104.547 35.8997C104.431 36.0042 104.298 36.0836 104.143 36.1413C103.988 36.199 103.822 36.2278 103.645 36.2278H103.634ZM102.632 34.6916H104.641C104.626 34.4969 104.572 34.3238 104.482 34.1759C104.392 34.028 104.269 33.9127 104.121 33.8261C103.973 33.7432 103.811 33.6999 103.634 33.6999C103.458 33.6999 103.295 33.7432 103.148 33.8261C103.003 33.909 102.881 34.028 102.791 34.1759C102.697 34.3274 102.646 34.4969 102.632 34.6916ZM102.975 32.8092L103.487 32.3656H103.746L104.262 32.8092L104.06 32.9173L103.616 32.5892L103.173 32.9173L102.975 32.8092Z" fill="#0266AE"/>
<path d="M105.47 36.1774V35.6653H105.776V36.1774H105.47Z" fill="#0266AE"/>
</g>
<defs>
<clipPath id="clip0_410_422">
<rect width="126" height="40.3892" fill="white"/>
</clipPath>
</defs>
</svg>
